G04 ================== begin FILE IDENTIFICATION RECORD ==================*
G04 Layout Name:  E:/san4chV2/sanT4ch_finish/Board/sanT_4ch.brd*
G04 Film Name:    assemblyTop*
G04 File Format:  Gerber RS274X*
G04 File Origin:  Cadence Allegro 16.5-P002*
G04 Origin Date:  Fri Jul 07 03:44:50 2017*
G04 *
G04 Layer:  REF DES/ASSEMBLY_TOP*
G04 Layer:  PACKAGE GEOMETRY/ASSEMBLY_TOP*
G04 Layer:  BOARD GEOMETRY/OUTLINE*
G04 *
G04 Offset:    (0.0 0.0)*
G04 Mirror:    No*
G04 Mode:      Positive*
G04 Rotation:  0*
G04 FullContactRelief:  No*
G04 UndefLineWidth:     6.0*
G04 ================== end FILE IDENTIFICATION RECORD ====================*
%FSLAX35Y35*MOIN*%
%IR0*IPPOS*OFA0.00000B0.00000*MIA0B0*SFA1.00000B1.00000*%
%ADD10C,.0051*%
%ADD11C,.0039*%
%ADD12C,.0059*%
%ADD13C,.0079*%
%ADD14C,.0201*%
%ADD15C,.006*%
%ADD16C,.0157*%
G75*
%LPD*%
G75*
G36*
G01X-108470Y17830D02*
Y22160D01*
X-104130D01*
Y17830D01*
X-108470D01*
G37*
G36*
G01Y67830D02*
Y72160D01*
X-104130D01*
Y67830D01*
X-108470D01*
G37*
G36*
G01X-66650Y25350D02*
X-70950D01*
Y29640D01*
X-66650D01*
Y25350D01*
G37*
G54D10*
G01X-121300Y18500D02*
Y71490D01*
X-67280D01*
Y18500D01*
X-121300D01*
G54D11*
G01X-137450Y52830D02*
Y55970D01*
X-131150D01*
Y52830D01*
X-137450D01*
G01X-131350Y68170D02*
Y65030D01*
X-137650D01*
Y68170D01*
X-131350D01*
G01X-131150Y103370D02*
Y100230D01*
X-137450D01*
Y103370D01*
X-131150D01*
G01X-131250Y114970D02*
Y111830D01*
X-137550D01*
Y114970D01*
X-131250D01*
G01X-131050Y80070D02*
Y76930D01*
X-137350D01*
Y80070D01*
X-131050D01*
G01Y91970D02*
Y88830D01*
X-137350D01*
Y91970D01*
X-131050D01*
G01X-94830Y3650D02*
X-97970D01*
Y9950D01*
X-94830D01*
Y3650D01*
G01X-86250Y103670D02*
Y100530D01*
X-92550D01*
Y103670D01*
X-86250D01*
G01X-84730Y3950D02*
X-87870D01*
Y10250D01*
X-84730D01*
Y3950D01*
G01X-58550Y20930D02*
Y24070D01*
X-52250D01*
Y20930D01*
X-58550D01*
G01X-52450Y33970D02*
Y30830D01*
X-58750D01*
Y33970D01*
X-52450D01*
G01X-51650Y49370D02*
Y46230D01*
X-57950D01*
Y49370D01*
X-51650D01*
G01X-51750Y58670D02*
Y55530D01*
X-58050D01*
Y58670D01*
X-51750D01*
G01X-54450Y104070D02*
Y100930D01*
X-60750D01*
Y104070D01*
X-54450D01*
G01X-39630Y50350D02*
X-42770D01*
Y56650D01*
G01X-39630D02*
Y50350D01*
G01X-36650Y101830D02*
Y104970D01*
X-30350D01*
Y101830D01*
X-36650D01*
G01X-31130Y50250D02*
X-34270D01*
Y56550D01*
X-31130D01*
Y50250D01*
G01X-22630D02*
X-25770D01*
Y56550D01*
G01X-22630D02*
Y50250D01*
G01X-14430Y50150D02*
X-17570D01*
Y56450D01*
X-14430D01*
Y50150D01*
G01X-10130Y23550D02*
X-13270D01*
Y29850D01*
X-10130D01*
Y23550D01*
G01X-6230Y50150D02*
X-9370D01*
Y56450D01*
X-6230D01*
Y50150D01*
G01X-4650Y68670D02*
Y65530D01*
X-10950D01*
Y68670D01*
X-4650D01*
G01X-10950Y73230D02*
Y76370D01*
X-4650D01*
Y73230D01*
X-10950D01*
G01X-1630Y23550D02*
X-4770D01*
Y29850D01*
X-1630D01*
Y23550D01*
G01X2170Y50150D02*
X-970D01*
Y56450D01*
X2170D01*
Y50150D01*
G01X46330Y90050D02*
X49470D01*
Y83750D01*
X46330D01*
Y90050D01*
G01X61170Y84050D02*
X58030D01*
Y90350D01*
X61170D01*
Y84050D01*
G01X71170D02*
X68030D01*
Y90350D01*
X71170D01*
Y84050D01*
G01X81170D02*
X78030D01*
Y90350D01*
X81170D01*
Y84050D01*
G01X91170D02*
X88030D01*
Y90350D01*
X91170D01*
Y84050D01*
G54D12*
G01X-162870Y-121300D02*
Y-139610D01*
X-129410D01*
Y-117950D01*
X-162870D01*
Y-121300D01*
G54D13*
G01X-181100Y-46060D02*
X-192910D01*
Y-70470D01*
X-181100D01*
Y-74020D01*
X-163390D01*
Y-42520D01*
X-181100D01*
Y-46060D01*
G01Y-7090D02*
X-192910D01*
Y-31500D01*
X-181100D01*
Y-35040D01*
X-163390D01*
Y-3540D01*
X-181100D01*
Y-7090D01*
G01Y31890D02*
X-192910D01*
Y7480D01*
X-181100D01*
Y3940D01*
X-163390D01*
Y35430D01*
X-181100D01*
Y31890D01*
G01Y70870D02*
X-192910D01*
Y46460D01*
X-181100D01*
Y42910D01*
X-163390D01*
Y74410D01*
X-181100D01*
Y70870D01*
G01Y134250D02*
X-192910D01*
Y109840D01*
X-181100D01*
Y106300D01*
X-163390D01*
Y137800D01*
X-181100D01*
Y134250D01*
G01X-156700Y-116000D02*
X-155400Y-119930D01*
X-158000D01*
X-156700Y-116000D01*
G01X-161700D02*
X-141700D01*
Y-106000D01*
X-161700D01*
Y-116000D01*
G01X-156700Y-105800D02*
X-155400Y-109740D01*
X-158000D01*
X-156700Y-105800D01*
G01X-161700D02*
X-141700D01*
Y-95800D01*
X-161700D01*
Y-105800D01*
G01X-156700Y-116000D02*
X-155640Y-119930D01*
G01X-156700Y-116000D02*
X-156420Y-119930D01*
G01X-156700Y-116000D02*
X-157210Y-119930D01*
G01X-156700Y-105800D02*
X-155640Y-109740D01*
G01X-156700Y-105800D02*
X-156420Y-109740D01*
G01X-156700Y-105800D02*
X-157210Y-109740D01*
G01X-151700Y-116000D02*
Y-106000D01*
G01Y-111000D02*
Y-106000D01*
G01Y-105800D02*
Y-95800D01*
G01Y-100800D02*
Y-95800D01*
G01X-131100Y128300D02*
X-129790Y124360D01*
X-132410D01*
X-131100Y128300D01*
G01X-136100D02*
X-96100D01*
Y138300D01*
X-136100D01*
Y128300D01*
G01X-131100D02*
X-130050Y124360D01*
G01X-131100Y128300D02*
X-130840Y124360D01*
G01X-131100Y128300D02*
X-131620Y124360D01*
G01X-64960Y-139370D02*
X-124020D01*
Y-109840D01*
X-64960D01*
Y-139370D01*
G01X-126100Y128300D02*
Y138300D01*
G01X-116100Y133300D02*
Y138300D01*
G01X-5910Y-139370D02*
X-64960D01*
Y-109840D01*
X-5910D01*
Y-139370D01*
G01X-37400Y129100D02*
X12600D01*
Y139100D01*
X-37400D01*
Y129100D01*
G01X-32400D02*
X-31350Y125160D01*
G01X-32400Y129100D02*
X-32140Y125160D01*
G01X-32400Y129100D02*
X-32920Y125160D01*
G01X-32400Y129100D02*
X-31090Y125160D01*
X-33710D01*
X-32400Y129100D01*
G01X-27400D02*
Y139100D01*
G01X-12400Y134100D02*
Y139100D01*
G01X53150Y-139370D02*
X-5910D01*
Y-109840D01*
X53150D01*
Y-139370D01*
G01X11520Y12220D02*
Y13280D01*
G01X48680Y27970D02*
X9310D01*
Y12220D01*
X48680D01*
Y27970D01*
G01X11520D02*
Y26910D01*
G01X16480Y12220D02*
Y13280D01*
G01Y27970D02*
Y26910D01*
G01X16520Y50420D02*
Y51480D01*
G01X14320Y50420D02*
X53690D01*
Y66170D01*
X14320D01*
Y50420D01*
G01X16520Y66170D02*
Y65110D01*
G01X21520Y12220D02*
Y13280D01*
G01Y27970D02*
Y26910D01*
G01X21480Y50420D02*
Y51480D01*
G01Y66170D02*
Y65110D01*
G01X26480Y12220D02*
Y13280D01*
G01Y27970D02*
Y26910D01*
G01X26520Y50420D02*
Y51480D01*
G01Y66170D02*
Y65110D01*
G01X31520Y12220D02*
Y13280D01*
G01Y27970D02*
Y26910D01*
G01X31480Y50420D02*
Y51480D01*
G01Y66170D02*
Y65110D01*
G01X36480Y12220D02*
Y13280D01*
G01Y27970D02*
Y26910D01*
G01X36520Y50420D02*
Y51480D01*
G01Y66170D02*
Y65110D01*
G01X41520Y12220D02*
Y13280D01*
G01Y27970D02*
Y26910D01*
G01X41480Y50420D02*
Y51480D01*
G01Y66170D02*
Y65110D01*
G01X46480Y12220D02*
Y13280D01*
G01Y27970D02*
Y26910D01*
G01X46520Y50420D02*
Y51480D01*
G01Y66170D02*
Y65110D01*
G01X112200Y-139370D02*
X53150D01*
Y-109840D01*
G01X51480Y50420D02*
Y51480D01*
G01Y66170D02*
Y65110D01*
G01X151570Y-139370D02*
X112200D01*
Y-109840D01*
X151570D01*
Y-139370D01*
G01X112200Y-109840D02*
Y-139370D01*
G54D14*
G01X11520Y26910D02*
Y31910D01*
G01X16480Y13280D02*
Y8280D01*
G01Y26910D02*
Y31910D01*
G01X16520Y51480D02*
Y46480D01*
G01Y65110D02*
Y70110D01*
G01X21520Y13280D02*
Y8280D01*
G01Y26910D02*
Y31910D01*
G01X21480Y51480D02*
Y46480D01*
G01X26480Y13280D02*
Y8280D01*
G01Y26910D02*
Y31910D01*
G01X26520Y51480D02*
Y46480D01*
G01X31520Y26910D02*
Y31910D01*
G01X36480Y13280D02*
Y8280D01*
G01Y26910D02*
Y31910D01*
G01X36520Y51480D02*
Y46480D01*
G01Y65110D02*
Y70110D01*
G01X41520Y26910D02*
Y31910D01*
G01X41480Y51480D02*
Y46480D01*
G01Y65110D02*
Y70110D01*
G01X46520Y51480D02*
Y46480D01*
G01Y65110D02*
Y70110D01*
G01X51480Y51480D02*
Y46480D01*
G01Y65110D02*
Y70110D01*
G54D15*
G01X-177170Y141340D02*
X177170D01*
G02X185040Y133460I-5J-7875D01*
G01Y-129530D01*
G02X173230Y-141340I-11812J2D01*
G01X-173230D01*
G02X-185040Y-129530I2J11812D01*
G01Y133460D01*
G02X-177170Y141340I7875J5D01*
G01X-160710Y-85830D02*
G03I-6613J3D01*
G01X-172490Y-52600D02*
X-172700Y-52820D01*
X-172830Y-53060D01*
Y-53270D01*
X-172700Y-53490D01*
X-172490Y-53650D01*
X-172200Y-53730D01*
X-171910Y-53670D01*
X-171650Y-53540D01*
X-171490Y-53300D01*
X-171400Y-52980D01*
X-171230Y-52790D01*
X-170940Y-52710D01*
X-170650Y-52760D01*
X-170440Y-52900D01*
X-170310Y-53080D01*
Y-53270D01*
X-170390Y-53460D01*
X-170600Y-53620D01*
G01X-170310Y-54560D02*
X-172830Y-54940D01*
X-170310Y-55360D01*
X-172830Y-55790D01*
X-170310Y-56170D01*
G01X-172830Y-57890D02*
X-170310D01*
X-172120Y-56890D01*
Y-58240D01*
G01X-172490Y-13630D02*
X-172700Y-13850D01*
X-172830Y-14090D01*
Y-14300D01*
X-172700Y-14520D01*
X-172490Y-14680D01*
X-172200Y-14760D01*
X-171910Y-14700D01*
X-171650Y-14570D01*
X-171490Y-14330D01*
X-171400Y-14010D01*
X-171230Y-13820D01*
X-170940Y-13740D01*
X-170650Y-13790D01*
X-170440Y-13930D01*
X-170310Y-14110D01*
Y-14300D01*
X-170390Y-14490D01*
X-170600Y-14650D01*
G01X-170310Y-15590D02*
X-172830Y-15970D01*
X-170310Y-16390D01*
X-172830Y-16820D01*
X-170310Y-17200D01*
G01X-172330Y-18000D02*
X-172620Y-18170D01*
X-172790Y-18380D01*
X-172830Y-18620D01*
X-172790Y-18840D01*
X-172580Y-19050D01*
X-172330Y-19190D01*
X-172070Y-19210D01*
X-171780Y-19160D01*
X-171570Y-18970D01*
X-171490Y-18780D01*
Y-18540D01*
G01Y-18780D02*
X-171360Y-18940D01*
X-171150Y-19080D01*
X-170900Y-19130D01*
X-170650Y-19080D01*
X-170440Y-18940D01*
X-170310Y-18700D01*
X-170350Y-18460D01*
X-170520Y-18220D01*
G01X-172490Y25350D02*
X-172700Y25130D01*
X-172830Y24890D01*
Y24680D01*
X-172700Y24460D01*
X-172490Y24300D01*
X-172200Y24220D01*
X-171910Y24280D01*
X-171650Y24410D01*
X-171490Y24650D01*
X-171400Y24970D01*
X-171230Y25160D01*
X-170940Y25240D01*
X-170650Y25190D01*
X-170440Y25050D01*
X-170310Y24870D01*
Y24680D01*
X-170390Y24490D01*
X-170600Y24330D01*
G01X-170310Y23390D02*
X-172830Y23010D01*
X-170310Y22590D01*
X-172830Y22160D01*
X-170310Y21780D01*
G01X-170730Y20890D02*
X-170480Y20730D01*
X-170350Y20550D01*
X-170310Y20330D01*
X-170390Y20060D01*
X-170600Y19880D01*
X-170860Y19820D01*
X-171110Y19850D01*
X-171320Y19960D01*
X-171740Y20490D01*
X-172030Y20730D01*
X-172450Y20890D01*
X-172830Y20950D01*
Y19820D01*
G01X-172490Y64330D02*
X-172700Y64110D01*
X-172830Y63870D01*
Y63660D01*
X-172700Y63440D01*
X-172490Y63280D01*
X-172200Y63200D01*
X-171910Y63260D01*
X-171650Y63390D01*
X-171490Y63630D01*
X-171400Y63950D01*
X-171230Y64140D01*
X-170940Y64220D01*
X-170650Y64170D01*
X-170440Y64030D01*
X-170310Y63850D01*
Y63660D01*
X-170390Y63470D01*
X-170600Y63310D01*
G01X-170310Y62370D02*
X-172830Y61990D01*
X-170310Y61570D01*
X-172830Y61140D01*
X-170310Y60760D01*
G01X-172830Y59370D02*
X-170310D01*
X-170810Y59690D01*
G01X-172830D02*
Y59040D01*
G01X-157090Y92130D02*
G03I-10233J-4D01*
G01X-174970Y101930D02*
Y104450D01*
X-174300D01*
X-174090Y104320D01*
X-173950Y104160D01*
X-173900Y103820D01*
X-173950Y103480D01*
X-174110Y103270D01*
X-174300Y103150D01*
X-174970D01*
G01X-174300D02*
X-173900Y101930D01*
G01X-171700D02*
X-172770D01*
Y104450D01*
X-171700D01*
G01X-172130Y103230D02*
X-172770D01*
G01X-170540Y101930D02*
Y104450D01*
X-169530D01*
G01X-169900Y103230D02*
X-170540D01*
G01X-168550Y-86140D02*
Y-83620D01*
X-167880D01*
X-167670Y-83750D01*
X-167530Y-83910D01*
X-167480Y-84250D01*
X-167530Y-84590D01*
X-167690Y-84800D01*
X-167880Y-84920D01*
X-168550D01*
G01X-167880D02*
X-167480Y-86140D01*
G01X-165280D02*
X-166350D01*
Y-83620D01*
X-165280D01*
G01X-165710Y-84840D02*
X-166350D01*
G01X-164120Y-86140D02*
Y-83620D01*
X-163110D01*
G01X-163480Y-84840D02*
X-164120D01*
G01X-168660Y124160D02*
X-168870Y123940D01*
X-169000Y123700D01*
Y123490D01*
X-168870Y123270D01*
X-168660Y123110D01*
X-168370Y123030D01*
X-168080Y123090D01*
X-167820Y123220D01*
X-167660Y123460D01*
X-167570Y123780D01*
X-167400Y123970D01*
X-167110Y124050D01*
X-166820Y124000D01*
X-166610Y123860D01*
X-166480Y123680D01*
Y123490D01*
X-166560Y123300D01*
X-166770Y123140D01*
G01X-166480Y122200D02*
X-169000Y121820D01*
X-166480Y121400D01*
X-169000Y120970D01*
X-166480Y120590D01*
G01X-168620Y119790D02*
X-168830Y119620D01*
X-168960Y119440D01*
X-169000Y119200D01*
X-168920Y118950D01*
X-168750Y118770D01*
X-168450Y118630D01*
X-168120Y118600D01*
X-167780Y118660D01*
X-167570Y118790D01*
X-167400Y118980D01*
X-167360Y119170D01*
X-167400Y119360D01*
X-167570Y119600D01*
X-166480Y119520D01*
Y118790D01*
G01X-158310Y-110210D02*
Y-111340D01*
X-158230Y-111570D01*
X-158080Y-111730D01*
X-157880Y-111780D01*
X-157680Y-111730D01*
X-157530Y-111570D01*
X-157450Y-111340D01*
Y-110210D01*
G01X-157070Y-110470D02*
X-156960Y-110310D01*
X-156820Y-110240D01*
X-156660Y-110210D01*
X-156460Y-110260D01*
X-156330Y-110390D01*
X-156290Y-110550D01*
X-156310Y-110710D01*
X-156390Y-110840D01*
X-156780Y-111100D01*
X-156960Y-111280D01*
X-157070Y-111540D01*
X-157110Y-111780D01*
X-156290D01*
G01X-155520D02*
Y-110210D01*
X-155760Y-110520D01*
G01Y-111780D02*
X-155280D01*
G01X-158310Y-100020D02*
Y-101150D01*
X-158230Y-101380D01*
X-158080Y-101540D01*
X-157880Y-101590D01*
X-157680Y-101540D01*
X-157530Y-101380D01*
X-157450Y-101150D01*
Y-100020D01*
G01X-156700Y-101590D02*
Y-100020D01*
X-156940Y-100330D01*
G01Y-101590D02*
X-156460D01*
G01X-155850Y-101410D02*
X-155720Y-101540D01*
X-155560Y-101590D01*
X-155400Y-101540D01*
X-155260Y-101380D01*
X-155170Y-101150D01*
X-155130Y-100910D01*
Y-100620D01*
X-155170Y-100390D01*
X-155260Y-100180D01*
X-155380Y-100070D01*
X-155520Y-100020D01*
X-155680Y-100070D01*
X-155800Y-100180D01*
X-155870Y-100330D01*
X-155910Y-100540D01*
X-155870Y-100730D01*
X-155780Y-100910D01*
X-155660Y-101010D01*
X-155520Y-101040D01*
X-155360Y-100990D01*
X-155240Y-100860D01*
X-155130Y-100620D01*
G01X-152430Y-129410D02*
Y-131220D01*
X-152320Y-131590D01*
X-152100Y-131850D01*
X-151840Y-131930D01*
X-151570Y-131850D01*
X-151350Y-131590D01*
X-151240Y-131220D01*
Y-129410D01*
G01X-149640Y-131930D02*
Y-129410D01*
X-149960Y-129910D01*
G01Y-131930D02*
X-149310D01*
G01X-147440D02*
Y-129410D01*
X-147760Y-129910D01*
G01Y-131930D02*
X-147110D01*
G01X-132280Y-81380D02*
Y-100630D01*
X-120830Y-112090D01*
Y-131690D01*
X-127560D01*
X-127800Y-131460D01*
Y-115280D01*
X-137360Y-105710D01*
Y-81730D01*
X-136650Y-81020D01*
X-132640D01*
X-132280Y-81380D01*
G01X-70870Y-94090D02*
X-133860D01*
Y-19290D01*
X-70870D01*
Y-94090D01*
G01X-135940Y53220D02*
Y55740D01*
X-135270D01*
X-135060Y55610D01*
X-134920Y55450D01*
X-134870Y55110D01*
X-134920Y54770D01*
X-135080Y54560D01*
X-135270Y54440D01*
X-135940D01*
G01X-135270D02*
X-134870Y53220D01*
G01X-133710Y55320D02*
X-133550Y55570D01*
X-133370Y55700D01*
X-133150Y55740D01*
X-132880Y55660D01*
X-132700Y55450D01*
X-132640Y55190D01*
X-132670Y54940D01*
X-132780Y54730D01*
X-133310Y54310D01*
X-133550Y54020D01*
X-133710Y53600D01*
X-133770Y53220D01*
X-132640D01*
G01X-132860Y67780D02*
Y65260D01*
X-133530D01*
X-133740Y65390D01*
X-133880Y65550D01*
X-133930Y65890D01*
X-133880Y66230D01*
X-133720Y66440D01*
X-133530Y66560D01*
X-132860D01*
G01X-133530D02*
X-133930Y67780D01*
G01X-135140Y67490D02*
X-135330Y67700D01*
X-135540Y67780D01*
X-135760Y67700D01*
X-135940Y67440D01*
X-136080Y67070D01*
X-136130Y66690D01*
Y66230D01*
X-136080Y65850D01*
X-135940Y65510D01*
X-135780Y65340D01*
X-135590Y65260D01*
X-135380Y65340D01*
X-135220Y65510D01*
X-135110Y65760D01*
X-135060Y66100D01*
X-135110Y66390D01*
X-135250Y66690D01*
X-135410Y66860D01*
X-135590Y66900D01*
X-135810Y66810D01*
X-135970Y66600D01*
X-136130Y66230D01*
G01X-132560Y79680D02*
Y77160D01*
X-133230D01*
X-133440Y77290D01*
X-133580Y77450D01*
X-133630Y77790D01*
X-133580Y78130D01*
X-133420Y78340D01*
X-133230Y78460D01*
X-132560D01*
G01X-133230D02*
X-133630Y79680D01*
G01X-135290D02*
X-135480Y79640D01*
X-135700Y79510D01*
X-135830Y79300D01*
X-135890Y79010D01*
X-135830Y78710D01*
X-135670Y78460D01*
X-135430Y78340D01*
X-135160D01*
X-135000Y78250D01*
X-134870Y78040D01*
X-134810Y77750D01*
X-134890Y77450D01*
X-135080Y77240D01*
X-135290Y77160D01*
X-135510Y77240D01*
X-135700Y77450D01*
X-135780Y77750D01*
X-135720Y78040D01*
X-135590Y78250D01*
X-135430Y78340D01*
X-135160D01*
X-134920Y78460D01*
X-134760Y78710D01*
X-134700Y79010D01*
X-134760Y79300D01*
X-134890Y79510D01*
X-135110Y79640D01*
X-135290Y79680D01*
G01X-132560Y91580D02*
Y89060D01*
X-133230D01*
X-133440Y89190D01*
X-133580Y89350D01*
X-133630Y89690D01*
X-133580Y90030D01*
X-133420Y90240D01*
X-133230Y90360D01*
X-132560D01*
G01X-133230D02*
X-133630Y91580D01*
G01X-135240D02*
X-135290Y91030D01*
X-135380Y90570D01*
X-135480Y90150D01*
X-135620Y89690D01*
X-135830Y89060D01*
X-134760D01*
G01X-132660Y102980D02*
Y100460D01*
X-133330D01*
X-133540Y100590D01*
X-133680Y100750D01*
X-133730Y101090D01*
X-133680Y101430D01*
X-133520Y101640D01*
X-133330Y101760D01*
X-132660D01*
G01X-133330D02*
X-133730Y102980D01*
G01X-134890Y101930D02*
X-135070Y101640D01*
X-135230Y101470D01*
X-135450Y101380D01*
X-135640Y101470D01*
X-135770Y101640D01*
X-135880Y101890D01*
X-135900Y102180D01*
X-135880Y102430D01*
X-135770Y102690D01*
X-135610Y102900D01*
X-135420Y102980D01*
X-135210Y102900D01*
X-135020Y102640D01*
X-134910Y102270D01*
X-134890Y101850D01*
X-134940Y101300D01*
X-135020Y101010D01*
X-135150Y100710D01*
X-135340Y100500D01*
X-135530Y100460D01*
X-135720Y100540D01*
X-135850Y100750D01*
G01X-131660Y114580D02*
Y112060D01*
X-132330D01*
X-132540Y112190D01*
X-132680Y112350D01*
X-132730Y112690D01*
X-132680Y113030D01*
X-132520Y113240D01*
X-132330Y113360D01*
X-131660D01*
G01X-132330D02*
X-132730Y114580D01*
G01X-134390D02*
Y112060D01*
X-134070Y112560D01*
G01Y114580D02*
X-134720D01*
G01X-136590Y112060D02*
X-136380Y112140D01*
X-136220Y112350D01*
X-136110Y112610D01*
X-136030Y112940D01*
X-136000Y113320D01*
X-136030Y113700D01*
X-136110Y114030D01*
X-136220Y114290D01*
X-136380Y114500D01*
X-136590Y114580D01*
X-136810Y114500D01*
X-136970Y114290D01*
X-137080Y114030D01*
X-137160Y113700D01*
X-137190Y113320D01*
X-137160Y112940D01*
X-137080Y112610D01*
X-136970Y112350D01*
X-136810Y112140D01*
X-136590Y112060D01*
G01X-132710Y134080D02*
Y132950D01*
X-132630Y132720D01*
X-132480Y132560D01*
X-132280Y132510D01*
X-132080Y132560D01*
X-131930Y132720D01*
X-131850Y132950D01*
Y134080D01*
G01X-131470Y133820D02*
X-131360Y133980D01*
X-131220Y134050D01*
X-131060Y134080D01*
X-130860Y134030D01*
X-130730Y133900D01*
X-130690Y133740D01*
X-130710Y133580D01*
X-130790Y133450D01*
X-131180Y133190D01*
X-131360Y133010D01*
X-131470Y132750D01*
X-131510Y132510D01*
X-130690D01*
G01X-130290Y133820D02*
X-130180Y133980D01*
X-130040Y134050D01*
X-129880Y134080D01*
X-129680Y134030D01*
X-129550Y133900D01*
X-129510Y133740D01*
X-129530Y133580D01*
X-129610Y133450D01*
X-130000Y133190D01*
X-130180Y133010D01*
X-130290Y132750D01*
X-130330Y132510D01*
X-129510D01*
G01X-125100Y13900D02*
Y48500D01*
X-111000D01*
Y13900D01*
X-125100D01*
G01X-120080Y-35430D02*
X-110240D01*
Y-21650D01*
X-108270Y-19690D01*
X-96460D01*
X-94490Y-21650D01*
Y-35430D01*
X-84650D01*
Y-17720D01*
X-88580Y-13780D01*
X-116140D01*
X-120080Y-17720D01*
Y-35430D01*
G01X-109250Y-128030D02*
Y-100280D01*
X-99690D01*
Y-128030D01*
X-109250D01*
G01X-99840Y-52970D02*
X-101650D01*
X-102020Y-53080D01*
X-102280Y-53300D01*
X-102360Y-53560D01*
X-102280Y-53830D01*
X-102020Y-54050D01*
X-101650Y-54160D01*
X-99840D01*
G01X-102360Y-55760D02*
X-99840D01*
X-100340Y-55440D01*
G01X-102360D02*
Y-56090D01*
G01Y-58290D02*
X-99840D01*
X-101650Y-57290D01*
Y-58640D01*
G01X-99130Y20000D02*
G03I-2170J0D01*
G01Y70000D02*
G03I-2170J0D01*
G01X-89300Y116140D02*
G03I-7160J0D01*
G01X-95220Y5160D02*
X-97740D01*
Y5830D01*
X-97610Y6040D01*
X-97450Y6180D01*
X-97110Y6230D01*
X-96770Y6180D01*
X-96560Y6020D01*
X-96440Y5830D01*
Y5160D01*
G01Y5830D02*
X-95220Y6230D01*
G01X-95720Y7300D02*
X-95430Y7470D01*
X-95260Y7680D01*
X-95220Y7920D01*
X-95260Y8140D01*
X-95470Y8350D01*
X-95720Y8490D01*
X-95980Y8510D01*
X-96270Y8460D01*
X-96480Y8270D01*
X-96560Y8080D01*
Y7840D01*
G01Y8080D02*
X-96690Y8240D01*
X-96900Y8380D01*
X-97150Y8430D01*
X-97400Y8380D01*
X-97610Y8240D01*
X-97740Y8000D01*
X-97700Y7760D01*
X-97530Y7520D01*
G01X-94130Y20000D02*
G03I-2170J0D01*
G01X-97290Y49480D02*
Y45900D01*
X-97040Y45150D01*
X-96530Y44650D01*
X-95890Y44480D01*
X-95250Y44650D01*
X-94740Y45150D01*
X-94490Y45900D01*
Y49480D01*
G01X-90770Y44480D02*
Y49480D01*
X-91530Y48480D01*
G01Y44480D02*
X-90010D01*
G01X-85780D02*
X-85650Y45560D01*
X-85460Y46480D01*
X-85200Y47310D01*
X-84890Y48230D01*
X-84380Y49480D01*
X-86920D01*
G01X-94130Y70000D02*
G03I-2170J0D01*
G01X-98960Y125040D02*
Y127560D01*
X-98420D01*
X-98200Y127430D01*
X-98040Y127270D01*
X-97910Y127010D01*
X-97800Y126720D01*
X-97770Y126300D01*
X-97800Y125880D01*
X-97910Y125590D01*
X-98040Y125330D01*
X-98200Y125170D01*
X-98420Y125040D01*
X-98960D01*
G01X-96170D02*
Y127560D01*
X-96490Y127060D01*
G01Y125040D02*
X-95840D01*
G01X-89130Y20000D02*
G03I-2170J0D01*
G01Y70000D02*
G03I-2170J0D01*
G01X-86660Y103280D02*
Y100760D01*
X-87330D01*
X-87540Y100890D01*
X-87680Y101050D01*
X-87730Y101390D01*
X-87680Y101730D01*
X-87520Y101940D01*
X-87330Y102060D01*
X-86660D01*
G01X-87330D02*
X-87730Y103280D01*
G01X-89390D02*
Y100760D01*
X-89070Y101260D01*
G01Y103280D02*
X-89720D01*
G01X-91090Y101180D02*
X-91250Y100930D01*
X-91430Y100800D01*
X-91650Y100760D01*
X-91920Y100840D01*
X-92100Y101050D01*
X-92160Y101310D01*
X-92130Y101560D01*
X-92020Y101770D01*
X-91490Y102190D01*
X-91250Y102480D01*
X-91090Y102900D01*
X-91030Y103280D01*
X-92160D01*
G01X-89530Y-128270D02*
Y-100040D01*
X-79960D01*
Y-128270D01*
X-89530D01*
G01X-85120Y4360D02*
X-87640D01*
Y5030D01*
X-87510Y5240D01*
X-87350Y5380D01*
X-87010Y5430D01*
X-86670Y5380D01*
X-86460Y5220D01*
X-86340Y5030D01*
Y4360D01*
G01Y5030D02*
X-85120Y5430D01*
G01Y7090D02*
X-87640D01*
X-87140Y6770D01*
G01X-85120D02*
Y7420D01*
G01X-86170Y8790D02*
X-86460Y8970D01*
X-86630Y9130D01*
X-86720Y9350D01*
X-86630Y9540D01*
X-86460Y9670D01*
X-86210Y9780D01*
X-85920Y9800D01*
X-85670Y9780D01*
X-85410Y9670D01*
X-85200Y9510D01*
X-85120Y9320D01*
X-85200Y9110D01*
X-85460Y8920D01*
X-85830Y8810D01*
X-86250Y8790D01*
X-86800Y8840D01*
X-87090Y8920D01*
X-87390Y9050D01*
X-87600Y9240D01*
X-87640Y9430D01*
X-87560Y9620D01*
X-87350Y9750D01*
G01X-84130Y20000D02*
G03I-2170J0D01*
G01Y70000D02*
G03I-2170J0D01*
G01X-79130Y20000D02*
G03I-2170J0D01*
G01Y70000D02*
G03I-2170J0D01*
G01X-74130Y20000D02*
G03I-2170J0D01*
G01Y70000D02*
G03I-2170J0D01*
G01X-71080Y-143860D02*
Y-142050D01*
X-71190Y-141680D01*
X-71410Y-141420D01*
X-71670Y-141340D01*
X-71940Y-141420D01*
X-72160Y-141680D01*
X-72270Y-142050D01*
Y-143860D01*
G01X-73870Y-141340D02*
Y-143860D01*
X-73550Y-143360D01*
G01Y-141340D02*
X-74200D01*
G01X-76070Y-143860D02*
X-75860Y-143780D01*
X-75700Y-143570D01*
X-75590Y-143310D01*
X-75510Y-142980D01*
X-75480Y-142600D01*
X-75510Y-142220D01*
X-75590Y-141890D01*
X-75700Y-141630D01*
X-75860Y-141420D01*
X-76070Y-141340D01*
X-76290Y-141420D01*
X-76450Y-141630D01*
X-76560Y-141890D01*
X-76640Y-142220D01*
X-76670Y-142600D01*
X-76640Y-142980D01*
X-76560Y-143310D01*
X-76450Y-143570D01*
X-76290Y-143780D01*
X-76070Y-143860D01*
G01X-69130Y20000D02*
G03I-2170J0D01*
G01Y70000D02*
G03I-2170J0D01*
G01X-58590Y116140D02*
G03I-7160J0D01*
G01X-69920Y-128390D02*
Y-100040D01*
X-60000D01*
Y-128390D01*
X-69920D01*
G01X-66650Y32500D02*
G03I-2150J0D01*
G01Y37500D02*
G03I-2150J0D01*
G01Y42500D02*
G03I-2150J0D01*
G01Y47500D02*
G03I-2150J0D01*
G01Y52500D02*
G03I-2150J0D01*
G01Y57500D02*
G03I-2150J0D01*
G01Y62500D02*
G03I-2150J0D01*
G01X-68250Y125040D02*
Y127560D01*
X-67710D01*
X-67490Y127430D01*
X-67330Y127270D01*
X-67200Y127010D01*
X-67090Y126720D01*
X-67060Y126300D01*
X-67090Y125880D01*
X-67200Y125590D01*
X-67330Y125330D01*
X-67490Y125170D01*
X-67710Y125040D01*
X-68250D01*
G01X-65960Y126090D02*
X-65780Y126380D01*
X-65620Y126550D01*
X-65400Y126640D01*
X-65210Y126550D01*
X-65080Y126380D01*
X-64970Y126130D01*
X-64950Y125840D01*
X-64970Y125590D01*
X-65080Y125330D01*
X-65240Y125120D01*
X-65430Y125040D01*
X-65640Y125120D01*
X-65830Y125380D01*
X-65940Y125750D01*
X-65960Y126170D01*
X-65910Y126720D01*
X-65830Y127010D01*
X-65700Y127310D01*
X-65510Y127520D01*
X-65320Y127560D01*
X-65130Y127480D01*
X-65000Y127270D01*
G01X-3940Y-94090D02*
X-66930D01*
Y-19290D01*
X-3940D01*
Y-94090D01*
G01X-57040Y21320D02*
Y23840D01*
X-56370D01*
X-56160Y23710D01*
X-56020Y23550D01*
X-55970Y23210D01*
X-56020Y22870D01*
X-56180Y22660D01*
X-56370Y22540D01*
X-57040D01*
G01X-56370D02*
X-55970Y21320D01*
G01X-54900Y21700D02*
X-54730Y21490D01*
X-54550Y21360D01*
X-54310Y21320D01*
X-54060Y21400D01*
X-53880Y21570D01*
X-53740Y21870D01*
X-53710Y22200D01*
X-53770Y22540D01*
X-53900Y22750D01*
X-54090Y22920D01*
X-54280Y22960D01*
X-54470Y22920D01*
X-54710Y22750D01*
X-54630Y23840D01*
X-53900D01*
G01X-52860Y33580D02*
Y31060D01*
X-53530D01*
X-53740Y31190D01*
X-53880Y31350D01*
X-53930Y31690D01*
X-53880Y32030D01*
X-53720Y32240D01*
X-53530Y32360D01*
X-52860D01*
G01X-53530D02*
X-53930Y33580D01*
G01X-55590D02*
Y31060D01*
X-55270Y31560D01*
G01Y33580D02*
X-55920D01*
G01X-57200Y33080D02*
X-57370Y33370D01*
X-57580Y33540D01*
X-57820Y33580D01*
X-58040Y33540D01*
X-58250Y33330D01*
X-58390Y33080D01*
X-58410Y32820D01*
X-58360Y32530D01*
X-58170Y32320D01*
X-57980Y32240D01*
X-57740D01*
G01X-57980D02*
X-58140Y32110D01*
X-58280Y31900D01*
X-58330Y31650D01*
X-58280Y31400D01*
X-58140Y31190D01*
X-57900Y31060D01*
X-57660Y31100D01*
X-57420Y31270D01*
G01X-52060Y48980D02*
Y46460D01*
X-52730D01*
X-52940Y46590D01*
X-53080Y46750D01*
X-53130Y47090D01*
X-53080Y47430D01*
X-52920Y47640D01*
X-52730Y47760D01*
X-52060D01*
G01X-52730D02*
X-53130Y48980D01*
G01X-54790D02*
Y46460D01*
X-54470Y46960D01*
G01Y48980D02*
X-55120D01*
G01X-57320D02*
Y46460D01*
X-56320Y48270D01*
X-57670D01*
G01X-52160Y58280D02*
Y55760D01*
X-52830D01*
X-53040Y55890D01*
X-53180Y56050D01*
X-53230Y56390D01*
X-53180Y56730D01*
X-53020Y56940D01*
X-52830Y57060D01*
X-52160D01*
G01X-52830D02*
X-53230Y58280D01*
G01X-54890D02*
Y55760D01*
X-54570Y56260D01*
G01Y58280D02*
X-55220D01*
G01X-56500Y57900D02*
X-56670Y58110D01*
X-56850Y58240D01*
X-57090Y58280D01*
X-57340Y58200D01*
X-57520Y58030D01*
X-57660Y57730D01*
X-57690Y57400D01*
X-57630Y57060D01*
X-57500Y56850D01*
X-57310Y56680D01*
X-57120Y56640D01*
X-56930Y56680D01*
X-56690Y56850D01*
X-56770Y55760D01*
X-57500D01*
G01X-54860Y103680D02*
Y101160D01*
X-55530D01*
X-55740Y101290D01*
X-55880Y101450D01*
X-55930Y101790D01*
X-55880Y102130D01*
X-55720Y102340D01*
X-55530Y102460D01*
X-54860D01*
G01X-55530D02*
X-55930Y103680D01*
G01X-57090Y101580D02*
X-57250Y101330D01*
X-57430Y101200D01*
X-57650Y101160D01*
X-57920Y101240D01*
X-58100Y101450D01*
X-58160Y101710D01*
X-58130Y101960D01*
X-58020Y102170D01*
X-57490Y102590D01*
X-57250Y102880D01*
X-57090Y103300D01*
X-57030Y103680D01*
X-58160D01*
G01X-59790D02*
Y101160D01*
X-59470Y101660D01*
G01Y103680D02*
X-60120D01*
G01X-53150Y-35430D02*
X-43310D01*
Y-21650D01*
X-41340Y-19690D01*
X-29530D01*
X-27560Y-21650D01*
Y-35430D01*
X-17720D01*
Y-17720D01*
X-21650Y-13780D01*
X-49210D01*
X-53150Y-17720D01*
Y-35430D01*
G01X-50550Y-128740D02*
Y-100040D01*
X-40040D01*
Y-128740D01*
X-50550D01*
G01X-40020Y51860D02*
X-42540D01*
Y52530D01*
X-42410Y52740D01*
X-42250Y52880D01*
X-41910Y52930D01*
X-41570Y52880D01*
X-41360Y52720D01*
X-41240Y52530D01*
Y51860D01*
G01Y52530D02*
X-40020Y52930D01*
G01Y54920D02*
X-42540D01*
X-40730Y53920D01*
Y55270D01*
G01X-27880Y116140D02*
G03I-7160J0D01*
G01X-39860Y23280D02*
Y33520D01*
X-21740D01*
Y23280D01*
X-39860D01*
G01X-26140Y69500D02*
X-40700D01*
Y92540D01*
X-26140D01*
Y69500D01*
G01X-37550Y125040D02*
Y127560D01*
X-37010D01*
X-36790Y127430D01*
X-36630Y127270D01*
X-36500Y127010D01*
X-36390Y126720D01*
X-36360Y126300D01*
X-36390Y125880D01*
X-36500Y125590D01*
X-36630Y125330D01*
X-36790Y125170D01*
X-37010Y125040D01*
X-37550D01*
G01X-34810D02*
X-34760Y125590D01*
X-34670Y126050D01*
X-34570Y126470D01*
X-34430Y126930D01*
X-34220Y127560D01*
X-35290D01*
G01X-32910Y-52970D02*
X-34720D01*
X-35090Y-53080D01*
X-35350Y-53300D01*
X-35430Y-53560D01*
X-35350Y-53830D01*
X-35090Y-54050D01*
X-34720Y-54160D01*
X-32910D01*
G01X-35430Y-55760D02*
X-32910D01*
X-33410Y-55440D01*
G01X-35430D02*
Y-56090D01*
G01X-34930Y-57370D02*
X-35220Y-57540D01*
X-35390Y-57750D01*
X-35430Y-57990D01*
X-35390Y-58210D01*
X-35180Y-58420D01*
X-34930Y-58560D01*
X-34670Y-58580D01*
X-34380Y-58530D01*
X-34170Y-58340D01*
X-34090Y-58150D01*
Y-57910D01*
G01Y-58150D02*
X-33960Y-58310D01*
X-33750Y-58450D01*
X-33500Y-58500D01*
X-33250Y-58450D01*
X-33040Y-58310D01*
X-32910Y-58070D01*
X-32950Y-57830D01*
X-33120Y-57590D01*
G01X-34990Y43000D02*
Y41210D01*
X-34880Y40830D01*
X-34670Y40580D01*
X-34400Y40500D01*
X-34130Y40580D01*
X-33920Y40830D01*
X-33810Y41210D01*
Y43000D01*
G01X-32200Y40500D02*
X-32010Y40540D01*
X-31800Y40670D01*
X-31670Y40870D01*
X-31610Y41170D01*
X-31670Y41460D01*
X-31830Y41710D01*
X-32070Y41830D01*
X-32330D01*
X-32490Y41920D01*
X-32630Y42120D01*
X-32680Y42420D01*
X-32600Y42710D01*
X-32410Y42920D01*
X-32200Y43000D01*
X-31990Y42920D01*
X-31800Y42710D01*
X-31720Y42420D01*
X-31770Y42120D01*
X-31910Y41920D01*
X-32070Y41830D01*
X-32330D01*
X-32570Y41710D01*
X-32730Y41460D01*
X-32790Y41170D01*
X-32730Y40870D01*
X-32600Y40670D01*
X-32390Y40540D01*
X-32200Y40500D01*
G01X-31520Y50660D02*
X-34040D01*
Y51330D01*
X-33910Y51540D01*
X-33750Y51680D01*
X-33410Y51730D01*
X-33070Y51680D01*
X-32860Y51520D01*
X-32740Y51330D01*
Y50660D01*
G01Y51330D02*
X-31520Y51730D01*
G01Y53390D02*
X-34040D01*
X-33540Y53070D01*
G01X-31520D02*
Y53720D01*
G01Y55590D02*
X-34040D01*
X-33540Y55270D01*
G01X-31520D02*
Y55920D01*
G01X-30910Y79580D02*
Y81390D01*
X-31020Y81760D01*
X-31240Y82020D01*
X-31500Y82100D01*
X-31770Y82020D01*
X-31990Y81760D01*
X-32100Y81390D01*
Y79580D01*
G01X-33700Y82100D02*
Y79580D01*
X-33380Y80080D01*
G01Y82100D02*
X-34030D01*
G01X-35400Y81050D02*
X-35580Y80760D01*
X-35740Y80590D01*
X-35960Y80500D01*
X-36150Y80590D01*
X-36280Y80760D01*
X-36390Y81010D01*
X-36410Y81300D01*
X-36390Y81550D01*
X-36280Y81810D01*
X-36120Y82020D01*
X-35930Y82100D01*
X-35720Y82020D01*
X-35530Y81760D01*
X-35420Y81390D01*
X-35400Y80970D01*
X-35450Y80420D01*
X-35530Y80130D01*
X-35660Y79830D01*
X-35850Y79620D01*
X-36040Y79580D01*
X-36230Y79660D01*
X-36360Y79870D01*
G01X-36240Y102220D02*
Y104740D01*
X-35570D01*
X-35360Y104610D01*
X-35220Y104450D01*
X-35170Y104110D01*
X-35220Y103770D01*
X-35380Y103560D01*
X-35570Y103440D01*
X-36240D01*
G01X-35570D02*
X-35170Y102220D01*
G01X-34010Y104320D02*
X-33850Y104570D01*
X-33670Y104700D01*
X-33450Y104740D01*
X-33180Y104660D01*
X-33000Y104450D01*
X-32940Y104190D01*
X-32970Y103940D01*
X-33080Y103730D01*
X-33610Y103310D01*
X-33850Y103020D01*
X-34010Y102600D01*
X-34070Y102220D01*
X-32940D01*
G01X-31810Y104320D02*
X-31650Y104570D01*
X-31470Y104700D01*
X-31250Y104740D01*
X-30980Y104660D01*
X-30800Y104450D01*
X-30740Y104190D01*
X-30770Y103940D01*
X-30880Y103730D01*
X-31410Y103310D01*
X-31650Y103020D01*
X-31810Y102600D01*
X-31870Y102220D01*
X-30740D01*
G01X-34010Y134880D02*
Y133750D01*
X-33930Y133520D01*
X-33780Y133360D01*
X-33580Y133310D01*
X-33380Y133360D01*
X-33230Y133520D01*
X-33150Y133750D01*
Y134880D01*
G01X-32770Y134620D02*
X-32660Y134780D01*
X-32520Y134850D01*
X-32360Y134880D01*
X-32160Y134830D01*
X-32030Y134700D01*
X-31990Y134540D01*
X-32010Y134380D01*
X-32090Y134250D01*
X-32480Y133990D01*
X-32660Y133810D01*
X-32770Y133550D01*
X-32810Y133310D01*
X-31990D01*
G01X-31220Y134880D02*
X-31380Y134830D01*
X-31500Y134700D01*
X-31570Y134540D01*
X-31630Y134330D01*
X-31650Y134090D01*
X-31630Y133860D01*
X-31570Y133650D01*
X-31500Y133490D01*
X-31380Y133360D01*
X-31220Y133310D01*
X-31060Y133360D01*
X-30940Y133490D01*
X-30870Y133650D01*
X-30810Y133860D01*
X-30790Y134090D01*
X-30810Y134330D01*
X-30870Y134540D01*
X-30940Y134700D01*
X-31060Y134830D01*
X-31220Y134880D01*
G01X-30830Y-128980D02*
Y-99690D01*
X-20430D01*
Y-128980D01*
X-30830D01*
G01X-25330Y52890D02*
X-25460Y52720D01*
X-25540Y52540D01*
Y52320D01*
X-25410Y52080D01*
X-25200Y51890D01*
X-24950Y51760D01*
X-24530Y51650D01*
X-24150Y51620D01*
X-23780Y51680D01*
X-23520Y51760D01*
X-23270Y51920D01*
X-23100Y52110D01*
X-23020Y52290D01*
Y52480D01*
X-23100Y52670D01*
X-23230Y52830D01*
X-23400Y52970D01*
G01Y53900D02*
X-23190Y54070D01*
X-23060Y54250D01*
X-23020Y54490D01*
X-23100Y54740D01*
X-23270Y54920D01*
X-23570Y55060D01*
X-23900Y55090D01*
X-24240Y55030D01*
X-24450Y54900D01*
X-24620Y54710D01*
X-24660Y54520D01*
X-24620Y54330D01*
X-24450Y54090D01*
X-25540Y54170D01*
Y54900D01*
G01X-17130Y52790D02*
X-17260Y52620D01*
X-17340Y52440D01*
Y52220D01*
X-17210Y51980D01*
X-17000Y51790D01*
X-16750Y51660D01*
X-16330Y51550D01*
X-15950Y51520D01*
X-15580Y51580D01*
X-15320Y51660D01*
X-15070Y51820D01*
X-14900Y52010D01*
X-14820Y52190D01*
Y52380D01*
X-14900Y52570D01*
X-15030Y52730D01*
X-15200Y52870D01*
G01X-15870Y53890D02*
X-16160Y54070D01*
X-16330Y54230D01*
X-16420Y54450D01*
X-16330Y54640D01*
X-16160Y54770D01*
X-15910Y54880D01*
X-15620Y54900D01*
X-15370Y54880D01*
X-15110Y54770D01*
X-14900Y54610D01*
X-14820Y54420D01*
X-14900Y54210D01*
X-15160Y54020D01*
X-15530Y53910D01*
X-15950Y53890D01*
X-16500Y53940D01*
X-16790Y54020D01*
X-17090Y54150D01*
X-17300Y54340D01*
X-17340Y54530D01*
X-17260Y54720D01*
X-17050Y54850D01*
G01X-12020Y-143860D02*
Y-142050D01*
X-12130Y-141680D01*
X-12350Y-141420D01*
X-12610Y-141340D01*
X-12880Y-141420D01*
X-13100Y-141680D01*
X-13210Y-142050D01*
Y-143860D01*
G01X-14360Y-141630D02*
X-14550Y-141420D01*
X-14760Y-141340D01*
X-14980Y-141420D01*
X-15160Y-141680D01*
X-15300Y-142050D01*
X-15350Y-142430D01*
Y-142890D01*
X-15300Y-143270D01*
X-15160Y-143610D01*
X-15000Y-143780D01*
X-14810Y-143860D01*
X-14600Y-143780D01*
X-14440Y-143610D01*
X-14330Y-143360D01*
X-14280Y-143020D01*
X-14330Y-142730D01*
X-14470Y-142430D01*
X-14630Y-142260D01*
X-14810Y-142220D01*
X-15030Y-142310D01*
X-15190Y-142520D01*
X-15350Y-142890D01*
G01X-12830Y26190D02*
X-12960Y26020D01*
X-13040Y25840D01*
Y25620D01*
X-12910Y25380D01*
X-12700Y25190D01*
X-12450Y25060D01*
X-12030Y24950D01*
X-11650Y24920D01*
X-11280Y24980D01*
X-11020Y25060D01*
X-10770Y25220D01*
X-10600Y25410D01*
X-10520Y25590D01*
Y25780D01*
X-10600Y25970D01*
X-10730Y26130D01*
X-10900Y26270D01*
G01X-11020Y27200D02*
X-10730Y27370D01*
X-10560Y27580D01*
X-10520Y27820D01*
X-10560Y28040D01*
X-10770Y28250D01*
X-11020Y28390D01*
X-11280Y28410D01*
X-11570Y28360D01*
X-11780Y28170D01*
X-11860Y27980D01*
Y27740D01*
G01Y27980D02*
X-11990Y28140D01*
X-12200Y28280D01*
X-12450Y28330D01*
X-12700Y28280D01*
X-12910Y28140D01*
X-13040Y27900D01*
X-13000Y27660D01*
X-12830Y27420D01*
G01X-11100Y-129570D02*
Y-99210D01*
X-710D01*
Y-129570D01*
X-11100D01*
G01X-8930Y52790D02*
X-9060Y52620D01*
X-9140Y52440D01*
Y52220D01*
X-9010Y51980D01*
X-8800Y51790D01*
X-8550Y51660D01*
X-8130Y51550D01*
X-7750Y51520D01*
X-7380Y51580D01*
X-7120Y51660D01*
X-6870Y51820D01*
X-6700Y52010D01*
X-6620Y52190D01*
Y52380D01*
X-6700Y52570D01*
X-6830Y52730D01*
X-7000Y52870D01*
G01X-6620Y54390D02*
X-9140D01*
X-8640Y54070D01*
G01X-6620D02*
Y54720D01*
G01X-6160Y68280D02*
Y65760D01*
X-6830D01*
X-7040Y65890D01*
X-7180Y66050D01*
X-7230Y66390D01*
X-7180Y66730D01*
X-7020Y66940D01*
X-6830Y67060D01*
X-6160D01*
G01X-6830D02*
X-7230Y68280D01*
G01X-8890D02*
Y65760D01*
X-8570Y66260D01*
G01Y68280D02*
X-9220D01*
G01X-8310Y75930D02*
X-8480Y76060D01*
X-8660Y76140D01*
X-8880D01*
X-9120Y76010D01*
X-9310Y75800D01*
X-9440Y75550D01*
X-9550Y75130D01*
X-9580Y74750D01*
X-9520Y74380D01*
X-9440Y74120D01*
X-9280Y73870D01*
X-9090Y73700D01*
X-8910Y73620D01*
X-8720D01*
X-8530Y73700D01*
X-8370Y73830D01*
X-8230Y74000D01*
G01X-6760Y73620D02*
X-6710Y74170D01*
X-6620Y74630D01*
X-6520Y75050D01*
X-6380Y75510D01*
X-6170Y76140D01*
X-7240D01*
G01X2830Y116140D02*
G03I-7160J0D01*
G01X-6840Y125040D02*
Y127560D01*
X-6300D01*
X-6080Y127430D01*
X-5920Y127270D01*
X-5790Y127010D01*
X-5680Y126720D01*
X-5650Y126300D01*
X-5680Y125880D01*
X-5790Y125590D01*
X-5920Y125330D01*
X-6080Y125170D01*
X-6300Y125040D01*
X-6840D01*
G01X-4640Y125420D02*
X-4470Y125210D01*
X-4290Y125080D01*
X-4050Y125040D01*
X-3800Y125120D01*
X-3620Y125290D01*
X-3480Y125590D01*
X-3450Y125920D01*
X-3510Y126260D01*
X-3640Y126470D01*
X-3830Y126640D01*
X-4020Y126680D01*
X-4210Y126640D01*
X-4450Y126470D01*
X-4370Y127560D01*
X-3640D01*
G01X-4330Y26190D02*
X-4460Y26020D01*
X-4540Y25840D01*
Y25620D01*
X-4410Y25380D01*
X-4200Y25190D01*
X-3950Y25060D01*
X-3530Y24950D01*
X-3150Y24920D01*
X-2780Y24980D01*
X-2520Y25060D01*
X-2270Y25220D01*
X-2100Y25410D01*
X-2020Y25590D01*
Y25780D01*
X-2100Y25970D01*
X-2230Y26130D01*
X-2400Y26270D01*
G01X-2020Y28120D02*
X-4540D01*
X-2730Y27120D01*
Y28470D01*
G01X62990Y-94090D02*
X0D01*
Y-19290D01*
X62990D01*
Y-94090D01*
G01X-530Y52790D02*
X-660Y52620D01*
X-740Y52440D01*
Y52220D01*
X-610Y51980D01*
X-400Y51790D01*
X-150Y51660D01*
X270Y51550D01*
X650Y51520D01*
X1020Y51580D01*
X1280Y51660D01*
X1530Y51820D01*
X1700Y52010D01*
X1780Y52190D01*
Y52380D01*
X1700Y52570D01*
X1570Y52730D01*
X1400Y52870D01*
G01X-320Y53890D02*
X-570Y54050D01*
X-700Y54230D01*
X-740Y54450D01*
X-660Y54720D01*
X-450Y54900D01*
X-190Y54960D01*
X60Y54930D01*
X270Y54820D01*
X690Y54290D01*
X980Y54050D01*
X1400Y53890D01*
X1780Y53830D01*
Y54960D01*
G01X8740Y-129330D02*
Y-99450D01*
X19020D01*
Y-129330D01*
X8740D01*
G01X13780Y-35430D02*
X23620D01*
Y-21650D01*
X25590Y-19690D01*
X37400D01*
X39370Y-21650D01*
Y-35430D01*
X49210D01*
Y-17720D01*
X45280Y-13780D01*
X17720D01*
X13780Y-17720D01*
Y-35430D01*
G01X33540Y116140D02*
G03I-7160J0D01*
G01X23870Y125040D02*
Y127560D01*
X24410D01*
X24630Y127430D01*
X24790Y127270D01*
X24920Y127010D01*
X25030Y126720D01*
X25060Y126300D01*
X25030Y125880D01*
X24920Y125590D01*
X24790Y125330D01*
X24630Y125170D01*
X24410Y125040D01*
X23870D01*
G01X26990D02*
Y127560D01*
X25990Y125750D01*
X27340D01*
G01X28460Y-129570D02*
Y-99210D01*
X38150D01*
Y-129570D01*
X28460D01*
G01X30610Y19310D02*
Y20440D01*
X30530Y20670D01*
X30380Y20830D01*
X30180Y20880D01*
X29980Y20830D01*
X29830Y20670D01*
X29750Y20440D01*
Y19310D01*
G01X29000Y20880D02*
Y19310D01*
X29240Y19620D01*
G01Y20880D02*
X28760D01*
G01X28190Y19570D02*
X28080Y19410D01*
X27940Y19340D01*
X27780Y19310D01*
X27580Y19360D01*
X27450Y19490D01*
X27410Y19650D01*
X27430Y19810D01*
X27510Y19940D01*
X27900Y20200D01*
X28080Y20380D01*
X28190Y20640D01*
X28230Y20880D01*
X27410D01*
G01X34020Y-52970D02*
X32210D01*
X31840Y-53080D01*
X31580Y-53300D01*
X31500Y-53560D01*
X31580Y-53830D01*
X31840Y-54050D01*
X32210Y-54160D01*
X34020D01*
G01X31500Y-56090D02*
X34020D01*
X32210Y-55090D01*
Y-56440D01*
G01X32980Y59080D02*
Y57950D01*
X33060Y57720D01*
X33210Y57560D01*
X33410Y57510D01*
X33610Y57560D01*
X33760Y57720D01*
X33840Y57950D01*
Y59080D01*
G01X34220Y58820D02*
X34330Y58980D01*
X34470Y59050D01*
X34630Y59080D01*
X34830Y59030D01*
X34960Y58900D01*
X35000Y58740D01*
X34980Y58580D01*
X34900Y58450D01*
X34510Y58190D01*
X34330Y58010D01*
X34220Y57750D01*
X34180Y57510D01*
X35000D01*
G01X47030Y-143860D02*
Y-142050D01*
X46920Y-141680D01*
X46700Y-141420D01*
X46440Y-141340D01*
X46170Y-141420D01*
X45950Y-141680D01*
X45840Y-142050D01*
Y-143860D01*
G01X44740Y-142390D02*
X44560Y-142680D01*
X44400Y-142850D01*
X44180Y-142940D01*
X43990Y-142850D01*
X43860Y-142680D01*
X43750Y-142430D01*
X43730Y-142140D01*
X43750Y-141890D01*
X43860Y-141630D01*
X44020Y-141420D01*
X44210Y-141340D01*
X44420Y-141420D01*
X44610Y-141680D01*
X44720Y-142050D01*
X44740Y-142470D01*
X44690Y-143020D01*
X44610Y-143310D01*
X44480Y-143610D01*
X44290Y-143820D01*
X44100Y-143860D01*
X43910Y-143780D01*
X43780Y-143570D01*
G01X48190Y-129690D02*
Y-98620D01*
X58110D01*
Y-129690D01*
X48190D01*
G01X46720Y89640D02*
X49240D01*
Y88970D01*
X49110Y88760D01*
X48950Y88620D01*
X48610Y88570D01*
X48270Y88620D01*
X48060Y88780D01*
X47940Y88970D01*
Y89640D01*
G01Y88970D02*
X46720Y88570D01*
G01X48820Y87410D02*
X49070Y87250D01*
X49200Y87070D01*
X49240Y86850D01*
X49160Y86580D01*
X48950Y86400D01*
X48690Y86340D01*
X48440Y86370D01*
X48230Y86480D01*
X47810Y87010D01*
X47520Y87250D01*
X47100Y87410D01*
X46720Y87470D01*
Y86340D01*
G01X47220Y85300D02*
X46930Y85130D01*
X46760Y84920D01*
X46720Y84680D01*
X46760Y84460D01*
X46970Y84250D01*
X47220Y84110D01*
X47480Y84090D01*
X47770Y84140D01*
X47980Y84330D01*
X48060Y84520D01*
Y84760D01*
G01Y84520D02*
X48190Y84360D01*
X48400Y84220D01*
X48650Y84170D01*
X48900Y84220D01*
X49110Y84360D01*
X49240Y84600D01*
X49200Y84840D01*
X49030Y85080D01*
G01X64250Y116140D02*
G03I-7160J0D01*
G01X60780Y84460D02*
X58260D01*
Y85130D01*
X58390Y85340D01*
X58550Y85480D01*
X58890Y85530D01*
X59230Y85480D01*
X59440Y85320D01*
X59560Y85130D01*
Y84460D01*
G01Y85130D02*
X60780Y85530D01*
G01X58680Y86690D02*
X58430Y86850D01*
X58300Y87030D01*
X58260Y87250D01*
X58340Y87520D01*
X58550Y87700D01*
X58810Y87760D01*
X59060Y87730D01*
X59270Y87620D01*
X59690Y87090D01*
X59980Y86850D01*
X60400Y86690D01*
X60780Y86630D01*
Y87760D01*
G01X58260Y89390D02*
X58340Y89180D01*
X58550Y89020D01*
X58810Y88910D01*
X59140Y88830D01*
X59520Y88800D01*
X59900Y88830D01*
X60230Y88910D01*
X60490Y89020D01*
X60700Y89180D01*
X60780Y89390D01*
X60700Y89610D01*
X60490Y89770D01*
X60230Y89880D01*
X59900Y89960D01*
X59520Y89990D01*
X59140Y89960D01*
X58810Y89880D01*
X58550Y89770D01*
X58340Y89610D01*
X58260Y89390D01*
G01X54580Y125040D02*
Y127560D01*
X55120D01*
X55340Y127430D01*
X55500Y127270D01*
X55630Y127010D01*
X55740Y126720D01*
X55770Y126300D01*
X55740Y125880D01*
X55630Y125590D01*
X55500Y125330D01*
X55340Y125170D01*
X55120Y125040D01*
X54580D01*
G01X56780Y125540D02*
X56950Y125250D01*
X57160Y125080D01*
X57400Y125040D01*
X57620Y125080D01*
X57830Y125290D01*
X57970Y125540D01*
X57990Y125800D01*
X57940Y126090D01*
X57750Y126300D01*
X57560Y126380D01*
X57320D01*
G01X57560D02*
X57720Y126510D01*
X57860Y126720D01*
X57910Y126970D01*
X57860Y127220D01*
X57720Y127430D01*
X57480Y127560D01*
X57240Y127520D01*
X57000Y127350D01*
G01X67560Y-129920D02*
Y-98390D01*
X77950D01*
Y-129920D01*
X67560D01*
G01X129920Y-94090D02*
X66930D01*
Y-19290D01*
X129920D01*
Y-94090D01*
G01X70780Y84460D02*
X68260D01*
Y85130D01*
X68390Y85340D01*
X68550Y85480D01*
X68890Y85530D01*
X69230Y85480D01*
X69440Y85320D01*
X69560Y85130D01*
Y84460D01*
G01Y85130D02*
X70780Y85530D01*
G01Y87190D02*
X68260D01*
X68760Y86870D01*
G01X70780D02*
Y87520D01*
G01X70490Y88940D02*
X70700Y89130D01*
X70780Y89340D01*
X70700Y89560D01*
X70440Y89740D01*
X70070Y89880D01*
X69690Y89930D01*
X69230D01*
X68850Y89880D01*
X68510Y89740D01*
X68340Y89580D01*
X68260Y89390D01*
X68340Y89180D01*
X68510Y89020D01*
X68760Y88910D01*
X69100Y88860D01*
X69390Y88910D01*
X69690Y89050D01*
X69860Y89210D01*
X69900Y89390D01*
X69810Y89610D01*
X69600Y89770D01*
X69230Y89930D01*
G01X80780Y84460D02*
X78260D01*
Y85130D01*
X78390Y85340D01*
X78550Y85480D01*
X78890Y85530D01*
X79230Y85480D01*
X79440Y85320D01*
X79560Y85130D01*
Y84460D01*
G01Y85130D02*
X80780Y85530D01*
G01Y87190D02*
X78260D01*
X78760Y86870D01*
G01X80780D02*
Y87520D01*
G01Y89390D02*
X80740Y89580D01*
X80610Y89800D01*
X80400Y89930D01*
X80110Y89990D01*
X79810Y89930D01*
X79560Y89770D01*
X79440Y89530D01*
Y89260D01*
X79350Y89100D01*
X79140Y88970D01*
X78850Y88910D01*
X78550Y88990D01*
X78340Y89180D01*
X78260Y89390D01*
X78340Y89610D01*
X78550Y89800D01*
X78850Y89880D01*
X79140Y89820D01*
X79350Y89690D01*
X79440Y89530D01*
Y89260D01*
X79560Y89020D01*
X79810Y88860D01*
X80110Y88800D01*
X80400Y88860D01*
X80610Y88990D01*
X80740Y89210D01*
X80780Y89390D01*
G01X80710Y-35430D02*
X90550D01*
Y-21650D01*
X92520Y-19690D01*
X104330D01*
X106300Y-21650D01*
Y-35430D01*
X116140D01*
Y-17720D01*
X112200Y-13780D01*
X84650D01*
X80710Y-17720D01*
Y-35430D01*
G01X82800Y-3070D02*
Y68580D01*
X179250D01*
Y-3070D01*
X82800D01*
G01X94960Y116140D02*
G03I-7160J0D01*
G01X87640Y-129800D02*
Y-98150D01*
X97440D01*
Y-129800D01*
X87640D01*
G01X90780Y84460D02*
X88260D01*
Y85130D01*
X88390Y85340D01*
X88550Y85480D01*
X88890Y85530D01*
X89230Y85480D01*
X89440Y85320D01*
X89560Y85130D01*
Y84460D01*
G01Y85130D02*
X90780Y85530D01*
G01Y87190D02*
X88260D01*
X88760Y86870D01*
G01X90780D02*
Y87520D01*
G01Y89340D02*
X90230Y89390D01*
X89770Y89480D01*
X89350Y89580D01*
X88890Y89720D01*
X88260Y89930D01*
Y88860D01*
G01X85290Y125040D02*
Y127560D01*
X85830D01*
X86050Y127430D01*
X86210Y127270D01*
X86340Y127010D01*
X86450Y126720D01*
X86480Y126300D01*
X86450Y125880D01*
X86340Y125590D01*
X86210Y125330D01*
X86050Y125170D01*
X85830Y125040D01*
X85290D01*
G01X87580Y127140D02*
X87740Y127390D01*
X87920Y127520D01*
X88140Y127560D01*
X88410Y127480D01*
X88590Y127270D01*
X88650Y127010D01*
X88620Y126760D01*
X88510Y126550D01*
X87980Y126130D01*
X87740Y125840D01*
X87580Y125420D01*
X87520Y125040D01*
X88650D01*
G01X100950Y-52970D02*
X99140D01*
X98770Y-53080D01*
X98510Y-53300D01*
X98430Y-53560D01*
X98510Y-53830D01*
X98770Y-54050D01*
X99140Y-54160D01*
X100950D01*
G01X98930Y-55170D02*
X98640Y-55340D01*
X98470Y-55550D01*
X98430Y-55790D01*
X98470Y-56010D01*
X98680Y-56220D01*
X98930Y-56360D01*
X99190Y-56380D01*
X99480Y-56330D01*
X99690Y-56140D01*
X99770Y-55950D01*
Y-55710D01*
G01Y-55950D02*
X99900Y-56110D01*
X100110Y-56250D01*
X100360Y-56300D01*
X100610Y-56250D01*
X100820Y-56110D01*
X100950Y-55870D01*
X100910Y-55630D01*
X100740Y-55390D01*
G01X106090Y-143860D02*
Y-142050D01*
X105980Y-141680D01*
X105760Y-141420D01*
X105500Y-141340D01*
X105230Y-141420D01*
X105010Y-141680D01*
X104900Y-142050D01*
Y-143860D01*
G01X103890Y-141720D02*
X103720Y-141510D01*
X103540Y-141380D01*
X103300Y-141340D01*
X103050Y-141420D01*
X102870Y-141590D01*
X102730Y-141890D01*
X102700Y-142220D01*
X102760Y-142560D01*
X102890Y-142770D01*
X103080Y-142940D01*
X103270Y-142980D01*
X103460Y-142940D01*
X103700Y-142770D01*
X103620Y-143860D01*
X102890D01*
G01X107500Y-129500D02*
Y-104500D01*
X132000Y-80000D01*
X141500Y-89500D01*
Y-89900D01*
X117400Y-114000D01*
Y-129200D01*
X117100Y-129500D01*
X107500D01*
G01X142920Y76300D02*
X104340D01*
Y134570D01*
X142920D01*
Y76300D01*
G01X117140Y33860D02*
Y32050D01*
X117250Y31680D01*
X117470Y31420D01*
X117730Y31340D01*
X118000Y31420D01*
X118220Y31680D01*
X118330Y32050D01*
Y33860D01*
G01X119930Y31340D02*
Y33860D01*
X119610Y33360D01*
G01Y31340D02*
X120260D01*
G01X121700Y99810D02*
X123490D01*
X123870Y99920D01*
X124120Y100130D01*
X124200Y100400D01*
X124120Y100670D01*
X123870Y100880D01*
X123490Y100990D01*
X121700D01*
G01X122120Y102090D02*
X121870Y102250D01*
X121740Y102440D01*
X121700Y102650D01*
X121780Y102920D01*
X121990Y103110D01*
X122240Y103160D01*
X122490Y103130D01*
X122700Y103030D01*
X123120Y102490D01*
X123410Y102250D01*
X123830Y102090D01*
X124200Y102040D01*
Y103160D01*
G01X123700Y104210D02*
X123990Y104370D01*
X124160Y104590D01*
X124200Y104830D01*
X124160Y105040D01*
X123950Y105250D01*
X123700Y105390D01*
X123450Y105410D01*
X123160Y105360D01*
X122950Y105170D01*
X122870Y104990D01*
Y104750D01*
G01Y104990D02*
X122740Y105150D01*
X122530Y105280D01*
X122280Y105330D01*
X122030Y105280D01*
X121830Y105150D01*
X121700Y104910D01*
X121740Y104670D01*
X121910Y104430D01*
G01X145460Y-143860D02*
Y-142050D01*
X145350Y-141680D01*
X145130Y-141420D01*
X144870Y-141340D01*
X144600Y-141420D01*
X144380Y-141680D01*
X144270Y-142050D01*
Y-143860D01*
G01X142720Y-141340D02*
X142670Y-141890D01*
X142580Y-142350D01*
X142480Y-142770D01*
X142340Y-143230D01*
X142130Y-143860D01*
X143200D01*
G01X177560Y92130D02*
G03I-10237J-4D01*
G01X159680Y101930D02*
Y104450D01*
X160350D01*
X160560Y104320D01*
X160700Y104160D01*
X160750Y103820D01*
X160700Y103480D01*
X160540Y103270D01*
X160350Y103150D01*
X159680D01*
G01X160350D02*
X160750Y101930D01*
G01X162950D02*
X161880D01*
Y104450D01*
X162950D01*
G01X162520Y103230D02*
X161880D01*
G01X164110Y101930D02*
Y104450D01*
X165120D01*
G01X164750Y103230D02*
X164110D01*
G01X173940Y-85830D02*
G03I-6617J3D01*
G01X166100Y-86140D02*
Y-83620D01*
X166770D01*
X166980Y-83750D01*
X167120Y-83910D01*
X167170Y-84250D01*
X167120Y-84590D01*
X166960Y-84800D01*
X166770Y-84920D01*
X166100D01*
G01X166770D02*
X167170Y-86140D01*
G01X169370D02*
X168300D01*
Y-83620D01*
X169370D01*
G01X168940Y-84840D02*
X168300D01*
G01X170530Y-86140D02*
Y-83620D01*
X171540D01*
G01X171170Y-84840D02*
X170530D01*
G54D16*
G01X47500Y26000D02*
G02I-786J1D01*
M02*
