G04 ================== begin FILE IDENTIFICATION RECORD ==================*
G04 Layout Name:  E:/san4chV2/sanT4ch_finish/Board/sanT_4ch.brd*
G04 Film Name:    BOTTOM*
G04 File Format:  Gerber RS274X*
G04 File Origin:  Cadence Allegro 16.5-P002*
G04 Origin Date:  Fri Jul 07 17:44:03 2017*
G04 *
G04 Layer:  VIA CLASS/BOTTOM*
G04 Layer:  PIN/BOTTOM*
G04 Layer:  ETCH/BOTTOM*
G04 Layer:  BOARD GEOMETRY/OUTLINE*
G04 *
G04 Offset:    (0.0 0.0)*
G04 Mirror:    No*
G04 Mode:      Positive*
G04 Rotation:  0*
G04 FullContactRelief:  No*
G04 UndefLineWidth:     0.0*
G04 ================== end FILE IDENTIFICATION RECORD ====================*
%FSLAX35Y35*MOIN*%
%IR0*IPPOS*OFA0.00000B0.00000*MIA0B0*SFA1.00000B1.00000*%
%ADD11C,.1315*%
%ADD13C,.2047*%
%ADD16C,.0236*%
%ADD14O,.0433X.0591*%
%ADD10C,.0591*%
%ADD17C,.0197*%
%ADD19C,.0846*%
%ADD18C,.0669*%
%ADD12C,.0984*%
%ADD21R,.0591X.0591*%
%ADD20C,.0787*%
%ADD15R,.0669X.0669*%
%ADD22R,.0787X.0787*%
%ADD23C,.0051*%
%ADD24C,.02*%
%ADD25C,.012*%
%ADD26C,.04*%
%ADD27C,.08*%
%ADD28C,.0118*%
%ADD29C,.0394*%
%ADD34C,.1072*%
%ADD30C,.1388*%
%ADD31C,.0774*%
%ADD33C,.0994*%
%ADD32R,.0696X.0696*%
G75*
%LPD*%
G75*
G36*
G01X-184000Y-115600D02*
X-184600Y-115000D01*
Y-71510D01*
G02X-183970Y-71190I399J-5D01*
G03X-178780Y-71530I2872J4059D01*
G02X-178200Y-71890I182J-353D01*
G03X-173180Y-78720I6939J-160D01*
G02X-173020Y-79400I-107J-384D01*
G03X-165880Y-77360I5698J-6430D01*
G02X-166110Y-76700I68J394D01*
G03X-175550Y-66600I-5157J4642D01*
G02X-176190Y-66340I-244J317D01*
G03X-183970Y-63070I-4909J-789D01*
G02X-184600Y-62750I-231J325D01*
G01Y-51740D01*
G02X-183880Y-51500I400J-1D01*
G03Y-47320I2780J2090D01*
G02X-184600Y-47080I-320J241D01*
G01Y-32530D01*
G02X-183970Y-32210I399J-5D01*
G03X-178780Y-32550I2872J4059D01*
G02X-178200Y-32910I182J-353D01*
G03X-175620Y-38470I6939J-159D01*
G02Y-39090I-252J-310D01*
G03X-166900I4360J-5400D01*
G02Y-38470I252J310D01*
G03X-175550Y-27620I-4359J5398D01*
G02X-176190Y-27360I-244J317D01*
G03X-183970Y-24090I-4909J-789D01*
G02X-184600Y-23770I-231J325D01*
G01Y-12760D01*
G02X-183880Y-12520I400J-1D01*
G03Y-8340I2780J2090D01*
G02X-184600Y-8100I-320J241D01*
G01Y6450D01*
G02X-183970Y6770I399J-5D01*
G03X-178780Y6430I2872J4059D01*
G02X-178200Y6070I182J-353D01*
G03X-175620Y510I6939J-159D01*
G02Y-110I-252J-310D01*
G03X-166900I4360J-5400D01*
G02Y510I252J310D01*
G03X-175550Y11360I-4359J5398D01*
G02X-176190Y11620I-244J317D01*
G03X-183970Y14890I-4909J-789D01*
G02X-184600Y15210I-231J325D01*
G01Y26220D01*
G02X-183880Y26460I400J-1D01*
G03Y30640I2780J2090D01*
G02X-184600Y30880I-320J241D01*
G01Y45420D01*
G02X-183970Y45740I399J-5D01*
G03X-178780Y45400I2872J4059D01*
G02X-178200Y45040I182J-353D01*
G03X-175630Y39490I6938J-157D01*
G02Y38860I-248J-315D01*
G03X-166890I4370J-5390D01*
G02Y39490I248J315D01*
G03X-175550Y50330I-4369J5389D01*
G02X-176190Y50590I-244J317D01*
G03X-183970Y53860I-4909J-789D01*
G02X-184600Y54180I-231J325D01*
G01Y65190D01*
G02X-183880Y65430I400J-1D01*
G03Y69610I2780J2090D01*
G02X-184600Y69850I-320J241D01*
G01Y108810D01*
G02X-183970Y109130I399J-5D01*
G03X-178780Y108790I2872J4059D01*
G02X-178200Y108430I182J-353D01*
G03X-174950Y102390I6939J-160D01*
G02X-174920Y101740I-215J-336D01*
G03X-165010Y104160I7597J-9610D01*
G02X-165280Y104750I78J392D01*
G03X-175550Y113720I-5982J3516D01*
G02X-176190Y113980I-244J317D01*
G03X-183970Y117250I-4909J-789D01*
G02X-184600Y117570I-231J325D01*
G01Y128580D01*
G02X-183880Y128820I400J-1D01*
G03X-184220Y132450I2780J2091D01*
G01X-184280Y132340D01*
X-184600D01*
Y132900D01*
X-178900Y138600D01*
X-178210D01*
G02X-177830Y138070I3J-399D01*
G03X-164690I6570J-2240D01*
G02X-164310Y138600I377J131D01*
G01X-136460D01*
Y127940D01*
X-134110D01*
Y121150D01*
X-127910Y114950D01*
Y114190D01*
X-127920Y114150D01*
G03Y112050I3020J-1050D01*
G01X-127910Y112010D01*
Y103090D01*
X-127920Y103050D01*
G03Y100950I3020J-1050D01*
G01X-127910Y100910D01*
Y91690D01*
X-127920Y91650D01*
G03Y89550I3020J-1050D01*
G01X-127910Y89510D01*
Y79930D01*
G03Y77270I2910J-1330D01*
G01Y67690D01*
X-127920Y67650D01*
G03X-121880I3020J-1050D01*
G01X-121890Y67690D01*
Y77850D01*
X-121880Y77870D01*
G03Y79330I-3120J730D01*
G01X-121890Y79350D01*
Y89510D01*
X-121880Y89550D01*
G03Y91650I-3020J1050D01*
G01X-121890Y91690D01*
Y100910D01*
X-121880Y100950D01*
G03Y103050I-3020J1050D01*
G01X-121890Y103090D01*
Y107830D01*
G02X-121210Y108120I400J4D01*
G01X-98710Y85620D01*
Y78850D01*
G03X-93700Y74880I2608J-1854D01*
G02X-93420Y74900I150J-130D01*
G03X-89620Y74580I2116J2401D01*
G02X-89010Y74240I209J-342D01*
G01Y67980D01*
X-91140Y65860D01*
X-91200Y65840D01*
G03X-91290Y59570I598J-3144D01*
G02X-91090Y58900I-83J-390D01*
G01X-108610Y41380D01*
Y5010D01*
X-109900D01*
Y50100D01*
X-151600D01*
Y-84840D01*
G02X-152060Y-85230I-400J5D01*
G03X-155110Y-90250I-439J-3170D01*
G01Y-96930D01*
X-160570D01*
Y-104670D01*
X-154850D01*
Y-106540D01*
X-154600Y-106790D01*
G02X-154740Y-107130I-140J-141D01*
G01X-160570D01*
Y-114870D01*
X-153080D01*
G02X-152970Y-115230I0J-197D01*
G03X-153440Y-115600I1736J-2689D01*
G01X-184000D01*
G37*
G36*
G01X-83110Y66880D02*
G02X-83790Y67170I-280J286D01*
G01Y94350D01*
G03X-89010I-2610J1850D01*
G01Y91870D01*
G02X-89690Y91580I-400J-4D01*
G01X-108590Y110480D01*
Y127660D01*
X-108490Y127760D01*
Y128620D01*
G03X-108280Y137860I-2610J4682D01*
G02X-108070Y138600I208J341D01*
G01X-37760D01*
Y128740D01*
X-27040D01*
Y130210D01*
G02X-26350Y130480I399J-3D01*
G03X-25010Y129420I3952J3619D01*
G01Y118860D01*
G02X-25750Y118660I-398J4D01*
G03Y113620I-4290J-2520D01*
G02X-25010Y113420I342J-204D01*
G01Y71480D01*
X-26580Y69910D01*
X-27300D01*
X-27320Y70090D01*
G03X-27890Y71550I-3176J-399D01*
G01Y82680D01*
X-32820Y87610D01*
X-62380D01*
X-83110Y66880D01*
G37*
G36*
G01X-98140Y-3000D02*
G02X-98430Y-2320I-4J400D01*
G01X-98390Y-2280D01*
Y37620D01*
X-84590Y51420D01*
G02X-83910Y51130I280J-286D01*
G01Y31450D01*
G03X-78690I2610J-1850D01*
G01Y51720D01*
X-74690Y55720D01*
G02X-74010Y55430I280J-286D01*
G01Y25450D01*
G03X-68790I2610J-1850D01*
G01Y56220D01*
X-66290Y58720D01*
G02X-65610Y58430I280J-286D01*
G01Y39250D01*
G03X-60390I2610J-1850D01*
G01Y59050D01*
G03X-60140Y59470I-2616J1841D01*
G02X-59590Y59640I357J-179D01*
G03X-56200Y59840I1535J2809D01*
G01X19700D01*
G03Y65060I1850J2610D01*
G01X6110D01*
G02X5760Y65670I-7J401D01*
G03X6050Y68380I-2731J1663D01*
G01X6040Y68420D01*
Y89080D01*
X6050Y89120D01*
G03X10I-3020J1050D01*
G01X20Y89080D01*
Y68420D01*
X10Y68380D01*
G03X300Y65670I3021J-1047D01*
G02X-50Y65060I-343J-209D01*
G01X-23080D01*
G02X-23370Y65740I-4J400D01*
G01X-19790Y69320D01*
Y75330D01*
G02X-19040Y75520I399J0D01*
G03X-13060Y76400I2837J1480D01*
G01X-13040Y76460D01*
X-8490Y81020D01*
Y104480D01*
X-13190Y109180D01*
Y112660D01*
X-5850D01*
Y119620D01*
X-13190D01*
Y124020D01*
X-13020Y124190D01*
X-8620D01*
X-3870Y128940D01*
X-3750Y128910D01*
G03X1360Y137920I1351J5188D01*
G02X1640Y138600I285J280D01*
G01X160000D01*
Y101950D01*
G03X156710Y86010I7321J-9821D01*
G01X96600Y25900D01*
Y6620D01*
X95660D01*
Y-3000D01*
X94890D01*
Y5130D01*
X87150D01*
Y-3000D01*
X-7190D01*
Y8300D01*
G03X-15210I-4010J0D01*
G01Y-3000D01*
X-98140D01*
G37*
%LPC*%
G75*
G36*
G01X-95750Y118650D02*
G02Y113630I4290J-2510D01*
G03X-96490Y113430I-342J-204D01*
G01Y111170D01*
X-106430D01*
Y121110D01*
X-96490D01*
Y118850D01*
G03X-95750Y118650I398J4D01*
G37*
G36*
G01X100940Y78420D02*
X103190D01*
X103510Y78740D01*
Y85200D01*
X114230D01*
Y83730D01*
G03X114920Y83460I399J3D01*
G02X116260Y84520I3952J-3619D01*
G01Y85550D01*
X111520Y90290D01*
X13850D01*
G02Y95510I-1850J2610D01*
G01X113680D01*
X121480Y87710D01*
Y84520D01*
G02X114920Y76220I-2607J-4682D01*
G03X114230Y75950I-291J-273D01*
G01Y74480D01*
X107770D01*
X105690Y72400D01*
X98440D01*
X98330Y72510D01*
X47670D01*
X47630Y72500D01*
G02X45530I-1050J3020D01*
G01X45490Y72510D01*
X17610D01*
X17570Y72500D01*
G02Y78540I-1050J3020D01*
G01X17610Y78530D01*
X45490D01*
X45530Y78540D01*
G02X47630I1050J-3020D01*
G01X47670Y78530D01*
X100830D01*
X100940Y78420D01*
G37*
G36*
G01X27100Y34560D02*
X27040Y34540D01*
X18480Y25990D01*
X-41350D01*
G02X-45570Y30750I-1849J2611D01*
G02X-41450Y35610I2278J2245D01*
G01X14920D01*
X17380Y38080D01*
G03X17070Y38760I-281J282D01*
G02X15000Y39340I-222J3191D01*
G01X-41950D01*
G02Y44560I-1850J2610D01*
G01X15000D01*
G02X19920Y42850I1850J-2610D01*
G03X20450Y42590I383J111D01*
G02X24570Y40790I1148J-2988D01*
G03X25110Y40580I370J153D01*
G02X27100Y34560I1396J-2877D01*
G37*
G54D34*
X138870Y79840D03*
G54D30*
X-171260Y72440D03*
G54D31*
X-101100Y133300D03*
X7600Y134100D03*
X128870Y79840D03*
G54D33*
X-60750Y116140D03*
X670D03*
X31380D03*
X62090D03*
X92800D03*
G54D32*
X-70750D03*
X-40040D03*
X21380D03*
X52090D03*
X82800D03*
%LPD*%
G75*
G54D10*
X-181100Y-67130D03*
Y-49410D03*
Y-28150D03*
Y-10430D03*
Y10830D03*
Y28550D03*
Y49800D03*
Y67520D03*
Y113190D03*
Y130910D03*
X-91460Y116140D03*
X-60750D03*
X-30040D03*
X670D03*
X31380D03*
X62090D03*
X92800D03*
G54D20*
G01X-114170Y-111180D02*
X-125980Y-99370D01*
G01X-102360Y-81570D02*
X-94490Y-89450D01*
G01X-74800Y-85040D02*
X-78740Y-81100D01*
G01X-55120Y-85040D02*
X-59060Y-81100D01*
G01X-15750Y-85040D02*
X-11810Y-81100D01*
G01X3940Y-85040D02*
X7870Y-81100D01*
G01X43310Y-91180D02*
X53390Y-81100D01*
X55120D01*
G01X62990Y-92910D02*
X74800Y-81100D01*
G01X102360Y-100790D02*
X122050Y-81100D01*
X-114170Y-125590D03*
X-94490D03*
X-55120D03*
X-35440D03*
X3940D03*
X23620D03*
X62990D03*
X82670D03*
X122040D03*
G54D11*
X-167320Y-85830D03*
X167320D03*
G54D21*
X-101460Y116140D03*
X-70750D03*
X-40040D03*
X-9330D03*
X21380D03*
X52090D03*
X82800D03*
G54D12*
X-171260Y-72050D03*
Y-44490D03*
Y-33070D03*
Y-5510D03*
Y5910D03*
Y33470D03*
Y44880D03*
Y72440D03*
Y108270D03*
Y135830D03*
G54D22*
X-74800Y-125590D03*
X-15750D03*
X43310D03*
X102360D03*
X141730D03*
G54D13*
X-167320Y92130D03*
X167320D03*
G54D23*
G01X-181100Y-53090D02*
Y-49410D01*
G01D02*
Y-45730D01*
G01Y-49410D02*
X-177420D01*
G01X-181100Y-14110D02*
Y-10430D01*
G01D02*
Y-6750D01*
G01Y-10430D02*
X-177420D01*
G01X-181100Y24870D02*
Y28550D01*
G01D02*
Y32230D01*
G01Y28550D02*
X-177420D01*
G01X-181100Y63840D02*
Y67520D01*
G01D02*
Y71200D01*
G01Y67520D02*
X-177420D01*
G01X-181100Y127230D02*
Y130910D01*
G01D02*
Y134590D01*
G01Y130910D02*
X-177420D01*
G01X-105170Y133300D02*
X-101100D01*
G01Y129230D02*
Y133300D01*
G01D02*
Y137370D01*
G01Y133300D02*
X-97030D01*
G01X-74430Y116140D02*
X-70750D01*
G01Y112460D02*
Y116140D01*
G01D02*
Y119820D01*
G01Y116140D02*
X-67070D01*
G01X-43720D02*
X-40040D01*
G01Y112460D02*
Y116140D01*
G01D02*
Y119820D01*
G01Y116140D02*
X-36360D01*
G01X-9330D02*
Y119820D01*
G01Y116140D02*
X-5650D01*
G01X3530Y134100D02*
X7600D01*
G01Y130030D02*
Y134100D01*
G01D02*
Y138170D01*
G01Y134100D02*
X11670D01*
G01X17700Y116140D02*
X21380D01*
G01Y112460D02*
Y116140D01*
G01D02*
Y119820D01*
G01Y116140D02*
X25060D01*
G01X48410D02*
X52090D01*
G01Y112460D02*
Y116140D01*
G01D02*
Y119820D01*
G01Y116140D02*
X55770D01*
G01X79120D02*
X82800D01*
G01Y112460D02*
Y116140D01*
G01D02*
Y119820D01*
G01Y116140D02*
X86480D01*
G01X86950Y1260D02*
X91020D01*
G01D02*
X95090D01*
G01X128870Y75770D02*
Y79840D01*
G01D02*
Y83910D01*
G01X124800Y79840D02*
X128870D01*
G01D02*
X132940D01*
G54D14*
X-160230Y-135070D03*
Y-121490D03*
X-132050Y-135070D03*
Y-121490D03*
G54D24*
G01X-136540Y-123460D02*
X-134500Y-125500D01*
Y-129700D01*
X-136500Y-131700D01*
X-157610D01*
X-158710Y-130600D01*
X-158800D01*
X-160900Y-128500D01*
X-166700D01*
X-168700Y-126500D01*
Y-113000D01*
G01D02*
X-166700Y-111000D01*
G01D02*
X-156700D01*
G01D02*
Y-100800D01*
G01D02*
Y-100600D01*
G01X-125990Y-33070D02*
X-139400Y-46480D01*
Y-115200D01*
X-142140Y-117940D01*
X-151260D01*
G01X-131100Y133300D02*
Y122400D01*
X-124900Y116200D01*
Y113100D01*
G01Y78600D02*
Y66600D01*
G01Y90600D02*
Y78600D01*
G01D02*
X-125000D01*
G01X-124900Y102000D02*
Y90600D01*
G01Y113100D02*
Y102000D01*
G01X3030Y90170D02*
Y67330D01*
G01X16520Y75520D02*
X46580D01*
G01X108870Y79840D02*
X104440Y75410D01*
X99690D01*
X99580Y75520D01*
X46580D01*
G54D15*
X-156700Y-111000D03*
Y-100800D03*
X-131100Y133300D03*
X-32400Y134100D03*
X91020Y1260D03*
X101020D03*
X108870Y79840D03*
X151020Y1260D03*
X171020D03*
G54D25*
G01X-181100Y-49410D02*
X-168510Y-62000D01*
G01D02*
X-160700D01*
G01X-152500Y-88400D02*
Y-96540D01*
X-152240Y-96800D01*
Y-105460D01*
X-146700Y-111000D01*
G01X-143900Y2400D02*
X-107200D01*
X-106000Y3600D01*
Y40300D01*
X-61300Y85000D01*
X-33900D01*
X-30500Y81600D01*
Y69700D01*
G01X-64900Y74800D02*
X-101000Y38700D01*
Y-1200D01*
X-102200Y-2400D01*
X-139000D01*
G01X-96100Y77000D02*
Y86700D01*
X-121100Y111700D01*
Y133300D01*
G01X-111100D02*
Y128840D01*
X-111200Y128740D01*
Y109400D01*
X-91300Y89500D01*
Y77300D01*
G01X-86400Y96200D02*
Y66900D01*
X-90600Y62700D01*
G01X-81300Y29600D02*
Y52800D01*
X-56720Y77380D01*
X-54120D01*
G01X-80000Y116000D02*
X-81200Y114800D01*
Y78300D01*
G01X-70750Y116140D02*
X-70890Y116000D01*
X-80000D01*
G01X-71400Y23600D02*
Y57300D01*
X-60000Y68700D01*
G01X-63000Y60900D02*
Y37400D01*
G01X-58100Y38600D02*
X-53600D01*
X-52400Y37400D01*
Y22400D01*
G01X-58050Y62450D02*
X21550D01*
G01X-39400Y22400D02*
X-52400D01*
G01X-43200Y28600D02*
X17400D01*
X26500Y37700D01*
G01X21600Y39600D02*
Y38600D01*
X16000Y33000D01*
X-43300D01*
G01X-43800Y41950D02*
X16850D01*
G01X-45300Y110880D02*
Y100800D01*
X-29500Y85000D01*
G01X-40040Y116140D02*
X-45300Y110880D01*
G01X-39400Y22400D02*
Y18000D01*
X-38200Y16800D01*
X3300D01*
G01X-37700Y67300D02*
X-25500D01*
X-22400Y70400D01*
Y134100D01*
G01X-16200Y77000D02*
X-11100Y82100D01*
Y103400D01*
X-15800Y108100D01*
Y125100D01*
X-14100Y126800D01*
X-9700D01*
X-2400Y134100D01*
G01X-14000Y87300D02*
Y97300D01*
X-19200Y102500D01*
Y127300D01*
X-12400Y134100D01*
G01X-800Y74800D02*
Y83800D01*
X-2000Y85000D01*
X-7600D01*
G01X-9330Y109530D02*
X-7600Y107800D01*
Y85000D01*
G01X-9330Y116140D02*
Y109530D01*
G01X700Y56500D02*
X67100D01*
X74700Y48900D01*
G01X12000Y92900D02*
X112600D01*
X118870Y86630D01*
Y79840D01*
G01X74700Y48900D02*
X91020Y32580D01*
G01D02*
Y1260D01*
G54D16*
X-160700Y-62000D03*
X-151260Y-117940D03*
X-152500Y-88400D03*
X-143900Y2400D03*
X-136540Y-123460D03*
X-139000Y-2400D03*
X-124900Y66600D03*
X-125000Y78600D03*
X-124900Y90600D03*
Y102000D03*
Y113100D03*
X-96100Y77000D03*
X-90600Y62700D03*
X-91300Y77300D03*
X-86400Y96200D03*
X-81300Y29600D03*
X-81200Y78300D03*
X-71400Y23600D03*
X-63000Y37400D03*
Y60900D03*
X-64900Y74800D03*
X-58100Y38600D03*
X-58050Y62450D03*
X-60000Y68700D03*
X-52400Y22400D03*
X-54120Y77380D03*
X-43200Y28600D03*
X-43300Y33000D03*
X-43800Y41950D03*
X-39400Y22400D03*
X-37700Y67300D03*
X-30500Y69700D03*
X-29500Y85000D03*
X-16200Y77000D03*
X-11200Y8300D03*
X-14000Y87300D03*
X-7600Y85000D03*
X-800Y74800D03*
X3300Y16800D03*
X700Y56500D03*
X3030Y67330D03*
Y90170D03*
X12000Y92900D03*
X16850Y41950D03*
X16520Y75520D03*
X21600Y39600D03*
X21550Y62450D03*
X26500Y37700D03*
X46580Y75520D03*
X74700Y48900D03*
G54D26*
G01X-11200Y8300D02*
Y-10080D01*
G01X122040Y-125590D02*
Y-114810D01*
X151180Y-85670D01*
G01X141730Y-125590D02*
X149060D01*
X180160Y-94490D01*
G01Y-76850D02*
X171340Y-68030D01*
G01X151020Y1260D02*
X150840D01*
G01X171020D02*
X170940D01*
G54D17*
G01X-125980Y-33070D02*
X-125990D01*
X-154010Y-126690D03*
X-138270D03*
G54D27*
G01X-114170Y-125590D02*
Y-111180D01*
G01X-125980Y-99370D02*
Y-89850D01*
X-125990Y-89840D01*
Y-81100D01*
G01X-102360Y-25200D02*
Y-81570D01*
G01X-94490Y-89450D02*
Y-125590D01*
G01X-74800D02*
Y-85040D01*
G01X-55120Y-125590D02*
Y-85040D01*
G01X-35440Y-125590D02*
Y-25210D01*
X-35430Y-25200D01*
G01X-15750Y-125590D02*
Y-85040D01*
G01X3940Y-125590D02*
Y-85040D01*
G01X31500Y-25200D02*
Y-33940D01*
X31200Y-34240D01*
Y-75600D01*
X23620Y-83180D01*
Y-125590D01*
G01X43310D02*
Y-91180D01*
G01X62990Y-125590D02*
Y-92910D01*
G01X98430Y-25200D02*
Y-77310D01*
X82670Y-93070D01*
Y-125590D01*
G01X102360D02*
Y-100790D01*
G54D18*
X-146700Y-111000D03*
Y-100800D03*
X-121100Y133300D03*
X-111100D03*
X-101100D03*
X-22400Y134100D03*
X-12400D03*
X-2400D03*
X7600D03*
X118870Y79840D03*
X128870D03*
X138870D03*
G54D28*
G01X7560Y-10080D02*
X7870Y-9760D01*
G54D19*
X-125990Y-81100D03*
Y-33070D03*
X-102360Y-25200D03*
X-78740Y-81100D03*
Y-33070D03*
X-59060Y-81100D03*
Y-33070D03*
X-35430Y-25200D03*
X-11810Y-81100D03*
Y-33070D03*
X7870Y-81100D03*
Y-33070D03*
X31500Y-25200D03*
X55120Y-81100D03*
Y-33070D03*
X74800Y-81100D03*
Y-33070D03*
X98430Y-25200D03*
X122050Y-81100D03*
Y-33070D03*
G54D29*
G01X-125990D02*
X-125980D01*
Y-26300D01*
X-128500Y-23780D01*
Y-12600D01*
X-125980Y-10080D01*
X-57950D01*
G01X-59060Y-33070D02*
Y-11180D01*
X-57950Y-10080D01*
G01D02*
X-11200D01*
G01D02*
X7560D01*
G01X7870Y-33070D02*
Y-10390D01*
X7560Y-10080D01*
G01D02*
X75590D01*
G01X74800Y-33070D02*
Y-10870D01*
X75590Y-10080D01*
G01D02*
X97090D01*
X101020Y-6140D01*
Y1260D01*
G01X151180Y-85670D02*
Y-4760D01*
X151020Y-4610D01*
Y1260D01*
G01X180160Y-94490D02*
Y-76850D01*
G01X171340Y-68030D02*
Y-4920D01*
X171020Y-4610D01*
Y1260D01*
M02*
