G04 ================== begin FILE IDENTIFICATION RECORD ==================*
G04 Layout Name:  E:/san4chV2/sanT4ch_finish/Board/sanT_4ch.brd*
G04 Film Name:    BOTTOM*
G04 File Format:  Gerber RS274X*
G04 File Origin:  Cadence Allegro 16.5-P002*
G04 Origin Date:  Fri Jul 07 03:44:50 2017*
G04 *
G04 Layer:  VIA CLASS/BOTTOM*
G04 Layer:  PIN/BOTTOM*
G04 Layer:  ETCH/BOTTOM*
G04 Layer:  BOARD GEOMETRY/OUTLINE*
G04 *
G04 Offset:    (0.0 0.0)*
G04 Mirror:    No*
G04 Mode:      Positive*
G04 Rotation:  0*
G04 FullContactRelief:  No*
G04 UndefLineWidth:     0.0*
G04 ================== end FILE IDENTIFICATION RECORD ====================*
%FSLAX35Y35*MOIN*%
%IR0*IPPOS*OFA0.00000B0.00000*MIA0B0*SFA1.00000B1.00000*%
%ADD11C,.1315*%
%ADD13C,.2047*%
%ADD17C,.0236*%
%ADD14O,.0433X.0591*%
%ADD10C,.0591*%
%ADD16C,.0197*%
%ADD19C,.0846*%
%ADD18C,.0669*%
%ADD12C,.0984*%
%ADD21R,.0591X.0591*%
%ADD20C,.0787*%
%ADD15R,.0669X.0669*%
%ADD22R,.0787X.0787*%
%ADD23C,.0051*%
%ADD24C,.02*%
%ADD25C,.012*%
%ADD26C,.04*%
%ADD27C,.08*%
%ADD28C,.0118*%
%ADD29C,.0394*%
%ADD30C,.142*%
%ADD32C,.2152*%
%ADD31C,.109*%
%ADD34C,.0774*%
%ADD35C,.0696*%
%ADD36R,.0774X.0774*%
%ADD33R,.0696X.0696*%
G75*
%LPD*%
G75*
G36*
G01X-184100Y-114600D02*
Y-70010D01*
G02X-183430Y-69710I401J3D01*
G03Y-64550I2330J2580D01*
G02X-184100Y-64250I-269J297D01*
G01Y-52290D01*
G02X-183430Y-51990I401J3D01*
G03Y-46830I2330J2580D01*
G02X-184100Y-46530I-269J297D01*
G01Y-31030D01*
G02X-183430Y-30730I401J3D01*
G03Y-25570I2330J2580D01*
G02X-184100Y-25270I-269J297D01*
G01Y-13310D01*
G02X-183430Y-13010I401J3D01*
G03Y-7850I2330J2580D01*
G02X-184100Y-7550I-269J297D01*
G01Y7950D01*
G02X-183430Y8250I401J3D01*
G03Y13410I2330J2580D01*
G02X-184100Y13710I-269J297D01*
G01Y25670D01*
G02X-183430Y25970I401J3D01*
G03Y31130I2330J2580D01*
G02X-184100Y31430I-269J297D01*
G01Y46920D01*
G02X-183430Y47220I401J3D01*
G03Y52380I2330J2580D01*
G02X-184100Y52680I-269J297D01*
G01Y64640D01*
G02X-183430Y64940I401J3D01*
G03Y70100I2330J2580D01*
G02X-184100Y70400I-269J297D01*
G01Y110310D01*
G02X-183430Y110610I401J3D01*
G03Y115770I2330J2580D01*
G02X-184100Y116070I-269J297D01*
G01Y128030D01*
G02X-183430Y128330I401J3D01*
G03Y133490I2330J2580D01*
G02X-184100Y133790I-269J297D01*
G01Y136000D01*
X-180800Y139300D01*
X-176240D01*
G02X-175900Y138690I0J-399D01*
G03X-166620I4640J-2860D01*
G02X-166280Y139300I340J211D01*
G01X143900D01*
Y67000D01*
X96200Y19300D01*
Y-3200D01*
X-8680D01*
Y8300D01*
G03X-13720I-2520J0D01*
G01Y-3200D01*
X-100450D01*
G02X-100730Y-2520I2J398D01*
G01X-99880Y-1660D01*
Y38240D01*
X-65020Y73090D01*
X-64940D01*
G03X-66610Y74760I40J1710D01*
G01Y74680D01*
X-102120Y39160D01*
Y-740D01*
X-102660Y-1280D01*
X-110000D01*
Y1280D01*
X-106740D01*
X-104880Y3140D01*
Y39840D01*
X-60840Y83880D01*
X-34360D01*
X-31620Y81140D01*
Y70990D01*
G03X-32050Y68990I1122J-1287D01*
G02X-32420Y68420I-365J-168D01*
G01X-36410D01*
G03Y66180I-1290J-1120D01*
G01X-25040D01*
X-21280Y69940D01*
Y130400D01*
G03X-23520I-1120J3700D01*
G01Y70860D01*
X-25960Y68420D01*
X-28580D01*
G02X-28950Y68990I-5J402D01*
G03X-29380Y70990I-1552J713D01*
G01Y82060D01*
X-33440Y86120D01*
X-61760D01*
X-107120Y40760D01*
Y4060D01*
X-107660Y3520D01*
X-110000D01*
Y48900D01*
X-110100Y49000D01*
X-151500D01*
Y-86380D01*
G02X-152010Y-86760I-399J3D01*
G03X-153620Y-89690I-489J-1639D01*
G01Y-96930D01*
X-160570D01*
Y-104670D01*
X-153360D01*
Y-105920D01*
X-151500Y-107780D01*
Y-113900D01*
X-152200Y-114600D01*
X-152830D01*
Y-107130D01*
X-160570D01*
Y-114600D01*
X-184100D01*
G37*
%LPC*%
G75*
G36*
G01X119990Y87090D02*
Y83540D01*
G02X117750I-1120J-3700D01*
G01Y86170D01*
X112140Y91780D01*
X13290D01*
G02Y94020I-1290J1120D01*
G01X113060D01*
X119990Y87090D01*
G37*
G36*
G01X-90180Y89960D02*
Y78590D01*
G02X-92420I-1120J-1290D01*
G01Y89040D01*
X-112320Y108940D01*
Y129200D01*
X-112220Y129300D01*
Y129600D01*
G02X-109980I1120J3700D01*
G01Y128380D01*
X-110080Y128280D01*
Y109860D01*
X-90180Y89960D01*
G37*
G36*
G01X-97220Y86240D02*
X-122220Y111240D01*
Y129600D01*
G02X-119980I1120J3700D01*
G01Y112160D01*
X-94980Y87160D01*
Y78290D01*
G02X-97220I-1120J-1290D01*
G01Y86240D01*
G37*
G36*
G01X100320Y76930D02*
X103810D01*
X105000Y78120D01*
Y83710D01*
X112740D01*
Y75970D01*
X107150D01*
X105070Y73890D01*
X99060D01*
X98950Y74000D01*
X47360D01*
X47320Y73980D01*
G02X45840I-740J1540D01*
G01X45800Y74000D01*
X17300D01*
X17260Y73980D01*
G02Y77060I-740J1540D01*
G01X17300Y77040D01*
X45800D01*
X45840Y77060D01*
G02X47320I740J-1540D01*
G01X47360Y77040D01*
X100210D01*
X100320Y76930D01*
G37*
G36*
G01X1490Y68070D02*
X1510Y68110D01*
Y89390D01*
X1490Y89430D01*
G02X4570I1540J740D01*
G01X4550Y89390D01*
Y68110D01*
X4570Y68070D01*
G02X1490I-1540J-740D01*
G37*
G36*
G01X-123380Y89820D02*
Y79150D01*
X-123370Y79120D01*
G02Y78080I-1630J-520D01*
G01X-123380Y78050D01*
Y67380D01*
X-123360Y67340D01*
G02X-126440I-1540J-740D01*
G01X-126420Y67380D01*
Y77650D01*
G02Y79550I1420J950D01*
G01Y89820D01*
X-126440Y89860D01*
G02Y91340I1540J740D01*
G01X-126420Y91380D01*
Y101220D01*
X-126440Y101260D01*
G02Y102740I1540J740D01*
G01X-126420Y102780D01*
Y112320D01*
X-126440Y112360D01*
G02Y113840I1540J740D01*
G01X-126420Y113880D01*
Y115570D01*
X-132620Y121770D01*
Y129430D01*
X-134970D01*
Y137170D01*
X-127230D01*
Y129430D01*
X-129580D01*
Y123030D01*
X-123380Y116830D01*
Y113880D01*
X-123360Y113840D01*
G02Y112360I-1540J-740D01*
G01X-123380Y112320D01*
Y102780D01*
X-123360Y102740D01*
G02Y101260I-1540J-740D01*
G01X-123380Y101220D01*
Y91380D01*
X-123360Y91340D01*
G02Y89860I-1540J-740D01*
G01X-123380Y89820D01*
G37*
G36*
G01X-90560Y64410D02*
X-90480D01*
X-87520Y67360D01*
Y94910D01*
G02X-85280I1120J1290D01*
G01Y66440D01*
X-88890Y62820D01*
Y62740D01*
G02X-90560Y64410I-1710J-40D01*
G37*
G36*
G01X20260Y61330D02*
X-56760D01*
G02Y63570I-1290J1120D01*
G01X20260D01*
G02Y61330I1290J-1120D01*
G37*
G36*
G01X15560Y40830D02*
X-42510D01*
G02Y43070I-1290J1120D01*
G01X15560D01*
G02Y40830I1290J-1120D01*
G37*
G36*
G01X-61880Y59610D02*
Y38690D01*
G02X-64120I-1120J-1290D01*
G01Y59610D01*
G02X-61880I1120J1290D01*
G37*
G36*
G01X22720Y38310D02*
Y38140D01*
X16460Y31880D01*
X-42010D01*
G02Y34120I-1290J1120D01*
G01X15540D01*
X20130Y38710D01*
X20070Y38840D01*
G02X22780Y38360I1532J760D01*
G01X22720Y38310D01*
G37*
G36*
G01X-82420Y30890D02*
Y53260D01*
X-57180Y78500D01*
X-55410D01*
G02Y76260I1290J-1120D01*
G01X-56260D01*
X-80180Y52340D01*
Y30890D01*
G02X-82420I-1120J-1290D01*
G37*
G36*
G01X26460Y35990D02*
X26380D01*
X17860Y27480D01*
X-41910D01*
G02Y29720I-1290J1120D01*
G01X16940D01*
X24790Y37580D01*
Y37660D01*
G02X26460Y35990I1710J40D01*
G37*
G36*
G01X-60040Y66990D02*
X-60120D01*
X-70280Y56840D01*
Y24890D01*
G02X-72520I-1120J-1290D01*
G01Y57760D01*
X-61710Y68580D01*
Y68660D01*
G02X-60040Y66990I1710J40D01*
G37*
G36*
G01X-14490Y77120D02*
Y77040D01*
G02X-16160Y78710I-1710J-40D01*
G01X-16080D01*
X-12220Y82560D01*
Y85700D01*
G03X-12880Y86010I-400J5D01*
G02X-15120Y88590I-1120J1290D01*
G01Y96840D01*
X-20320Y102040D01*
Y127760D01*
X-15810Y132270D01*
X-15880Y132400D01*
G02X-14100Y130620I3480J1700D01*
G01X-14230Y130690D01*
X-18080Y126840D01*
Y102960D01*
X-12880Y97760D01*
Y88590D01*
G02X-12590Y88260I-1127J-1283D01*
G01X-12220Y88370D01*
Y102940D01*
X-16920Y107640D01*
Y125560D01*
X-14560Y127920D01*
X-10160D01*
X-5810Y132270D01*
X-5880Y132400D01*
G02X-4100Y130620I3480J1700D01*
G01X-4230Y130690D01*
X-9240Y125680D01*
X-13640D01*
X-14680Y124640D01*
Y108560D01*
X-9980Y103860D01*
Y81640D01*
X-14490Y77120D01*
G37*
G54D30*
X-167320Y-85830D03*
G54D32*
Y92130D03*
G54D31*
X-171260Y-72050D03*
Y-44490D03*
Y-33070D03*
Y-5510D03*
Y5910D03*
Y33470D03*
Y44880D03*
Y72440D03*
Y108270D03*
G54D34*
X-101100Y133300D03*
X7600Y134100D03*
X128870Y79840D03*
X138870D03*
G54D35*
X-91460Y116140D03*
X-60750D03*
X-30040D03*
X670D03*
X31380D03*
X62090D03*
X92800D03*
G54D36*
X-32400Y134100D03*
X91020Y1260D03*
G54D33*
X-101460Y116140D03*
X-70750D03*
X-40040D03*
X-9330D03*
X21380D03*
X52090D03*
X82800D03*
%LPD*%
G75*
G54D10*
X-181100Y-67130D03*
Y-49410D03*
Y-28150D03*
Y-10430D03*
Y10830D03*
Y28550D03*
Y49800D03*
Y67520D03*
Y113190D03*
Y130910D03*
X-91460Y116140D03*
X-60750D03*
X-30040D03*
X670D03*
X31380D03*
X62090D03*
X92800D03*
G54D20*
G01X-114170Y-111180D02*
X-125980Y-99370D01*
G01X-102360Y-81570D02*
X-94490Y-89450D01*
G01X-74800Y-85040D02*
X-78740Y-81100D01*
G01X-55120Y-85040D02*
X-59060Y-81100D01*
G01X-15750Y-85040D02*
X-11810Y-81100D01*
G01X3940Y-85040D02*
X7870Y-81100D01*
G01X43310Y-91180D02*
X53390Y-81100D01*
X55120D01*
G01X62990Y-92910D02*
X74800Y-81100D01*
G01X102360Y-100790D02*
X122050Y-81100D01*
X-114170Y-125590D03*
X-94490D03*
X-55120D03*
X-35440D03*
X3940D03*
X23620D03*
X62990D03*
X82670D03*
X122040D03*
G54D11*
X-167320Y-85830D03*
X167320D03*
G54D21*
X-101460Y116140D03*
X-70750D03*
X-40040D03*
X-9330D03*
X21380D03*
X52090D03*
X82800D03*
G54D12*
X-171260Y-72050D03*
Y-44490D03*
Y-33070D03*
Y-5510D03*
Y5910D03*
Y33470D03*
Y44880D03*
Y72440D03*
Y108270D03*
Y135830D03*
G54D22*
X-74800Y-125590D03*
X-15750D03*
X43310D03*
X102360D03*
X141730D03*
G54D13*
X-167320Y92130D03*
X167320D03*
G54D23*
G01X-181100Y-53090D02*
Y-49410D01*
G01D02*
Y-45730D01*
G01Y-49410D02*
X-177420D01*
G01X-181100Y-14110D02*
Y-10430D01*
G01D02*
Y-6750D01*
G01Y-10430D02*
X-177420D01*
G01X-181100Y24870D02*
Y28550D01*
G01D02*
Y32230D01*
G01Y28550D02*
X-177420D01*
G01X-181100Y63840D02*
Y67520D01*
G01D02*
Y71200D01*
G01Y67520D02*
X-177420D01*
G01X-181100Y127230D02*
Y130910D01*
G01D02*
Y134590D01*
G01Y130910D02*
X-177420D01*
G01X-105170Y133300D02*
X-101100D01*
G01Y129230D02*
Y133300D01*
G01D02*
Y137370D01*
G01Y133300D02*
X-97030D01*
G01X-74430Y116140D02*
X-70750D01*
G01Y112460D02*
Y116140D01*
G01D02*
Y119820D01*
G01Y116140D02*
X-67070D01*
G01X-43720D02*
X-40040D01*
G01Y112460D02*
Y116140D01*
G01D02*
Y119820D01*
G01Y116140D02*
X-36360D01*
G01X-13010D02*
X-9330D01*
G01Y112460D02*
Y116140D01*
G01D02*
Y119820D01*
G01Y116140D02*
X-5650D01*
G01X3530Y134100D02*
X7600D01*
G01Y130030D02*
Y134100D01*
G01D02*
Y138170D01*
G01Y134100D02*
X11670D01*
G01X17700Y116140D02*
X21380D01*
G01Y112460D02*
Y116140D01*
G01D02*
Y119820D01*
G01Y116140D02*
X25060D01*
G01X48410D02*
X52090D01*
G01Y112460D02*
Y116140D01*
G01D02*
Y119820D01*
G01Y116140D02*
X55770D01*
G01X79120D02*
X82800D01*
G01Y112460D02*
Y116140D01*
G01D02*
Y119820D01*
G01Y116140D02*
X86480D01*
G01X86950Y1260D02*
X91020D01*
G01Y-2810D02*
Y1260D01*
G01D02*
Y5330D01*
G01Y1260D02*
X95090D01*
G01X128870Y75770D02*
Y79840D01*
G01D02*
Y83910D01*
G01X124800Y79840D02*
X128870D01*
G01D02*
X132940D01*
G54D14*
X-160230Y-135070D03*
Y-121490D03*
X-132050Y-135070D03*
Y-121490D03*
G54D24*
G01X-136540Y-123460D02*
X-134500Y-125500D01*
Y-129700D01*
X-136500Y-131700D01*
X-157610D01*
X-158710Y-130600D01*
X-158800D01*
X-160900Y-128500D01*
X-166700D01*
X-168700Y-126500D01*
Y-113000D01*
G01D02*
X-166700Y-111000D01*
G01D02*
X-156700D01*
G01D02*
Y-100800D01*
G01D02*
Y-100600D01*
G01X-125990Y-33070D02*
X-139400Y-46480D01*
Y-115200D01*
X-142140Y-117940D01*
X-151260D01*
G01X-131100Y133300D02*
Y122400D01*
X-124900Y116200D01*
Y113100D01*
G01Y78600D02*
Y66600D01*
G01Y90600D02*
Y78600D01*
G01D02*
X-125000D01*
G01X-124900Y102000D02*
Y90600D01*
G01Y113100D02*
Y102000D01*
G01X3030Y90170D02*
Y67330D01*
G01X16520Y75520D02*
X46580D01*
G01X108870Y79840D02*
X104440Y75410D01*
X99690D01*
X99580Y75520D01*
X46580D01*
G54D15*
X-156700Y-111000D03*
Y-100800D03*
X-131100Y133300D03*
X-32400Y134100D03*
X91020Y1260D03*
X101020D03*
X108870Y79840D03*
X151020Y1260D03*
X171020D03*
G54D25*
G01X-152500Y-88400D02*
Y-96540D01*
X-152240Y-96800D01*
Y-105460D01*
X-146700Y-111000D01*
G01X-143900Y2400D02*
X-107200D01*
X-106000Y3600D01*
Y40300D01*
X-61300Y85000D01*
X-33900D01*
X-30500Y81600D01*
Y69700D01*
G01X-64900Y74800D02*
X-101000Y38700D01*
Y-1200D01*
X-102200Y-2400D01*
X-139000D01*
G01X-96100Y77000D02*
Y86700D01*
X-121100Y111700D01*
Y133300D01*
G01X-111100D02*
Y128840D01*
X-111200Y128740D01*
Y109400D01*
X-91300Y89500D01*
Y77300D01*
G01X-86400Y96200D02*
Y66900D01*
X-90600Y62700D01*
G01X-81300Y29600D02*
Y52800D01*
X-56720Y77380D01*
X-54120D01*
G01X-71400Y23600D02*
Y57300D01*
X-60000Y68700D01*
G01X-63000Y60900D02*
Y37400D01*
G01X-58050Y62450D02*
X21550D01*
G01X-43200Y28600D02*
X17400D01*
X26500Y37700D01*
G01X21600Y39600D02*
Y38600D01*
X16000Y33000D01*
X-43300D01*
G01X-43800Y41950D02*
X16850D01*
G01X-37700Y67300D02*
X-25500D01*
X-22400Y70400D01*
Y134100D01*
G01X-16200Y77000D02*
X-11100Y82100D01*
Y103400D01*
X-15800Y108100D01*
Y125100D01*
X-14100Y126800D01*
X-9700D01*
X-2400Y134100D01*
G01X-14000Y87300D02*
Y97300D01*
X-19200Y102500D01*
Y127300D01*
X-12400Y134100D01*
G01X12000Y92900D02*
X112600D01*
X118870Y86630D01*
Y79840D01*
G54D16*
G01X-125980Y-33070D02*
X-125990D01*
X-154010Y-126690D03*
X-138270D03*
G54D26*
G01X-11200Y8300D02*
Y-10080D01*
G01X122040Y-125590D02*
Y-114810D01*
X151180Y-85670D01*
G01X141730Y-125590D02*
X149060D01*
X180160Y-94490D01*
G01Y-76850D02*
X171340Y-68030D01*
G01X151020Y1260D02*
X150840D01*
G01X171020D02*
X170940D01*
G54D17*
X-151260Y-117940D03*
X-152500Y-88400D03*
X-143900Y2400D03*
X-136540Y-123460D03*
X-139000Y-2400D03*
X-124900Y66600D03*
X-125000Y78600D03*
X-124900Y90600D03*
Y102000D03*
Y113100D03*
X-96100Y77000D03*
X-90600Y62700D03*
X-91300Y77300D03*
X-86400Y96200D03*
X-81300Y29600D03*
X-71400Y23600D03*
X-63000Y37400D03*
Y60900D03*
X-64900Y74800D03*
X-58050Y62450D03*
X-60000Y68700D03*
X-54120Y77380D03*
X-43200Y28600D03*
X-43300Y33000D03*
X-43800Y41950D03*
X-37700Y67300D03*
X-30500Y69700D03*
X-16200Y77000D03*
X-11200Y8300D03*
X-14000Y87300D03*
X3030Y67330D03*
Y90170D03*
X12000Y92900D03*
X16850Y41950D03*
X16520Y75520D03*
X21600Y39600D03*
X21550Y62450D03*
X26500Y37700D03*
X46580Y75520D03*
G54D27*
G01X-114170Y-125590D02*
Y-111180D01*
G01X-125980Y-99370D02*
Y-89850D01*
X-125990Y-89840D01*
Y-81100D01*
G01X-102360Y-25200D02*
Y-81570D01*
G01X-94490Y-89450D02*
Y-125590D01*
G01X-74800D02*
Y-85040D01*
G01X-55120Y-125590D02*
Y-85040D01*
G01X-35440Y-125590D02*
Y-25210D01*
X-35430Y-25200D01*
G01X-15750Y-125590D02*
Y-85040D01*
G01X3940Y-125590D02*
Y-85040D01*
G01X31500Y-25200D02*
Y-33940D01*
X31200Y-34240D01*
Y-75600D01*
X23620Y-83180D01*
Y-125590D01*
G01X43310D02*
Y-91180D01*
G01X62990Y-125590D02*
Y-92910D01*
G01X98430Y-25200D02*
Y-77310D01*
X82670Y-93070D01*
Y-125590D01*
G01X102360D02*
Y-100790D01*
G54D18*
X-146700Y-111000D03*
Y-100800D03*
X-121100Y133300D03*
X-111100D03*
X-101100D03*
X-22400Y134100D03*
X-12400D03*
X-2400D03*
X7600D03*
X118870Y79840D03*
X128870D03*
X138870D03*
G54D28*
G01X7560Y-10080D02*
X7870Y-9760D01*
G54D19*
X-125990Y-81100D03*
Y-33070D03*
X-102360Y-25200D03*
X-78740Y-81100D03*
Y-33070D03*
X-59060Y-81100D03*
Y-33070D03*
X-35430Y-25200D03*
X-11810Y-81100D03*
Y-33070D03*
X7870Y-81100D03*
Y-33070D03*
X31500Y-25200D03*
X55120Y-81100D03*
Y-33070D03*
X74800Y-81100D03*
Y-33070D03*
X98430Y-25200D03*
X122050Y-81100D03*
Y-33070D03*
G54D29*
G01X-125990D02*
X-125980D01*
Y-26300D01*
X-128500Y-23780D01*
Y-12600D01*
X-125980Y-10080D01*
X-57950D01*
G01X-59060Y-33070D02*
Y-11180D01*
X-57950Y-10080D01*
G01D02*
X-11200D01*
G01D02*
X7560D01*
G01X7870Y-33070D02*
Y-10390D01*
X7560Y-10080D01*
G01D02*
X75590D01*
G01X74800Y-33070D02*
Y-10870D01*
X75590Y-10080D01*
G01D02*
X97090D01*
X101020Y-6140D01*
Y1260D01*
G01X151180Y-85670D02*
Y-4760D01*
X151020Y-4610D01*
Y1260D01*
G01X180160Y-94490D02*
Y-76850D01*
G01X171340Y-68030D02*
Y-4920D01*
X171020Y-4610D01*
Y1260D01*
M02*
