G04 ================== begin FILE IDENTIFICATION RECORD ==================*
G04 Layout Name:  E:/san4chV2/sanT4ch_finish/Board/sanT_4ch.brd*
G04 Film Name:    FAB*
G04 File Format:  Gerber RS274X*
G04 File Origin:  Cadence Allegro 16.5-P002*
G04 Origin Date:  Thu Jul 06 18:54:33 2017*
G04 *
G04 Layer:  BOARD GEOMETRY/DIMENSION*
G04 Layer:  BOARD GEOMETRY/OUTLINE*
G04 Layer:  MANUFACTURING/NCLEGEND-1-2*
G04 Layer:  MANUFACTURING/XSECTION_CHART*
G04 Layer:  PIN/TOP*
G04 *
G04 Offset:    (0.0 0.0)*
G04 Mirror:    No*
G04 Mode:      Positive*
G04 Rotation:  0*
G04 FullContactRelief:  No*
G04 UndefLineWidth:     0.0*
G04 ================== end FILE IDENTIFICATION RECORD ====================*
%FSLAX35Y35*MOIN*%
%IR0*IPPOS*OFA0.00000B0.00000*MIA0B0*SFA1.00000B1.00000*%
%AMMACRO39*
4,1,40,-.0339,-.0374,
.0339,-.0374,
.034583,-.037334,
.035245,-.03715,
.035864,-.036853,
.036422,-.036454,
.036903,-.035964,
.037291,-.035398,
.037576,-.034773,
.037747,-.034108,
.0378,-.0335,
.0378,.0335,
.037734,.034183,
.03755,.034845,
.037253,.035464,
.036854,.036022,
.036364,.036503,
.035798,.036891,
.035173,.037176,
.034508,.037347,
.0339,.0374,
-.0339,.0374,
-.034583,.037334,
-.035245,.03715,
-.035864,.036853,
-.036422,.036454,
-.036903,.035964,
-.037291,.035398,
-.037576,.034773,
-.037747,.034108,
-.0378,.0335,
-.0378,-.0335,
-.037734,-.034183,
-.03755,-.034845,
-.037253,-.035464,
-.036854,-.036022,
-.036364,-.036503,
-.035798,-.036891,
-.035173,-.037176,
-.034508,-.037347,
-.0339,-.0374,
0.0*
%
%ADD39MACRO39*%
%AMMACRO29*
1,1,0.0,.0256,0.0*
20,1,0.0,.0256,0.0,.025211,-.004445,0.0*
1,1,0.0,.025211,-.004445*
20,1,0.0,.025211,-.004445,.024056,-.008756,0.0*
1,1,0.0,.024056,-.008756*
20,1,0.0,.024056,-.008756,.02217,-.0128,0.0*
1,1,0.0,.02217,-.0128*
20,1,0.0,.02217,-.0128,.019611,-.016455,0.0*
1,1,0.0,.019611,-.016455*
20,1,0.0,.019611,-.016455,.016455,-.019611,0.0*
1,1,0.0,.016455,-.019611*
20,1,0.0,.016455,-.019611,.0128,-.02217,0.0*
1,1,0.0,.0128,-.02217*
20,1,0.0,.0128,-.02217,.008756,-.024056,0.0*
1,1,0.0,.008756,-.024056*
20,1,0.0,.008756,-.024056,.004445,-.025211,0.0*
1,1,0.0,.004445,-.025211*
20,1,0.0,.004445,-.025211,0.0,-.0256,0.0*
1,1,0.0,0.0,-.0256*
20,1,0.0,0.0,-.0256,-.004445,-.025211,0.0*
1,1,0.0,-.004445,-.025211*
20,1,0.0,-.004445,-.025211,-.008756,-.024056,0.0*
1,1,0.0,-.008756,-.024056*
20,1,0.0,-.008756,-.024056,-.0128,-.02217,0.0*
1,1,0.0,-.0128,-.02217*
20,1,0.0,-.0128,-.02217,-.016455,-.019611,0.0*
1,1,0.0,-.016455,-.019611*
20,1,0.0,-.016455,-.019611,-.019611,-.016455,0.0*
1,1,0.0,-.019611,-.016455*
20,1,0.0,-.019611,-.016455,-.02217,-.0128,0.0*
1,1,0.0,-.02217,-.0128*
20,1,0.0,-.02217,-.0128,-.024056,-.008756,0.0*
1,1,0.0,-.024056,-.008756*
20,1,0.0,-.024056,-.008756,-.025211,-.004445,0.0*
1,1,0.0,-.025211,-.004445*
20,1,0.0,-.025211,-.004445,-.0256,0.0,0.0*
1,1,0.0,-.0256,0.0*
20,1,0.0,-.0256,0.0,-.025211,.004445,0.0*
1,1,0.0,-.025211,.004445*
20,1,0.0,-.025211,.004445,-.024056,.008756,0.0*
1,1,0.0,-.024056,.008756*
20,1,0.0,-.024056,.008756,-.02217,.0128,0.0*
1,1,0.0,-.02217,.0128*
20,1,0.0,-.02217,.0128,-.019611,.016455,0.0*
1,1,0.0,-.019611,.016455*
20,1,0.0,-.019611,.016455,-.016455,.019611,0.0*
1,1,0.0,-.016455,.019611*
20,1,0.0,-.016455,.019611,-.0128,.02217,0.0*
1,1,0.0,-.0128,.02217*
20,1,0.0,-.0128,.02217,-.008756,.024056,0.0*
1,1,0.0,-.008756,.024056*
20,1,0.0,-.008756,.024056,-.004445,.025211,0.0*
1,1,0.0,-.004445,.025211*
20,1,0.0,-.004445,.025211,0.0,.0256,0.0*
1,1,0.0,0.0,.0256*
20,1,0.0,0.0,.0256,.004445,.025211,0.0*
1,1,0.0,.004445,.025211*
20,1,0.0,.004445,.025211,.008756,.024056,0.0*
1,1,0.0,.008756,.024056*
20,1,0.0,.008756,.024056,.0128,.02217,0.0*
1,1,0.0,.0128,.02217*
20,1,0.0,.0128,.02217,.016455,.019611,0.0*
1,1,0.0,.016455,.019611*
20,1,0.0,.016455,.019611,.019611,.016455,0.0*
1,1,0.0,.019611,.016455*
20,1,0.0,.019611,.016455,.02217,.0128,0.0*
1,1,0.0,.02217,.0128*
20,1,0.0,.02217,.0128,.024056,.008756,0.0*
1,1,0.0,.024056,.008756*
20,1,0.0,.024056,.008756,.025211,.004445,0.0*
1,1,0.0,.025211,.004445*
20,1,0.0,.025211,.004445,.0256,0.0,0.0*
1,1,0.0,.0256,0.0*
%
%ADD29MACRO29*%
%AMMACRO13*
1,1,0.0,.0618,0.0*
20,1,0.0,.0618,0.0,.060861,-.010731,0.0*
1,1,0.0,.060861,-.010731*
20,1,0.0,.060861,-.010731,.058073,-.021137,0.0*
1,1,0.0,.058073,-.021137*
20,1,0.0,.058073,-.021137,.05352,-.0309,0.0*
1,1,0.0,.05352,-.0309*
20,1,0.0,.05352,-.0309,.047342,-.039724,0.0*
1,1,0.0,.047342,-.039724*
20,1,0.0,.047342,-.039724,.039724,-.047342,0.0*
1,1,0.0,.039724,-.047342*
20,1,0.0,.039724,-.047342,.0309,-.05352,0.0*
1,1,0.0,.0309,-.05352*
20,1,0.0,.0309,-.05352,.021137,-.058073,0.0*
1,1,0.0,.021137,-.058073*
20,1,0.0,.021137,-.058073,.010731,-.060861,0.0*
1,1,0.0,.010731,-.060861*
20,1,0.0,.010731,-.060861,0.0,-.0618,0.0*
1,1,0.0,0.0,-.0618*
20,1,0.0,0.0,-.0618,-.010731,-.060861,0.0*
1,1,0.0,-.010731,-.060861*
20,1,0.0,-.010731,-.060861,-.021137,-.058073,0.0*
1,1,0.0,-.021137,-.058073*
20,1,0.0,-.021137,-.058073,-.0309,-.05352,0.0*
1,1,0.0,-.0309,-.05352*
20,1,0.0,-.0309,-.05352,-.039724,-.047342,0.0*
1,1,0.0,-.039724,-.047342*
20,1,0.0,-.039724,-.047342,-.047342,-.039724,0.0*
1,1,0.0,-.047342,-.039724*
20,1,0.0,-.047342,-.039724,-.05352,-.0309,0.0*
1,1,0.0,-.05352,-.0309*
20,1,0.0,-.05352,-.0309,-.058073,-.021137,0.0*
1,1,0.0,-.058073,-.021137*
20,1,0.0,-.058073,-.021137,-.060861,-.010731,0.0*
1,1,0.0,-.060861,-.010731*
20,1,0.0,-.060861,-.010731,-.0618,0.0,0.0*
1,1,0.0,-.0618,0.0*
20,1,0.0,-.0618,0.0,-.060861,.010731,0.0*
1,1,0.0,-.060861,.010731*
20,1,0.0,-.060861,.010731,-.058073,.021137,0.0*
1,1,0.0,-.058073,.021137*
20,1,0.0,-.058073,.021137,-.05352,.0309,0.0*
1,1,0.0,-.05352,.0309*
20,1,0.0,-.05352,.0309,-.047342,.039724,0.0*
1,1,0.0,-.047342,.039724*
20,1,0.0,-.047342,.039724,-.039724,.047342,0.0*
1,1,0.0,-.039724,.047342*
20,1,0.0,-.039724,.047342,-.0309,.05352,0.0*
1,1,0.0,-.0309,.05352*
20,1,0.0,-.0309,.05352,-.021137,.058073,0.0*
1,1,0.0,-.021137,.058073*
20,1,0.0,-.021137,.058073,-.010731,.060861,0.0*
1,1,0.0,-.010731,.060861*
20,1,0.0,-.010731,.060861,0.0,.0618,0.0*
1,1,0.0,0.0,.0618*
20,1,0.0,0.0,.0618,.010731,.060861,0.0*
1,1,0.0,.010731,.060861*
20,1,0.0,.010731,.060861,.021137,.058073,0.0*
1,1,0.0,.021137,.058073*
20,1,0.0,.021137,.058073,.0309,.05352,0.0*
1,1,0.0,.0309,.05352*
20,1,0.0,.0309,.05352,.039724,.047342,0.0*
1,1,0.0,.039724,.047342*
20,1,0.0,.039724,.047342,.047342,.039724,0.0*
1,1,0.0,.047342,.039724*
20,1,0.0,.047342,.039724,.05352,.0309,0.0*
1,1,0.0,.05352,.0309*
20,1,0.0,.05352,.0309,.058073,.021137,0.0*
1,1,0.0,.058073,.021137*
20,1,0.0,.058073,.021137,.060861,.010731,0.0*
1,1,0.0,.060861,.010731*
20,1,0.0,.060861,.010731,.0618,0.0,0.0*
1,1,0.0,.0618,0.0*
%
%ADD13MACRO13*%
%ADD12C,.1315*%
%ADD16C,.2047*%
%AMMACRO24*
1,1,0.0,.0069,0.0*
20,1,0.0,.0069,0.0,.006795,-.001198,0.0*
1,1,0.0,.006795,-.001198*
20,1,0.0,.006795,-.001198,.006484,-.00236,0.0*
1,1,0.0,.006484,-.00236*
20,1,0.0,.006484,-.00236,.005976,-.00345,0.0*
1,1,0.0,.005976,-.00345*
20,1,0.0,.005976,-.00345,.005286,-.004435,0.0*
1,1,0.0,.005286,-.004435*
20,1,0.0,.005286,-.004435,.004435,-.005286,0.0*
1,1,0.0,.004435,-.005286*
20,1,0.0,.004435,-.005286,.00345,-.005976,0.0*
1,1,0.0,.00345,-.005976*
20,1,0.0,.00345,-.005976,.00236,-.006484,0.0*
1,1,0.0,.00236,-.006484*
20,1,0.0,.00236,-.006484,.001198,-.006795,0.0*
1,1,0.0,.001198,-.006795*
20,1,0.0,.001198,-.006795,0.0,-.0069,0.0*
1,1,0.0,0.0,-.0069*
20,1,0.0,0.0,-.0069,-.001198,-.006795,0.0*
1,1,0.0,-.001198,-.006795*
20,1,0.0,-.001198,-.006795,-.00236,-.006484,0.0*
1,1,0.0,-.00236,-.006484*
20,1,0.0,-.00236,-.006484,-.00345,-.005976,0.0*
1,1,0.0,-.00345,-.005976*
20,1,0.0,-.00345,-.005976,-.004435,-.005286,0.0*
1,1,0.0,-.004435,-.005286*
20,1,0.0,-.004435,-.005286,-.005286,-.004435,0.0*
1,1,0.0,-.005286,-.004435*
20,1,0.0,-.005286,-.004435,-.005976,-.00345,0.0*
1,1,0.0,-.005976,-.00345*
20,1,0.0,-.005976,-.00345,-.006484,-.00236,0.0*
1,1,0.0,-.006484,-.00236*
20,1,0.0,-.006484,-.00236,-.006795,-.001198,0.0*
1,1,0.0,-.006795,-.001198*
20,1,0.0,-.006795,-.001198,-.0069,0.0,0.0*
1,1,0.0,-.0069,0.0*
20,1,0.0,-.0069,0.0,-.006795,.001198,0.0*
1,1,0.0,-.006795,.001198*
20,1,0.0,-.006795,.001198,-.006484,.00236,0.0*
1,1,0.0,-.006484,.00236*
20,1,0.0,-.006484,.00236,-.005976,.00345,0.0*
1,1,0.0,-.005976,.00345*
20,1,0.0,-.005976,.00345,-.005286,.004435,0.0*
1,1,0.0,-.005286,.004435*
20,1,0.0,-.005286,.004435,-.004435,.005286,0.0*
1,1,0.0,-.004435,.005286*
20,1,0.0,-.004435,.005286,-.00345,.005976,0.0*
1,1,0.0,-.00345,.005976*
20,1,0.0,-.00345,.005976,-.00236,.006484,0.0*
1,1,0.0,-.00236,.006484*
20,1,0.0,-.00236,.006484,-.001198,.006795,0.0*
1,1,0.0,-.001198,.006795*
20,1,0.0,-.001198,.006795,0.0,.0069,0.0*
1,1,0.0,0.0,.0069*
20,1,0.0,0.0,.0069,.001198,.006795,0.0*
1,1,0.0,.001198,.006795*
20,1,0.0,.001198,.006795,.00236,.006484,0.0*
1,1,0.0,.00236,.006484*
20,1,0.0,.00236,.006484,.00345,.005976,0.0*
1,1,0.0,.00345,.005976*
20,1,0.0,.00345,.005976,.004435,.005286,0.0*
1,1,0.0,.004435,.005286*
20,1,0.0,.004435,.005286,.005286,.004435,0.0*
1,1,0.0,.005286,.004435*
20,1,0.0,.005286,.004435,.005976,.00345,0.0*
1,1,0.0,.005976,.00345*
20,1,0.0,.005976,.00345,.006484,.00236,0.0*
1,1,0.0,.006484,.00236*
20,1,0.0,.006484,.00236,.006795,.001198,0.0*
1,1,0.0,.006795,.001198*
20,1,0.0,.006795,.001198,.0069,0.0,0.0*
1,1,0.0,.0069,0.0*
%
%ADD24MACRO24*%
%AMMACRO21*
1,1,0.0,.0177,0.0*
20,1,0.0,.0177,0.0,.017431,-.003074,0.0*
1,1,0.0,.017431,-.003074*
20,1,0.0,.017431,-.003074,.016633,-.006054,0.0*
1,1,0.0,.016633,-.006054*
20,1,0.0,.016633,-.006054,.015329,-.00885,0.0*
1,1,0.0,.015329,-.00885*
20,1,0.0,.015329,-.00885,.013559,-.011377,0.0*
1,1,0.0,.013559,-.011377*
20,1,0.0,.013559,-.011377,.011377,-.013559,0.0*
1,1,0.0,.011377,-.013559*
20,1,0.0,.011377,-.013559,.00885,-.015329,0.0*
1,1,0.0,.00885,-.015329*
20,1,0.0,.00885,-.015329,.006054,-.016633,0.0*
1,1,0.0,.006054,-.016633*
20,1,0.0,.006054,-.016633,.003074,-.017431,0.0*
1,1,0.0,.003074,-.017431*
20,1,0.0,.003074,-.017431,0.0,-.0177,0.0*
1,1,0.0,0.0,-.0177*
20,1,0.0,0.0,-.0177,-.003074,-.017431,0.0*
1,1,0.0,-.003074,-.017431*
20,1,0.0,-.003074,-.017431,-.006054,-.016633,0.0*
1,1,0.0,-.006054,-.016633*
20,1,0.0,-.006054,-.016633,-.00885,-.015329,0.0*
1,1,0.0,-.00885,-.015329*
20,1,0.0,-.00885,-.015329,-.011377,-.013559,0.0*
1,1,0.0,-.011377,-.013559*
20,1,0.0,-.011377,-.013559,-.013559,-.011377,0.0*
1,1,0.0,-.013559,-.011377*
20,1,0.0,-.013559,-.011377,-.015329,-.00885,0.0*
1,1,0.0,-.015329,-.00885*
20,1,0.0,-.015329,-.00885,-.016633,-.006054,0.0*
1,1,0.0,-.016633,-.006054*
20,1,0.0,-.016633,-.006054,-.017431,-.003074,0.0*
1,1,0.0,-.017431,-.003074*
20,1,0.0,-.017431,-.003074,-.0177,0.0,0.0*
1,1,0.0,-.0177,0.0*
20,1,0.0,-.0177,0.0,-.017431,.003074,0.0*
1,1,0.0,-.017431,.003074*
20,1,0.0,-.017431,.003074,-.016633,.006054,0.0*
1,1,0.0,-.016633,.006054*
20,1,0.0,-.016633,.006054,-.015329,.00885,0.0*
1,1,0.0,-.015329,.00885*
20,1,0.0,-.015329,.00885,-.013559,.011377,0.0*
1,1,0.0,-.013559,.011377*
20,1,0.0,-.013559,.011377,-.011377,.013559,0.0*
1,1,0.0,-.011377,.013559*
20,1,0.0,-.011377,.013559,-.00885,.015329,0.0*
1,1,0.0,-.00885,.015329*
20,1,0.0,-.00885,.015329,-.006054,.016633,0.0*
1,1,0.0,-.006054,.016633*
20,1,0.0,-.006054,.016633,-.003074,.017431,0.0*
1,1,0.0,-.003074,.017431*
20,1,0.0,-.003074,.017431,0.0,.0177,0.0*
1,1,0.0,0.0,.0177*
20,1,0.0,0.0,.0177,.003074,.017431,0.0*
1,1,0.0,.003074,.017431*
20,1,0.0,.003074,.017431,.006054,.016633,0.0*
1,1,0.0,.006054,.016633*
20,1,0.0,.006054,.016633,.00885,.015329,0.0*
1,1,0.0,.00885,.015329*
20,1,0.0,.00885,.015329,.011377,.013559,0.0*
1,1,0.0,.011377,.013559*
20,1,0.0,.011377,.013559,.013559,.011377,0.0*
1,1,0.0,.013559,.011377*
20,1,0.0,.013559,.011377,.015329,.00885,0.0*
1,1,0.0,.015329,.00885*
20,1,0.0,.015329,.00885,.016633,.006054,0.0*
1,1,0.0,.016633,.006054*
20,1,0.0,.016633,.006054,.017431,.003074,0.0*
1,1,0.0,.017431,.003074*
20,1,0.0,.017431,.003074,.0177,0.0,0.0*
1,1,0.0,.0177,0.0*
%
%ADD21MACRO21*%
%AMMACRO31*
1,1,0.0,.0236,0.0*
20,1,0.0,.0236,0.0,.023241,-.004098,0.0*
1,1,0.0,.023241,-.004098*
20,1,0.0,.023241,-.004098,.022177,-.008072,0.0*
1,1,0.0,.022177,-.008072*
20,1,0.0,.022177,-.008072,.020438,-.0118,0.0*
1,1,0.0,.020438,-.0118*
20,1,0.0,.020438,-.0118,.018079,-.01517,0.0*
1,1,0.0,.018079,-.01517*
20,1,0.0,.018079,-.01517,.01517,-.018079,0.0*
1,1,0.0,.01517,-.018079*
20,1,0.0,.01517,-.018079,.0118,-.020438,0.0*
1,1,0.0,.0118,-.020438*
20,1,0.0,.0118,-.020438,.008072,-.022177,0.0*
1,1,0.0,.008072,-.022177*
20,1,0.0,.008072,-.022177,.004098,-.023241,0.0*
1,1,0.0,.004098,-.023241*
20,1,0.0,.004098,-.023241,0.0,-.0236,0.0*
1,1,0.0,0.0,-.0236*
20,1,0.0,0.0,-.0236,-.004098,-.023241,0.0*
1,1,0.0,-.004098,-.023241*
20,1,0.0,-.004098,-.023241,-.008072,-.022177,0.0*
1,1,0.0,-.008072,-.022177*
20,1,0.0,-.008072,-.022177,-.0118,-.020438,0.0*
1,1,0.0,-.0118,-.020438*
20,1,0.0,-.0118,-.020438,-.01517,-.018079,0.0*
1,1,0.0,-.01517,-.018079*
20,1,0.0,-.01517,-.018079,-.018079,-.01517,0.0*
1,1,0.0,-.018079,-.01517*
20,1,0.0,-.018079,-.01517,-.020438,-.0118,0.0*
1,1,0.0,-.020438,-.0118*
20,1,0.0,-.020438,-.0118,-.022177,-.008072,0.0*
1,1,0.0,-.022177,-.008072*
20,1,0.0,-.022177,-.008072,-.023241,-.004098,0.0*
1,1,0.0,-.023241,-.004098*
20,1,0.0,-.023241,-.004098,-.0236,0.0,0.0*
1,1,0.0,-.0236,0.0*
20,1,0.0,-.0236,0.0,-.023241,.004098,0.0*
1,1,0.0,-.023241,.004098*
20,1,0.0,-.023241,.004098,-.022177,.008072,0.0*
1,1,0.0,-.022177,.008072*
20,1,0.0,-.022177,.008072,-.020438,.0118,0.0*
1,1,0.0,-.020438,.0118*
20,1,0.0,-.020438,.0118,-.018079,.01517,0.0*
1,1,0.0,-.018079,.01517*
20,1,0.0,-.018079,.01517,-.01517,.018079,0.0*
1,1,0.0,-.01517,.018079*
20,1,0.0,-.01517,.018079,-.0118,.020438,0.0*
1,1,0.0,-.0118,.020438*
20,1,0.0,-.0118,.020438,-.008072,.022177,0.0*
1,1,0.0,-.008072,.022177*
20,1,0.0,-.008072,.022177,-.004098,.023241,0.0*
1,1,0.0,-.004098,.023241*
20,1,0.0,-.004098,.023241,0.0,.0236,0.0*
1,1,0.0,0.0,.0236*
20,1,0.0,0.0,.0236,.004098,.023241,0.0*
1,1,0.0,.004098,.023241*
20,1,0.0,.004098,.023241,.008072,.022177,0.0*
1,1,0.0,.008072,.022177*
20,1,0.0,.008072,.022177,.0118,.020438,0.0*
1,1,0.0,.0118,.020438*
20,1,0.0,.0118,.020438,.01517,.018079,0.0*
1,1,0.0,.01517,.018079*
20,1,0.0,.01517,.018079,.018079,.01517,0.0*
1,1,0.0,.018079,.01517*
20,1,0.0,.018079,.01517,.020438,.0118,0.0*
1,1,0.0,.020438,.0118*
20,1,0.0,.020438,.0118,.022177,.008072,0.0*
1,1,0.0,.022177,.008072*
20,1,0.0,.022177,.008072,.023241,.004098,0.0*
1,1,0.0,.023241,.004098*
20,1,0.0,.023241,.004098,.0236,0.0,0.0*
1,1,0.0,.0236,0.0*
%
%ADD31MACRO31*%
%AMMACRO23*
1,1,0.0,.0138,0.0*
20,1,0.0,.0138,0.0,.01359,-.002396,0.0*
1,1,0.0,.01359,-.002396*
20,1,0.0,.01359,-.002396,.012968,-.00472,0.0*
1,1,0.0,.012968,-.00472*
20,1,0.0,.012968,-.00472,.011951,-.0069,0.0*
1,1,0.0,.011951,-.0069*
20,1,0.0,.011951,-.0069,.010571,-.00887,0.0*
1,1,0.0,.010571,-.00887*
20,1,0.0,.010571,-.00887,.00887,-.010571,0.0*
1,1,0.0,.00887,-.010571*
20,1,0.0,.00887,-.010571,.0069,-.011951,0.0*
1,1,0.0,.0069,-.011951*
20,1,0.0,.0069,-.011951,.00472,-.012968,0.0*
1,1,0.0,.00472,-.012968*
20,1,0.0,.00472,-.012968,.002396,-.01359,0.0*
1,1,0.0,.002396,-.01359*
20,1,0.0,.002396,-.01359,0.0,-.0138,0.0*
1,1,0.0,0.0,-.0138*
20,1,0.0,0.0,-.0138,-.002396,-.01359,0.0*
1,1,0.0,-.002396,-.01359*
20,1,0.0,-.002396,-.01359,-.00472,-.012968,0.0*
1,1,0.0,-.00472,-.012968*
20,1,0.0,-.00472,-.012968,-.0069,-.011951,0.0*
1,1,0.0,-.0069,-.011951*
20,1,0.0,-.0069,-.011951,-.00887,-.010571,0.0*
1,1,0.0,-.00887,-.010571*
20,1,0.0,-.00887,-.010571,-.010571,-.00887,0.0*
1,1,0.0,-.010571,-.00887*
20,1,0.0,-.010571,-.00887,-.011951,-.0069,0.0*
1,1,0.0,-.011951,-.0069*
20,1,0.0,-.011951,-.0069,-.012968,-.00472,0.0*
1,1,0.0,-.012968,-.00472*
20,1,0.0,-.012968,-.00472,-.01359,-.002396,0.0*
1,1,0.0,-.01359,-.002396*
20,1,0.0,-.01359,-.002396,-.0138,0.0,0.0*
1,1,0.0,-.0138,0.0*
20,1,0.0,-.0138,0.0,-.01359,.002396,0.0*
1,1,0.0,-.01359,.002396*
20,1,0.0,-.01359,.002396,-.012968,.00472,0.0*
1,1,0.0,-.012968,.00472*
20,1,0.0,-.012968,.00472,-.011951,.0069,0.0*
1,1,0.0,-.011951,.0069*
20,1,0.0,-.011951,.0069,-.010571,.00887,0.0*
1,1,0.0,-.010571,.00887*
20,1,0.0,-.010571,.00887,-.00887,.010571,0.0*
1,1,0.0,-.00887,.010571*
20,1,0.0,-.00887,.010571,-.0069,.011951,0.0*
1,1,0.0,-.0069,.011951*
20,1,0.0,-.0069,.011951,-.00472,.012968,0.0*
1,1,0.0,-.00472,.012968*
20,1,0.0,-.00472,.012968,-.002396,.01359,0.0*
1,1,0.0,-.002396,.01359*
20,1,0.0,-.002396,.01359,0.0,.0138,0.0*
1,1,0.0,0.0,.0138*
20,1,0.0,0.0,.0138,.002396,.01359,0.0*
1,1,0.0,.002396,.01359*
20,1,0.0,.002396,.01359,.00472,.012968,0.0*
1,1,0.0,.00472,.012968*
20,1,0.0,.00472,.012968,.0069,.011951,0.0*
1,1,0.0,.0069,.011951*
20,1,0.0,.0069,.011951,.00887,.010571,0.0*
1,1,0.0,.00887,.010571*
20,1,0.0,.00887,.010571,.010571,.00887,0.0*
1,1,0.0,.010571,.00887*
20,1,0.0,.010571,.00887,.011951,.0069,0.0*
1,1,0.0,.011951,.0069*
20,1,0.0,.011951,.0069,.012968,.00472,0.0*
1,1,0.0,.012968,.00472*
20,1,0.0,.012968,.00472,.01359,.002396,0.0*
1,1,0.0,.01359,.002396*
20,1,0.0,.01359,.002396,.0138,0.0,0.0*
1,1,0.0,.0138,0.0*
%
%ADD23MACRO23*%
%AMMACRO15*
1,1,0.0,.02955,0.0*
20,1,0.0,.02955,0.0,.029101,-.005131,0.0*
1,1,0.0,.029101,-.005131*
20,1,0.0,.029101,-.005131,.027768,-.010107,0.0*
1,1,0.0,.027768,-.010107*
20,1,0.0,.027768,-.010107,.025591,-.014775,0.0*
1,1,0.0,.025591,-.014775*
20,1,0.0,.025591,-.014775,.022637,-.018994,0.0*
1,1,0.0,.022637,-.018994*
20,1,0.0,.022637,-.018994,.018994,-.022637,0.0*
1,1,0.0,.018994,-.022637*
20,1,0.0,.018994,-.022637,.014775,-.025591,0.0*
1,1,0.0,.014775,-.025591*
20,1,0.0,.014775,-.025591,.010107,-.027768,0.0*
1,1,0.0,.010107,-.027768*
20,1,0.0,.010107,-.027768,.005131,-.029101,0.0*
1,1,0.0,.005131,-.029101*
20,1,0.0,.005131,-.029101,0.0,-.02955,0.0*
1,1,0.0,0.0,-.02955*
20,1,0.0,0.0,-.02955,-.005131,-.029101,0.0*
1,1,0.0,-.005131,-.029101*
20,1,0.0,-.005131,-.029101,-.010107,-.027768,0.0*
1,1,0.0,-.010107,-.027768*
20,1,0.0,-.010107,-.027768,-.014775,-.025591,0.0*
1,1,0.0,-.014775,-.025591*
20,1,0.0,-.014775,-.025591,-.018994,-.022637,0.0*
1,1,0.0,-.018994,-.022637*
20,1,0.0,-.018994,-.022637,-.022637,-.018994,0.0*
1,1,0.0,-.022637,-.018994*
20,1,0.0,-.022637,-.018994,-.025591,-.014775,0.0*
1,1,0.0,-.025591,-.014775*
20,1,0.0,-.025591,-.014775,-.027768,-.010107,0.0*
1,1,0.0,-.027768,-.010107*
20,1,0.0,-.027768,-.010107,-.029101,-.005131,0.0*
1,1,0.0,-.029101,-.005131*
20,1,0.0,-.029101,-.005131,-.02955,0.0,0.0*
1,1,0.0,-.02955,0.0*
20,1,0.0,-.02955,0.0,-.029101,.005131,0.0*
1,1,0.0,-.029101,.005131*
20,1,0.0,-.029101,.005131,-.027768,.010107,0.0*
1,1,0.0,-.027768,.010107*
20,1,0.0,-.027768,.010107,-.025591,.014775,0.0*
1,1,0.0,-.025591,.014775*
20,1,0.0,-.025591,.014775,-.022637,.018994,0.0*
1,1,0.0,-.022637,.018994*
20,1,0.0,-.022637,.018994,-.018994,.022637,0.0*
1,1,0.0,-.018994,.022637*
20,1,0.0,-.018994,.022637,-.014775,.025591,0.0*
1,1,0.0,-.014775,.025591*
20,1,0.0,-.014775,.025591,-.010107,.027768,0.0*
1,1,0.0,-.010107,.027768*
20,1,0.0,-.010107,.027768,-.005131,.029101,0.0*
1,1,0.0,-.005131,.029101*
20,1,0.0,-.005131,.029101,0.0,.02955,0.0*
1,1,0.0,0.0,.02955*
20,1,0.0,0.0,.02955,.005131,.029101,0.0*
1,1,0.0,.005131,.029101*
20,1,0.0,.005131,.029101,.010107,.027768,0.0*
1,1,0.0,.010107,.027768*
20,1,0.0,.010107,.027768,.014775,.025591,0.0*
1,1,0.0,.014775,.025591*
20,1,0.0,.014775,.025591,.018994,.022637,0.0*
1,1,0.0,.018994,.022637*
20,1,0.0,.018994,.022637,.022637,.018994,0.0*
1,1,0.0,.022637,.018994*
20,1,0.0,.022637,.018994,.025591,.014775,0.0*
1,1,0.0,.025591,.014775*
20,1,0.0,.025591,.014775,.027768,.010107,0.0*
1,1,0.0,.027768,.010107*
20,1,0.0,.027768,.010107,.029101,.005131,0.0*
1,1,0.0,.029101,.005131*
20,1,0.0,.029101,.005131,.02955,0.0,0.0*
1,1,0.0,.02955,0.0*
%
%ADD15MACRO15*%
%AMMACRO11*
1,1,0.0,.0197,0.0*
20,1,0.0,.0197,0.0,.019401,-.003421,0.0*
1,1,0.0,.019401,-.003421*
20,1,0.0,.019401,-.003421,.018512,-.006738,0.0*
1,1,0.0,.018512,-.006738*
20,1,0.0,.018512,-.006738,.017061,-.00985,0.0*
1,1,0.0,.017061,-.00985*
20,1,0.0,.017061,-.00985,.015091,-.012663,0.0*
1,1,0.0,.015091,-.012663*
20,1,0.0,.015091,-.012663,.012663,-.015091,0.0*
1,1,0.0,.012663,-.015091*
20,1,0.0,.012663,-.015091,.00985,-.017061,0.0*
1,1,0.0,.00985,-.017061*
20,1,0.0,.00985,-.017061,.006738,-.018512,0.0*
1,1,0.0,.006738,-.018512*
20,1,0.0,.006738,-.018512,.003421,-.019401,0.0*
1,1,0.0,.003421,-.019401*
20,1,0.0,.003421,-.019401,0.0,-.0197,0.0*
1,1,0.0,0.0,-.0197*
20,1,0.0,0.0,-.0197,-.003421,-.019401,0.0*
1,1,0.0,-.003421,-.019401*
20,1,0.0,-.003421,-.019401,-.006738,-.018512,0.0*
1,1,0.0,-.006738,-.018512*
20,1,0.0,-.006738,-.018512,-.00985,-.017061,0.0*
1,1,0.0,-.00985,-.017061*
20,1,0.0,-.00985,-.017061,-.012663,-.015091,0.0*
1,1,0.0,-.012663,-.015091*
20,1,0.0,-.012663,-.015091,-.015091,-.012663,0.0*
1,1,0.0,-.015091,-.012663*
20,1,0.0,-.015091,-.012663,-.017061,-.00985,0.0*
1,1,0.0,-.017061,-.00985*
20,1,0.0,-.017061,-.00985,-.018512,-.006738,0.0*
1,1,0.0,-.018512,-.006738*
20,1,0.0,-.018512,-.006738,-.019401,-.003421,0.0*
1,1,0.0,-.019401,-.003421*
20,1,0.0,-.019401,-.003421,-.0197,0.0,0.0*
1,1,0.0,-.0197,0.0*
20,1,0.0,-.0197,0.0,-.019401,.003421,0.0*
1,1,0.0,-.019401,.003421*
20,1,0.0,-.019401,.003421,-.018512,.006738,0.0*
1,1,0.0,-.018512,.006738*
20,1,0.0,-.018512,.006738,-.017061,.00985,0.0*
1,1,0.0,-.017061,.00985*
20,1,0.0,-.017061,.00985,-.015091,.012663,0.0*
1,1,0.0,-.015091,.012663*
20,1,0.0,-.015091,.012663,-.012663,.015091,0.0*
1,1,0.0,-.012663,.015091*
20,1,0.0,-.012663,.015091,-.00985,.017061,0.0*
1,1,0.0,-.00985,.017061*
20,1,0.0,-.00985,.017061,-.006738,.018512,0.0*
1,1,0.0,-.006738,.018512*
20,1,0.0,-.006738,.018512,-.003421,.019401,0.0*
1,1,0.0,-.003421,.019401*
20,1,0.0,-.003421,.019401,0.0,.0197,0.0*
1,1,0.0,0.0,.0197*
20,1,0.0,0.0,.0197,.003421,.019401,0.0*
1,1,0.0,.003421,.019401*
20,1,0.0,.003421,.019401,.006738,.018512,0.0*
1,1,0.0,.006738,.018512*
20,1,0.0,.006738,.018512,.00985,.017061,0.0*
1,1,0.0,.00985,.017061*
20,1,0.0,.00985,.017061,.012663,.015091,0.0*
1,1,0.0,.012663,.015091*
20,1,0.0,.012663,.015091,.015091,.012663,0.0*
1,1,0.0,.015091,.012663*
20,1,0.0,.015091,.012663,.017061,.00985,0.0*
1,1,0.0,.017061,.00985*
20,1,0.0,.017061,.00985,.018512,.006738,0.0*
1,1,0.0,.018512,.006738*
20,1,0.0,.018512,.006738,.019401,.003421,0.0*
1,1,0.0,.019401,.003421*
20,1,0.0,.019401,.003421,.0197,0.0,0.0*
1,1,0.0,.0197,0.0*
%
%ADD11MACRO11*%
%AMMACRO17*
1,1,0.0,.09845,0.0*
20,1,0.0,.09845,0.0,.096954,-.017096,0.0*
1,1,0.0,.096954,-.017096*
20,1,0.0,.096954,-.017096,.092513,-.033672,0.0*
1,1,0.0,.092513,-.033672*
20,1,0.0,.092513,-.033672,.08526,-.049225,0.0*
1,1,0.0,.08526,-.049225*
20,1,0.0,.08526,-.049225,.075417,-.063282,0.0*
1,1,0.0,.075417,-.063282*
20,1,0.0,.075417,-.063282,.063282,-.075417,0.0*
1,1,0.0,.063282,-.075417*
20,1,0.0,.063282,-.075417,.049225,-.08526,0.0*
1,1,0.0,.049225,-.08526*
20,1,0.0,.049225,-.08526,.033672,-.092513,0.0*
1,1,0.0,.033672,-.092513*
20,1,0.0,.033672,-.092513,.017096,-.096954,0.0*
1,1,0.0,.017096,-.096954*
20,1,0.0,.017096,-.096954,0.0,-.09845,0.0*
1,1,0.0,0.0,-.09845*
20,1,0.0,0.0,-.09845,-.017096,-.096954,0.0*
1,1,0.0,-.017096,-.096954*
20,1,0.0,-.017096,-.096954,-.033672,-.092513,0.0*
1,1,0.0,-.033672,-.092513*
20,1,0.0,-.033672,-.092513,-.049225,-.08526,0.0*
1,1,0.0,-.049225,-.08526*
20,1,0.0,-.049225,-.08526,-.063282,-.075417,0.0*
1,1,0.0,-.063282,-.075417*
20,1,0.0,-.063282,-.075417,-.075417,-.063282,0.0*
1,1,0.0,-.075417,-.063282*
20,1,0.0,-.075417,-.063282,-.08526,-.049225,0.0*
1,1,0.0,-.08526,-.049225*
20,1,0.0,-.08526,-.049225,-.092513,-.033672,0.0*
1,1,0.0,-.092513,-.033672*
20,1,0.0,-.092513,-.033672,-.096954,-.017096,0.0*
1,1,0.0,-.096954,-.017096*
20,1,0.0,-.096954,-.017096,-.09845,0.0,0.0*
1,1,0.0,-.09845,0.0*
20,1,0.0,-.09845,0.0,-.096954,.017096,0.0*
1,1,0.0,-.096954,.017096*
20,1,0.0,-.096954,.017096,-.092513,.033672,0.0*
1,1,0.0,-.092513,.033672*
20,1,0.0,-.092513,.033672,-.08526,.049225,0.0*
1,1,0.0,-.08526,.049225*
20,1,0.0,-.08526,.049225,-.075417,.063282,0.0*
1,1,0.0,-.075417,.063282*
20,1,0.0,-.075417,.063282,-.063282,.075417,0.0*
1,1,0.0,-.063282,.075417*
20,1,0.0,-.063282,.075417,-.049225,.08526,0.0*
1,1,0.0,-.049225,.08526*
20,1,0.0,-.049225,.08526,-.033672,.092513,0.0*
1,1,0.0,-.033672,.092513*
20,1,0.0,-.033672,.092513,-.017096,.096954,0.0*
1,1,0.0,-.017096,.096954*
20,1,0.0,-.017096,.096954,0.0,.09845,0.0*
1,1,0.0,0.0,.09845*
20,1,0.0,0.0,.09845,.017096,.096954,0.0*
1,1,0.0,.017096,.096954*
20,1,0.0,.017096,.096954,.033672,.092513,0.0*
1,1,0.0,.033672,.092513*
20,1,0.0,.033672,.092513,.049225,.08526,0.0*
1,1,0.0,.049225,.08526*
20,1,0.0,.049225,.08526,.063282,.075417,0.0*
1,1,0.0,.063282,.075417*
20,1,0.0,.063282,.075417,.075417,.063282,0.0*
1,1,0.0,.075417,.063282*
20,1,0.0,.075417,.063282,.08526,.049225,0.0*
1,1,0.0,.08526,.049225*
20,1,0.0,.08526,.049225,.092513,.033672,0.0*
1,1,0.0,.092513,.033672*
20,1,0.0,.092513,.033672,.096954,.017096,0.0*
1,1,0.0,.096954,.017096*
20,1,0.0,.096954,.017096,.09845,0.0,0.0*
1,1,0.0,.09845,0.0*
%
%ADD17MACRO17*%
%ADD37O,.063X.0157*%
%ADD40O,.024X.0854*%
%AMMACRO19*
1,1,0.0,-.0138,-.0078*
20,1,0.0,-.0138,-.0078,-.0138,.0078,0.0*
1,1,0.0,-.0138,.0078*
20,1,0.0,-.0138,.0078,-.01359,.010196,0.0*
1,1,0.0,-.01359,.010196*
20,1,0.0,-.01359,.010196,-.012968,.01252,0.0*
1,1,0.0,-.012968,.01252*
20,1,0.0,-.012968,.01252,-.011951,.0147,0.0*
1,1,0.0,-.011951,.0147*
20,1,0.0,-.011951,.0147,-.010571,.01667,0.0*
1,1,0.0,-.010571,.01667*
20,1,0.0,-.010571,.01667,-.00887,.018371,0.0*
1,1,0.0,-.00887,.018371*
20,1,0.0,-.00887,.018371,-.0069,.019751,0.0*
1,1,0.0,-.0069,.019751*
20,1,0.0,-.0069,.019751,-.00472,.020768,0.0*
1,1,0.0,-.00472,.020768*
20,1,0.0,-.00472,.020768,-.002396,.02139,0.0*
1,1,0.0,-.002396,.02139*
20,1,0.0,-.002396,.02139,0.0,.0216,0.0*
1,1,0.0,0.0,.0216*
20,1,0.0,0.0,.0216,.002396,.02139,0.0*
1,1,0.0,.002396,.02139*
20,1,0.0,.002396,.02139,.00472,.020768,0.0*
1,1,0.0,.00472,.020768*
20,1,0.0,.00472,.020768,.0069,.019751,0.0*
1,1,0.0,.0069,.019751*
20,1,0.0,.0069,.019751,.00887,.018371,0.0*
1,1,0.0,.00887,.018371*
20,1,0.0,.00887,.018371,.010571,.01667,0.0*
1,1,0.0,.010571,.01667*
20,1,0.0,.010571,.01667,.011951,.0147,0.0*
1,1,0.0,.011951,.0147*
20,1,0.0,.011951,.0147,.012968,.01252,0.0*
1,1,0.0,.012968,.01252*
20,1,0.0,.012968,.01252,.01359,.010196,0.0*
1,1,0.0,.01359,.010196*
20,1,0.0,.01359,.010196,.0138,.0078,0.0*
1,1,0.0,.0138,.0078*
20,1,0.0,.0138,.0078,.0138,-.0078,0.0*
1,1,0.0,.0138,-.0078*
20,1,0.0,.0138,-.0078,.01359,-.010196,0.0*
1,1,0.0,.01359,-.010196*
20,1,0.0,.01359,-.010196,.012968,-.01252,0.0*
1,1,0.0,.012968,-.01252*
20,1,0.0,.012968,-.01252,.011951,-.0147,0.0*
1,1,0.0,.011951,-.0147*
20,1,0.0,.011951,-.0147,.010571,-.01667,0.0*
1,1,0.0,.010571,-.01667*
20,1,0.0,.010571,-.01667,.00887,-.018371,0.0*
1,1,0.0,.00887,-.018371*
20,1,0.0,.00887,-.018371,.0069,-.019751,0.0*
1,1,0.0,.0069,-.019751*
20,1,0.0,.0069,-.019751,.00472,-.020768,0.0*
1,1,0.0,.00472,-.020768*
20,1,0.0,.00472,-.020768,.002396,-.02139,0.0*
1,1,0.0,.002396,-.02139*
20,1,0.0,.002396,-.02139,0.0,-.0216,0.0*
1,1,0.0,0.0,-.0216*
20,1,0.0,0.0,-.0216,-.002396,-.02139,0.0*
1,1,0.0,-.002396,-.02139*
20,1,0.0,-.002396,-.02139,-.00472,-.020768,0.0*
1,1,0.0,-.00472,-.020768*
20,1,0.0,-.00472,-.020768,-.0069,-.019751,0.0*
1,1,0.0,-.0069,-.019751*
20,1,0.0,-.0069,-.019751,-.00887,-.018371,0.0*
1,1,0.0,-.00887,-.018371*
20,1,0.0,-.00887,-.018371,-.010571,-.01667,0.0*
1,1,0.0,-.010571,-.01667*
20,1,0.0,-.010571,-.01667,-.011951,-.0147,0.0*
1,1,0.0,-.011951,-.0147*
20,1,0.0,-.011951,-.0147,-.012968,-.01252,0.0*
1,1,0.0,-.012968,-.01252*
20,1,0.0,-.012968,-.01252,-.01359,-.010196,0.0*
1,1,0.0,-.01359,-.010196*
20,1,0.0,-.01359,-.010196,-.0138,-.0078,0.0*
1,1,0.0,-.0138,-.0078*
1,1,0.0,-.0069,-.0055*
20,1,0.0,-.0069,-.0055,-.0069,-.0069,0.0*
1,1,0.0,-.0069,-.0069*
20,1,0.0,-.0069,-.0069,-.0046,-.0092,0.0*
1,1,0.0,-.0046,-.0092*
20,1,0.0,-.0046,-.0092,.0046,-.0092,0.0*
1,1,0.0,.0046,-.0092*
20,1,0.0,.0046,-.0092,.0069,-.0069,0.0*
1,1,0.0,.0069,-.0069*
20,1,0.0,.0069,-.0069,.0069,-.0046,0.0*
1,1,0.0,.0069,-.0046*
20,1,0.0,.0069,-.0046,.0046,-.0023,0.0*
1,1,0.0,.0046,-.0023*
20,1,0.0,.0046,-.0023,-.0046,-.0023,0.0*
1,1,0.0,-.0046,-.0023*
20,1,0.0,-.0046,-.0023,-.0069,0.0,0.0*
1,1,0.0,-.0069,0.0*
20,1,0.0,-.0069,0.0,-.0069,.0023,0.0*
1,1,0.0,-.0069,.0023*
20,1,0.0,-.0069,.0023,-.0046,.0046,0.0*
1,1,0.0,-.0046,.0046*
20,1,0.0,-.0046,.0046,.0046,.0046,0.0*
1,1,0.0,.0046,.0046*
20,1,0.0,.0046,.0046,.0069,.0023,0.0*
1,1,0.0,.0069,.0023*
20,1,0.0,.0069,.0023,.0069,.0009,0.0*
1,1,0.0,.0069,.0009*
1,1,0.0,.0023,.0069*
20,1,0.0,.0023,.0069,.0023,-.0115,0.0*
1,1,0.0,.0023,-.0115*
1,1,0.0,-.0023,-.0115*
20,1,0.0,-.0023,-.0115,-.0023,.0069,0.0*
1,1,0.0,-.0023,.0069*
%
%ADD19MACRO19*%
%ADD18O,.0433X.0591*%
%ADD36R,.0591X.0315*%
%ADD10C,.0591*%
%ADD32R,.0315X.0591*%
%ADD25R,.0157X.0551*%
%ADD22C,.0197*%
%ADD28C,.0846*%
%ADD27R,.0374X.0394*%
%ADD26C,.0669*%
%ADD14C,.0984*%
%ADD34R,.0394X.0374*%
%ADD33R,.0591X.0591*%
%ADD30C,.0787*%
%ADD20R,.0669X.0669*%
%ADD35R,.0787X.0787*%
%AMMACRO38*
4,1,40,-.0087,-.0374,
.0087,-.0374,
.009383,-.037334,
.010044,-.03715,
.010664,-.036854,
.011222,-.036455,
.011703,-.035965,
.012091,-.0354,
.012375,-.034775,
.012547,-.03411,
.0126,-.0335,
.0126,.0335,
.012534,.034183,
.01235,.034844,
.012054,.035464,
.011655,.036022,
.011165,.036503,
.0106,.036891,
.009975,.037175,
.00931,.037347,
.0087,.0374,
-.0087,.0374,
-.009383,.037334,
-.010044,.03715,
-.010664,.036854,
-.011222,.036455,
-.011703,.035965,
-.012091,.0354,
-.012375,.034775,
-.012547,.03411,
-.0126,.0335,
-.0126,-.0335,
-.012534,-.034183,
-.01235,-.034844,
-.012054,-.035464,
-.011655,-.036022,
-.011165,-.036503,
-.0106,-.036891,
-.009975,-.037175,
-.00931,-.037347,
-.0087,-.0374,
0.0*
%
%ADD38MACRO38*%
%LPD*%
G75*
G54D10*
X-181100Y-67130D03*
Y-49410D03*
Y-28150D03*
Y-10430D03*
Y10830D03*
Y28550D03*
Y49800D03*
Y67520D03*
Y113190D03*
Y130910D03*
X-91460Y116140D03*
X-60750D03*
X-30040D03*
X670D03*
X31380D03*
X62090D03*
X92800D03*
G54D20*
X-156700Y-111000D03*
Y-100800D03*
X-131100Y133300D03*
X-32400Y134100D03*
X91020Y1260D03*
X101020D03*
X141990Y124610D03*
X151020Y1260D03*
X171020D03*
G54D11*
X-181100Y-67130D03*
Y-49410D03*
Y-28150D03*
Y-10430D03*
Y10830D03*
Y28550D03*
Y49800D03*
Y67520D03*
Y113190D03*
Y130910D03*
X239660Y65810D03*
G54D30*
X-114170Y-125590D03*
X-94490D03*
X-55120D03*
X-35440D03*
X3940D03*
X23620D03*
X62990D03*
X82670D03*
X122040D03*
G54D21*
X-156700Y-111000D03*
Y-100800D03*
X-146700Y-111000D03*
Y-100800D03*
X-131100Y133300D03*
X-121100D03*
X-111100D03*
X-101100D03*
X-32400Y134100D03*
X-22400D03*
X-12400D03*
X-2400D03*
X7600D03*
X91020Y1260D03*
X101020D03*
X141990Y124610D03*
X151020Y1260D03*
X151990Y124610D03*
X161990D03*
X171020Y1260D03*
X239660Y95340D03*
G54D12*
X-167320Y-85830D03*
X167320D03*
G54D22*
X-154010Y-126690D03*
X-138270D03*
G54D40*
X11520Y10810D03*
Y29390D03*
X16480Y10810D03*
Y29390D03*
X16520Y49010D03*
Y67590D03*
X21520Y10810D03*
Y29390D03*
X21480Y49010D03*
Y67590D03*
X26480Y10810D03*
Y29390D03*
X26520Y49010D03*
Y67590D03*
X31520Y10810D03*
Y29390D03*
X31480Y49010D03*
Y67590D03*
X36480Y10810D03*
Y29390D03*
X36520Y49010D03*
Y67590D03*
X41520Y10810D03*
Y29390D03*
X41480Y49010D03*
Y67590D03*
X46480Y10810D03*
Y29390D03*
X46520Y49010D03*
Y67590D03*
X51480Y49010D03*
Y67590D03*
G54D31*
X-114170Y-125590D03*
X-94490D03*
X-74800D03*
X-55120D03*
X-35440D03*
X-15750D03*
X3940D03*
X23620D03*
X43310D03*
X62990D03*
X82670D03*
X102360D03*
X122040D03*
X141730D03*
X239660Y36270D03*
G54D13*
X-167320Y-85830D03*
X167320D03*
X239660Y-81870D03*
G54D14*
X-171260Y-72050D03*
Y-44490D03*
Y-33070D03*
Y-5510D03*
Y5910D03*
Y33470D03*
Y44880D03*
Y72440D03*
Y108270D03*
Y135830D03*
G54D32*
X-106300Y19010D03*
Y71020D03*
X-101300Y19010D03*
Y71020D03*
X-96300Y19010D03*
Y71020D03*
X-91300Y19010D03*
Y71020D03*
X-86300Y19010D03*
Y71020D03*
X-81300Y19010D03*
Y71020D03*
X-76300Y19010D03*
Y71020D03*
X-71300Y19010D03*
Y71020D03*
G54D23*
X-154010Y-126690D03*
X-138270D03*
X-101460Y116140D03*
X-91460D03*
X-70750D03*
X-60750D03*
X-40040D03*
X-30040D03*
X-9330D03*
X670D03*
X21380D03*
X31380D03*
X52090D03*
X62090D03*
X82800D03*
X92800D03*
X239660Y-52330D03*
Y124880D03*
G54D33*
X-101460Y116140D03*
X-70750D03*
X-40040D03*
X-9330D03*
X21380D03*
X52090D03*
X82800D03*
G54D15*
X-171260Y-72050D03*
Y-44490D03*
Y-33070D03*
Y-5510D03*
Y5910D03*
Y33470D03*
Y44880D03*
Y72440D03*
Y108270D03*
Y135830D03*
X239660Y-22800D03*
G54D24*
X-151260Y-117940D03*
X-152500Y-88400D03*
X-143900Y2400D03*
X-136540Y-123460D03*
X-139000Y-2400D03*
X-124900Y66600D03*
X-125000Y78600D03*
X-124900Y90600D03*
Y102000D03*
Y113100D03*
X-96100Y77000D03*
X-90600Y62700D03*
X-91300Y77300D03*
X-86400Y96200D03*
X-81300Y29600D03*
X-71400Y23600D03*
X-63000Y37400D03*
Y60900D03*
X-64900Y74800D03*
X-58050Y62450D03*
X-60000Y68700D03*
X-54120Y77380D03*
X-43200Y28600D03*
X-43300Y33000D03*
X-43800Y41950D03*
X-37700Y67300D03*
X-30500Y69700D03*
X-16200Y77000D03*
X-11200Y8300D03*
X-14000Y87300D03*
X3030Y67330D03*
Y90170D03*
X12330Y92730D03*
X16850Y41950D03*
X16520Y75520D03*
X21600Y39600D03*
X21550Y62450D03*
X26500Y37700D03*
X46580Y75520D03*
X103400Y75700D03*
X239660Y154410D03*
G54D34*
X-96400Y3650D03*
Y9950D03*
X-86300Y3950D03*
Y10250D03*
X-41200Y50350D03*
Y56650D03*
X-32700Y50250D03*
Y56550D03*
X-24200Y50250D03*
Y56550D03*
X-16000Y50150D03*
Y56450D03*
X-11700Y23550D03*
Y29850D03*
X-7800Y50150D03*
Y56450D03*
X-3200Y23550D03*
Y29850D03*
X600Y50150D03*
Y56450D03*
X47900Y83750D03*
Y90050D03*
X59600Y84050D03*
Y90350D03*
X69600Y84050D03*
Y90350D03*
X79600Y84050D03*
Y90350D03*
X89600Y84050D03*
Y90350D03*
G54D25*
X-148700Y-123460D03*
X-151260D03*
X-143580D03*
X-146140D03*
X-141020D03*
G54D16*
X-167320Y92130D03*
X167320D03*
G54D35*
X-74800Y-125590D03*
X-15750D03*
X43310D03*
X102360D03*
X141730D03*
G54D26*
X-146700Y-111000D03*
Y-100800D03*
X-121100Y133300D03*
X-111100D03*
X-101100D03*
X-22400Y134100D03*
X-12400D03*
X-2400D03*
X7600D03*
X151990Y124610D03*
X161990D03*
G54D17*
X-167320Y92130D03*
X167320D03*
X239660Y-111400D03*
G54D27*
X-137450Y54400D03*
X-137650Y66600D03*
X-137350Y78500D03*
Y90400D03*
X-137450Y101800D03*
X-137550Y113400D03*
X-131150Y54400D03*
X-131350Y66600D03*
X-131050Y78500D03*
Y90400D03*
X-131150Y101800D03*
X-131250Y113400D03*
X-92550Y102100D03*
X-86250D03*
X-60750Y102500D03*
X-58550Y22500D03*
X-58750Y32400D03*
X-57950Y47800D03*
X-58050Y57100D03*
X-52250Y22500D03*
X-52450Y32400D03*
X-51650Y47800D03*
X-51750Y57100D03*
X-54450Y102500D03*
X-36650Y103400D03*
X-30350D03*
X-10950Y67100D03*
Y74800D03*
X-4650Y67100D03*
Y74800D03*
G54D36*
X-67800Y27520D03*
Y32520D03*
Y37520D03*
Y42520D03*
Y47520D03*
Y52520D03*
Y57520D03*
Y62520D03*
G54D18*
X-160230Y-135070D03*
Y-121490D03*
X-132050Y-135070D03*
Y-121490D03*
G54D28*
X-125990Y-81100D03*
Y-33070D03*
X-102360Y-25200D03*
X-78740Y-81100D03*
Y-33070D03*
X-59060Y-81100D03*
Y-33070D03*
X-35430Y-25200D03*
X-11810Y-81100D03*
Y-33070D03*
X7870Y-81100D03*
Y-33070D03*
X31500Y-25200D03*
X55120Y-81100D03*
Y-33070D03*
X74800Y-81100D03*
Y-33070D03*
X98430Y-25200D03*
X122050Y-81100D03*
Y-33070D03*
G54D19*
X-160230Y-135070D03*
Y-121490D03*
X-132050Y-135070D03*
Y-121490D03*
X239660Y-140940D03*
G54D37*
X-44840Y69700D03*
Y72260D03*
Y74820D03*
Y77380D03*
Y79940D03*
Y82500D03*
Y85060D03*
Y87610D03*
Y90170D03*
Y92730D03*
X-22000Y72260D03*
Y69700D03*
Y77380D03*
Y74820D03*
Y79940D03*
Y85060D03*
Y82500D03*
Y90170D03*
Y87610D03*
Y92730D03*
G54D38*
X-36710Y22400D03*
X-30800D03*
X-24890D03*
G54D29*
X-125990Y-81100D03*
Y-33070D03*
X-102360Y-25200D03*
X-78740Y-81100D03*
Y-33070D03*
X-59060Y-81100D03*
Y-33070D03*
X-35430Y-25200D03*
X-11810Y-81100D03*
Y-33070D03*
X7870Y-81100D03*
Y-33070D03*
X31500Y-25200D03*
X55120Y-81100D03*
Y-33070D03*
X74800Y-81100D03*
Y-33070D03*
X98430Y-25200D03*
X122050Y-81100D03*
Y-33070D03*
X239660Y6740D03*
G54D39*
X-30800Y34400D03*
M02*
