G04 ================== begin FILE IDENTIFICATION RECORD ==================*
G04 Layout Name:  E:/san4chV2/sanT4ch_finish/Board/sanT_4ch.brd*
G04 Film Name:    outline*
G04 File Format:  Gerber RS274X*
G04 File Origin:  Cadence Allegro 16.5-P002*
G04 Origin Date:  Fri Jul 07 03:44:50 2017*
G04 *
G04 Layer:  BOARD GEOMETRY/OUTLINE*
G04 *
G04 Offset:    (0.0 0.0)*
G04 Mirror:    No*
G04 Mode:      Positive*
G04 Rotation:  0*
G04 FullContactRelief:  No*
G04 UndefLineWidth:     1.0*
G04 ================== end FILE IDENTIFICATION RECORD ====================*
%FSLAX35Y35*MOIN*%
%IR0*IPPOS*OFA0.00000B0.00000*MIA0B0*SFA1.00000B1.00000*%
%ADD10C,.001*%
G75*
%LPD*%
G75*
G54D10*
G01X-177170Y141340D02*
X177170D01*
G02X185040Y133460I-5J-7875D01*
G01Y-129530D01*
G02X173230Y-141340I-11812J2D01*
G01X-173230D01*
G02X-185040Y-129530I2J11812D01*
G01Y133460D01*
G02X-177170Y141340I7875J5D01*
G01X-132280Y-81380D02*
Y-100630D01*
X-120830Y-112090D01*
Y-131690D01*
X-127560D01*
X-127800Y-131460D01*
Y-115280D01*
X-137360Y-105710D01*
Y-81730D01*
X-136650Y-81020D01*
X-132640D01*
X-132280Y-81380D01*
G01X-125100Y13900D02*
Y48500D01*
X-111000D01*
Y13900D01*
X-125100D01*
G01X-120080Y-35430D02*
X-110240D01*
Y-21650D01*
X-108270Y-19690D01*
X-96460D01*
X-94490Y-21650D01*
Y-35430D01*
X-84650D01*
Y-17720D01*
X-88580Y-13780D01*
X-116140D01*
X-120080Y-17720D01*
Y-35430D01*
G01X-109250Y-128030D02*
Y-100280D01*
X-99690D01*
Y-128030D01*
X-109250D01*
G01X-89530Y-128270D02*
Y-100040D01*
X-79960D01*
Y-128270D01*
X-89530D01*
G01X-69920Y-128390D02*
Y-100040D01*
X-60000D01*
Y-128390D01*
X-69920D01*
G01X-53150Y-35430D02*
X-43310D01*
Y-21650D01*
X-41340Y-19690D01*
X-29530D01*
X-27560Y-21650D01*
Y-35430D01*
X-17720D01*
Y-17720D01*
X-21650Y-13780D01*
X-49210D01*
X-53150Y-17720D01*
Y-35430D01*
G01X-50550Y-128740D02*
Y-100040D01*
X-40040D01*
Y-128740D01*
X-50550D01*
G01X-30830Y-128980D02*
Y-99690D01*
X-20430D01*
Y-128980D01*
X-30830D01*
G01X-11100Y-129570D02*
Y-99210D01*
X-710D01*
Y-129570D01*
X-11100D01*
G01X8740Y-129330D02*
Y-99450D01*
X19020D01*
Y-129330D01*
X8740D01*
G01X13780Y-35430D02*
X23620D01*
Y-21650D01*
X25590Y-19690D01*
X37400D01*
X39370Y-21650D01*
Y-35430D01*
X49210D01*
Y-17720D01*
X45280Y-13780D01*
X17720D01*
X13780Y-17720D01*
Y-35430D01*
G01X28460Y-129570D02*
Y-99210D01*
X38150D01*
Y-129570D01*
X28460D01*
G01X48190Y-129690D02*
Y-98620D01*
X58110D01*
Y-129690D01*
X48190D01*
G01X67560Y-129920D02*
Y-98390D01*
X77950D01*
Y-129920D01*
X67560D01*
G01X80710Y-35430D02*
X90550D01*
Y-21650D01*
X92520Y-19690D01*
X104330D01*
X106300Y-21650D01*
Y-35430D01*
X116140D01*
Y-17720D01*
X112200Y-13780D01*
X84650D01*
X80710Y-17720D01*
Y-35430D01*
G01X87640Y-129800D02*
Y-98150D01*
X97440D01*
Y-129800D01*
X87640D01*
G01X107500Y-129500D02*
Y-104500D01*
X132000Y-80000D01*
X141500Y-89500D01*
Y-89900D01*
X117400Y-114000D01*
Y-129200D01*
X117100Y-129500D01*
X107500D01*
M02*
