G04 ================== begin FILE IDENTIFICATION RECORD ==================*
G04 Layout Name:  E:/san4chV2/sanT4ch_finish/Board/sanT_4ch.brd*
G04 Film Name:    pmt*
G04 File Format:  Gerber RS274X*
G04 File Origin:  Cadence Allegro 16.5-P002*
G04 Origin Date:  Fri Jul 07 17:44:03 2017*
G04 *
G04 Layer:  VIA CLASS/PASTEMASK_TOP*
G04 Layer:  PIN/PASTEMASK_TOP*
G04 Layer:  PACKAGE GEOMETRY/PASTEMASK_TOP*
G04 Layer:  BOARD GEOMETRY/OUTLINE*
G04 *
G04 Offset:    (0.0 0.0)*
G04 Mirror:    No*
G04 Mode:      Positive*
G04 Rotation:  0*
G04 FullContactRelief:  No*
G04 UndefLineWidth:     6.0*
G04 ================== end FILE IDENTIFICATION RECORD ====================*
%FSLAX35Y35*MOIN*%
%IR0*IPPOS*OFA0.00000B0.00000*MIA0B0*SFA1.00000B1.00000*%
%AMMACRO17*
4,1,40,-.0339,-.0374,
.0339,-.0374,
.034583,-.037334,
.035245,-.03715,
.035864,-.036853,
.036422,-.036454,
.036903,-.035964,
.037291,-.035398,
.037576,-.034773,
.037747,-.034108,
.0378,-.0335,
.0378,.0335,
.037734,.034183,
.03755,.034845,
.037253,.035464,
.036854,.036022,
.036364,.036503,
.035798,.036891,
.035173,.037176,
.034508,.037347,
.0339,.0374,
-.0339,.0374,
-.034583,.037334,
-.035245,.03715,
-.035864,.036853,
-.036422,.036454,
-.036903,.035964,
-.037291,.035398,
-.037576,.034773,
-.037747,.034108,
-.0378,.0335,
-.0378,-.0335,
-.037734,-.034183,
-.03755,-.034845,
-.037253,-.035464,
-.036854,-.036022,
-.036364,-.036503,
-.035798,-.036891,
-.035173,-.037176,
-.034508,-.037347,
-.0339,-.0374,
0.0*
%
%ADD17MACRO17*%
%ADD15O,.063X.0157*%
%ADD18O,.024X.0854*%
%ADD14R,.0591X.0315*%
%ADD12R,.0315X.0591*%
%ADD10R,.0157X.0551*%
%ADD11R,.0374X.0394*%
%ADD13R,.0394X.0374*%
%AMMACRO16*
4,1,40,-.0087,-.0374,
.0087,-.0374,
.009383,-.037334,
.010044,-.03715,
.010664,-.036854,
.011222,-.036455,
.011703,-.035965,
.012091,-.0354,
.012375,-.034775,
.012547,-.03411,
.0126,-.0335,
.0126,.0335,
.012534,.034183,
.01235,.034844,
.012054,.035464,
.011655,.036022,
.011165,.036503,
.0106,.036891,
.009975,.037175,
.00931,.037347,
.0087,.0374,
-.0087,.0374,
-.009383,.037334,
-.010044,.03715,
-.010664,.036854,
-.011222,.036455,
-.011703,.035965,
-.012091,.0354,
-.012375,.034775,
-.012547,.03411,
-.0126,.0335,
-.0126,-.0335,
-.012534,-.034183,
-.01235,-.034844,
-.012054,-.035464,
-.011655,-.036022,
-.011165,-.036503,
-.0106,-.036891,
-.009975,-.037175,
-.00931,-.037347,
-.0087,-.0374,
0.0*
%
%ADD16MACRO16*%
%ADD19C,.006*%
G75*
%LPD*%
G75*
G54D10*
X-148700Y-123460D03*
X-151260D03*
X-143580D03*
X-146140D03*
X-141020D03*
G54D11*
X-137450Y54400D03*
X-137650Y66600D03*
X-137350Y78500D03*
Y90400D03*
X-137450Y101800D03*
X-137550Y113400D03*
X-131150Y54400D03*
X-131350Y66600D03*
X-131050Y78500D03*
Y90400D03*
X-131150Y101800D03*
X-131250Y113400D03*
X-92550Y102100D03*
X-86250D03*
X-60750Y102500D03*
X-58550Y22500D03*
X-58750Y32400D03*
X-57950Y47800D03*
X-58050Y57100D03*
X-52250Y22500D03*
X-52450Y32400D03*
X-51650Y47800D03*
X-51750Y57100D03*
X-54450Y102500D03*
X-36650Y103400D03*
X-30350D03*
X-10950Y67100D03*
Y74800D03*
X-4650Y67100D03*
Y74800D03*
G54D12*
X-106300Y19010D03*
Y71020D03*
X-101300Y19010D03*
Y71020D03*
X-96300Y19010D03*
Y71020D03*
X-91300Y19010D03*
Y71020D03*
X-86300Y19010D03*
Y71020D03*
X-81300Y19010D03*
Y71020D03*
X-76300Y19010D03*
Y71020D03*
X-71300Y19010D03*
Y71020D03*
G54D13*
X-96400Y3650D03*
Y9950D03*
X-86300Y3950D03*
Y10250D03*
X-41200Y50350D03*
Y56650D03*
X-32700Y50250D03*
Y56550D03*
X-24200Y50250D03*
Y56550D03*
X-16000Y50150D03*
Y56450D03*
X-11700Y23550D03*
Y29850D03*
X-7800Y50150D03*
Y56450D03*
X-3200Y23550D03*
Y29850D03*
X600Y50150D03*
Y56450D03*
X47900Y83750D03*
Y90050D03*
X59600Y84050D03*
Y90350D03*
X69600Y84050D03*
Y90350D03*
X79600Y84050D03*
Y90350D03*
X89600Y84050D03*
Y90350D03*
G54D14*
X-67800Y27520D03*
Y32520D03*
Y37520D03*
Y42520D03*
Y47520D03*
Y52520D03*
Y57520D03*
Y62520D03*
G54D15*
X-44840Y69700D03*
Y72260D03*
Y74820D03*
Y77380D03*
Y79940D03*
Y82500D03*
Y85060D03*
Y87610D03*
Y90170D03*
Y92730D03*
X-22000Y72260D03*
Y69700D03*
Y77380D03*
Y74820D03*
Y79940D03*
Y85060D03*
Y82500D03*
Y90170D03*
Y87610D03*
Y92730D03*
G54D16*
X-36710Y22400D03*
X-30800D03*
X-24890D03*
G54D17*
X-30800Y34400D03*
G54D18*
X11520Y10810D03*
Y29390D03*
X16480Y10810D03*
Y29390D03*
X16520Y49010D03*
Y67590D03*
X21520Y10810D03*
Y29390D03*
X21480Y49010D03*
Y67590D03*
X26480Y10810D03*
Y29390D03*
X26520Y49010D03*
Y67590D03*
X31520Y10810D03*
Y29390D03*
X31480Y49010D03*
Y67590D03*
X36480Y10810D03*
Y29390D03*
X36520Y49010D03*
Y67590D03*
X41520Y10810D03*
Y29390D03*
X41480Y49010D03*
Y67590D03*
X46480Y10810D03*
Y29390D03*
X46520Y49010D03*
Y67590D03*
X51480Y49010D03*
Y67590D03*
G54D19*
G01X-177170Y141340D02*
X177170D01*
G02X185040Y133460I-5J-7875D01*
G01Y-129530D01*
G02X173230Y-141340I-11812J2D01*
G01X-173230D01*
G02X-185040Y-129530I2J11812D01*
G01Y133460D01*
G02X-177170Y141340I7875J5D01*
G01X-132280Y-81380D02*
Y-100630D01*
X-120830Y-112090D01*
Y-131690D01*
X-127560D01*
X-127800Y-131460D01*
Y-115280D01*
X-137360Y-105710D01*
Y-81730D01*
X-136650Y-81020D01*
X-132640D01*
X-132280Y-81380D01*
G01X-125100Y13900D02*
Y48500D01*
X-111000D01*
Y13900D01*
X-125100D01*
G01X-120080Y-35430D02*
X-110240D01*
Y-21650D01*
X-108270Y-19690D01*
X-96460D01*
X-94490Y-21650D01*
Y-35430D01*
X-84650D01*
Y-17720D01*
X-88580Y-13780D01*
X-116140D01*
X-120080Y-17720D01*
Y-35430D01*
G01X-109250Y-128030D02*
Y-100280D01*
X-99690D01*
Y-128030D01*
X-109250D01*
G01X-89530Y-128270D02*
Y-100040D01*
X-79960D01*
Y-128270D01*
X-89530D01*
G01X-69920Y-128390D02*
Y-100040D01*
X-60000D01*
Y-128390D01*
X-69920D01*
G01X-53150Y-35430D02*
X-43310D01*
Y-21650D01*
X-41340Y-19690D01*
X-29530D01*
X-27560Y-21650D01*
Y-35430D01*
X-17720D01*
Y-17720D01*
X-21650Y-13780D01*
X-49210D01*
X-53150Y-17720D01*
Y-35430D01*
G01X-50550Y-128740D02*
Y-100040D01*
X-40040D01*
Y-128740D01*
X-50550D01*
G01X-30830Y-128980D02*
Y-99690D01*
X-20430D01*
Y-128980D01*
X-30830D01*
G01X-11100Y-129570D02*
Y-99210D01*
X-710D01*
Y-129570D01*
X-11100D01*
G01X8740Y-129330D02*
Y-99450D01*
X19020D01*
Y-129330D01*
X8740D01*
G01X13780Y-35430D02*
X23620D01*
Y-21650D01*
X25590Y-19690D01*
X37400D01*
X39370Y-21650D01*
Y-35430D01*
X49210D01*
Y-17720D01*
X45280Y-13780D01*
X17720D01*
X13780Y-17720D01*
Y-35430D01*
G01X28460Y-129570D02*
Y-99210D01*
X38150D01*
Y-129570D01*
X28460D01*
G01X48190Y-129690D02*
Y-98620D01*
X58110D01*
Y-129690D01*
X48190D01*
G01X67560Y-129920D02*
Y-98390D01*
X77950D01*
Y-129920D01*
X67560D01*
G01X80710Y-35430D02*
X90550D01*
Y-21650D01*
X92520Y-19690D01*
X104330D01*
X106300Y-21650D01*
Y-35430D01*
X116140D01*
Y-17720D01*
X112200Y-13780D01*
X84650D01*
X80710Y-17720D01*
Y-35430D01*
G01X87640Y-129800D02*
Y-98150D01*
X97440D01*
Y-129800D01*
X87640D01*
G01X107500Y-129500D02*
Y-104500D01*
X132000Y-80000D01*
X141500Y-89500D01*
Y-89900D01*
X117400Y-114000D01*
Y-129200D01*
X117100Y-129500D01*
X107500D01*
M02*
