G04 ================== begin FILE IDENTIFICATION RECORD ==================*
G04 Layout Name:  E:/san4ch/Sant4ch/Board/sanT_4ch.brd*
G04 Film Name:    smb*
G04 File Format:  Gerber RS274X*
G04 File Origin:  Cadence Allegro 16.5-P002*
G04 Origin Date:  Sun Jun 18 21:56:18 2017*
G04 *
G04 Layer:  VIA CLASS/SOLDERMASK_BOTTOM*
G04 Layer:  PIN/SOLDERMASK_BOTTOM*
G04 Layer:  PACKAGE GEOMETRY/SOLDERMASK_BOTTOM*
G04 Layer:  BOARD GEOMETRY/OUTLINE*
G04 Layer:  BOARD GEOMETRY/SOLDERMASK_BOTTOM*
G04 *
G04 Offset:    (0.0 0.0)*
G04 Mirror:    No*
G04 Mode:      Positive*
G04 Rotation:  0*
G04 FullContactRelief:  No*
G04 UndefLineWidth:     6.0*
G04 ================== end FILE IDENTIFICATION RECORD ====================*
%FSLAX35Y35*MOIN*%
%IR0*IPPOS*OFA0.00000B0.00000*MIA0B0*SFA1.00000B1.00000*%
%ADD11C,.1024*%
%ADD10C,.063*%
%ADD14C,.0236*%
%ADD12O,.0433X.0591*%
%ADD18R,.063X.063*%
%ADD15C,.0709*%
%ADD17C,.0827*%
%ADD16C,.0886*%
%ADD13R,.0709X.0709*%
%ADD19R,.0827X.0827*%
%ADD20C,.006*%
G75*
%LPD*%
G75*
G54D10*
X-181100Y-67130D03*
Y-49410D03*
Y-28150D03*
Y-10430D03*
Y10830D03*
Y28550D03*
Y49800D03*
Y67520D03*
Y113190D03*
Y130910D03*
X-91460Y116140D03*
X-60750D03*
X-30040D03*
X670D03*
X31380D03*
X62090D03*
X92800D03*
G54D20*
G01X-177170Y141340D02*
X177170D01*
G02X185040Y133460I-5J-7875D01*
G01Y-129530D01*
G02X173230Y-141340I-11812J2D01*
G01X-173230D01*
G02X-185040Y-129530I2J11812D01*
G01Y133460D01*
G02X-177170Y141340I7875J5D01*
G01X-132280Y-81380D02*
Y-100630D01*
X-120830Y-112090D01*
Y-131690D01*
X-127560D01*
X-127800Y-131460D01*
Y-115280D01*
X-137360Y-105710D01*
Y-81730D01*
X-136650Y-81020D01*
X-132640D01*
X-132280Y-81380D01*
G01X-120080Y-35430D02*
X-110240D01*
Y-21650D01*
X-108270Y-19690D01*
X-96460D01*
X-94490Y-21650D01*
Y-35430D01*
X-84650D01*
Y-17720D01*
X-88580Y-13780D01*
X-116140D01*
X-120080Y-17720D01*
Y-35430D01*
G01X-109250Y-128030D02*
Y-100280D01*
X-99690D01*
Y-128030D01*
X-109250D01*
G01X-89530Y-128270D02*
Y-100040D01*
X-79960D01*
Y-128270D01*
X-89530D01*
G01X-69920Y-128390D02*
Y-100040D01*
X-60000D01*
Y-128390D01*
X-69920D01*
G01X-53150Y-35430D02*
X-43310D01*
Y-21650D01*
X-41340Y-19690D01*
X-29530D01*
X-27560Y-21650D01*
Y-35430D01*
X-17720D01*
Y-17720D01*
X-21650Y-13780D01*
X-49210D01*
X-53150Y-17720D01*
Y-35430D01*
G01X-50550Y-128740D02*
Y-100040D01*
X-40040D01*
Y-128740D01*
X-50550D01*
G01X-30830Y-128980D02*
Y-99690D01*
X-20430D01*
Y-128980D01*
X-30830D01*
G01X-11100Y-129570D02*
Y-99210D01*
X-710D01*
Y-129570D01*
X-11100D01*
G01X8740Y-129330D02*
Y-99450D01*
X19020D01*
Y-129330D01*
X8740D01*
G01X13780Y-35430D02*
X23620D01*
Y-21650D01*
X25590Y-19690D01*
X37400D01*
X39370Y-21650D01*
Y-35430D01*
X49210D01*
Y-17720D01*
X45280Y-13780D01*
X17720D01*
X13780Y-17720D01*
Y-35430D01*
G01X28460Y-129570D02*
Y-99210D01*
X38150D01*
Y-129570D01*
X28460D01*
G01X48190Y-129690D02*
Y-98620D01*
X58110D01*
Y-129690D01*
X48190D01*
G01X67560Y-129920D02*
Y-98390D01*
X77950D01*
Y-129920D01*
X67560D01*
G01X80710Y-35430D02*
X90550D01*
Y-21650D01*
X92520Y-19690D01*
X104330D01*
X106300Y-21650D01*
Y-35430D01*
X116140D01*
Y-17720D01*
X112200Y-13780D01*
X84650D01*
X80710Y-17720D01*
Y-35430D01*
G01X87640Y-129800D02*
Y-98150D01*
X97440D01*
Y-129800D01*
X87640D01*
G01X107500Y-129500D02*
Y-104500D01*
X132000Y-80000D01*
X141500Y-89500D01*
Y-89900D01*
X117400Y-114000D01*
Y-129200D01*
X117100Y-129500D01*
X107500D01*
G54D11*
X-171260Y-72050D03*
Y-44490D03*
Y-33070D03*
Y-5510D03*
Y5910D03*
Y33470D03*
Y44880D03*
Y72440D03*
Y108270D03*
Y135830D03*
G54D12*
X-160230Y-135070D03*
Y-121490D03*
X-132050Y-135070D03*
Y-121490D03*
G54D13*
X-156700Y-111000D03*
Y-100800D03*
X-131100Y133300D03*
X-32400Y134100D03*
X91020Y1260D03*
X101020D03*
X141490Y130410D03*
X151020Y1260D03*
X171020D03*
G54D14*
X-154010Y-126690D03*
X-138270D03*
G54D15*
X-146700Y-111000D03*
Y-100800D03*
X-121100Y133300D03*
X-111100D03*
X-101100D03*
X-22400Y134100D03*
X-12400D03*
X-2400D03*
X7600D03*
X151490Y130410D03*
X161490D03*
G54D16*
X-125990Y-81100D03*
Y-33070D03*
X-102360Y-25200D03*
X-78740Y-81100D03*
Y-33070D03*
X-59060Y-81100D03*
Y-33070D03*
X-35430Y-25200D03*
X-11810Y-81100D03*
Y-33070D03*
X7870Y-81100D03*
Y-33070D03*
X31500Y-25200D03*
X55120Y-81100D03*
Y-33070D03*
X74800Y-81100D03*
Y-33070D03*
X98430Y-25200D03*
X122050Y-81100D03*
Y-33070D03*
G54D17*
X-114170Y-125590D03*
X-94490D03*
X-55120D03*
X-35440D03*
X3940D03*
X23620D03*
X62990D03*
X82670D03*
X122040D03*
G54D18*
X-101460Y116140D03*
X-70750D03*
X-40040D03*
X-9330D03*
X21380D03*
X52090D03*
X82800D03*
G54D19*
X-74800Y-125590D03*
X-15750D03*
X43310D03*
X102360D03*
X141730D03*
M02*
